<?xml version="1.0" encoding="UTF-8" standalone="no"?>
<!DOCTYPE svg PUBLIC "-//W3C//DTD SVG 1.1//EN" "http://www.w3.org/Graphics/SVG/1.1/DTD/svg11.dtd">
<svg xmlns="http://www.w3.org/2000/svg" version="1.1" viewBox="0 0 1645 636" width="1645.0pt" height="636.0pt" xmlns:xlink="http://www.w3.org/1999/xlink">
<defs>
<path d="M 0.00 0.00 L 1645.00 0.00 L 1645.00 636.00 L 0.00 636.00 L 0.00 0.00 Z M 435.25 50.00 C 430.49 50.57 425.53 51.26 421.06 53.09 C 418.25 54.24 415.52 55.61 412.76 56.89 C 405.65 60.15 399.12 65.15 393.10 70.10 C 388.63 73.76 383.85 76.61 379.89 80.90 C 374.73 86.46 369.03 91.39 364.32 97.38 C 359.38 102.94 355.59 109.29 350.99 115.11 C 348.94 117.78 347.32 120.68 345.48 123.49 C 338.45 133.12 333.23 143.78 329.76 155.18 C 328.81 158.34 327.35 161.25 325.98 164.23 C 323.86 168.92 323.33 173.57 322.03 178.47 C 321.12 182.06 319.78 185.20 319.70 188.97 C 319.82 195.45 316.66 201.07 317.27 207.67 C 317.29 220.00 318.26 232.11 321.11 244.13 C 323.52 251.09 325.88 258.13 328.98 264.81 C 330.02 267.48 331.15 269.91 333.01 272.11 C 334.76 276.69 337.17 280.88 339.24 285.30 C 341.04 290.39 343.58 295.08 345.96 299.90 C 342.18 303.30 337.77 305.39 333.60 308.21 C 330.17 310.52 326.69 312.77 323.16 314.94 C 311.21 321.81 300.07 330.01 288.13 336.91 C 281.57 340.64 275.82 345.47 269.13 348.94 C 262.16 352.70 256.06 357.49 249.22 361.49 C 245.22 363.82 241.51 366.55 237.72 369.19 C 230.34 373.49 223.09 377.93 216.17 382.94 C 206.33 388.80 196.45 394.52 186.94 400.92 C 183.10 403.84 178.85 406.06 174.87 408.75 C 177.03 412.18 179.35 414.92 182.42 417.58 C 186.76 421.31 189.84 426.10 194.05 429.96 C 196.63 432.36 199.23 434.72 201.57 437.36 C 206.58 443.03 212.41 447.53 216.82 453.76 C 215.81 456.55 214.72 459.35 214.03 462.23 C 213.30 465.50 213.67 468.72 213.17 471.96 C 212.59 475.50 210.92 479.02 210.19 482.48 C 209.64 485.36 210.33 488.51 209.67 491.47 C 207.12 501.30 204.36 511.09 201.70 520.89 C 202.66 524.46 201.90 527.61 201.07 531.09 C 207.05 529.99 209.50 525.52 214.53 522.63 C 219.75 519.48 224.63 516.26 229.27 512.29 C 236.72 507.34 243.87 502.00 251.09 496.73 L 251.24 496.61 C 257.28 493.09 262.56 488.60 268.39 484.78 C 274.15 480.93 278.61 476.30 284.64 472.99 C 287.29 471.59 289.75 470.03 292.03 468.08 C 300.56 461.14 310.17 455.78 318.31 448.43 C 321.26 445.82 324.93 444.50 327.95 441.97 C 330.75 439.66 333.74 437.62 336.68 435.50 L 336.91 435.33 C 342.94 432.86 346.92 428.05 352.40 424.76 C 355.90 422.58 359.30 420.31 362.43 417.62 C 367.33 413.44 372.99 410.62 378.11 406.71 C 381.84 403.76 385.51 400.83 389.72 398.57 C 390.83 399.77 391.93 400.96 392.99 402.20 C 395.01 406.58 396.15 411.32 398.42 415.57 C 403.19 424.48 406.53 434.07 411.39 442.96 C 414.01 447.63 415.45 452.78 418.12 457.44 C 420.62 464.62 423.48 471.00 427.31 477.57 C 429.82 484.10 433.16 490.20 435.84 496.66 C 437.78 501.70 440.61 506.16 441.85 511.47 C 447.87 520.04 450.07 529.89 454.95 539.02 C 458.73 547.77 462.79 556.38 466.93 564.97 C 471.25 574.01 474.37 583.24 479.37 591.90 C 482.25 596.84 483.48 602.41 486.71 607.18 C 489.84 606.05 489.51 602.83 491.18 600.08 C 493.72 595.57 494.36 590.82 495.78 585.93 C 497.26 580.63 498.58 575.28 500.14 570.00 C 501.04 566.64 503.22 564.01 504.34 560.77 C 505.95 555.95 506.61 550.78 508.33 546.00 C 509.36 543.11 511.32 540.93 512.11 538.06 C 512.49 536.36 512.66 534.56 512.85 532.82 C 520.47 529.97 528.45 528.74 536.11 526.07 C 542.14 524.34 548.22 523.44 554.04 520.93 C 559.50 518.45 565.52 518.61 570.98 516.03 C 567.65 506.31 562.36 497.76 557.73 488.66 C 554.16 481.04 549.22 474.38 546.46 466.37 C 542.37 459.19 538.60 451.80 534.21 444.79 C 532.48 441.71 531.75 438.24 529.82 435.23 C 527.69 431.85 526.28 428.22 524.79 424.54 C 521.78 419.38 518.59 414.43 516.05 408.95 C 514.89 406.47 513.72 404.01 512.31 401.66 C 509.68 397.45 508.29 392.68 505.64 388.47 C 501.48 381.57 498.30 374.23 494.75 367.02 C 493.80 364.99 492.42 363.29 491.00 361.58 C 489.04 355.01 484.77 349.38 481.98 343.08 C 480.91 340.45 480.50 337.72 480.26 334.91 C 488.89 328.30 497.98 322.27 506.30 315.27 C 509.76 312.55 513.74 310.83 517.19 308.11 C 522.67 303.63 527.88 298.90 532.20 293.27 C 536.81 288.13 540.66 282.61 542.88 276.02 C 543.35 274.40 542.83 272.43 542.59 270.81 C 545.54 264.91 549.53 260.54 551.62 254.28 C 553.19 249.62 553.96 245.08 556.94 241.00 C 558.96 238.27 559.70 235.16 560.76 232.00 C 564.42 226.05 563.62 219.77 565.56 213.30 C 566.53 206.88 568.12 199.88 567.06 193.43 C 566.68 189.71 567.50 185.78 567.52 182.00 C 567.60 178.26 566.96 174.67 566.29 171.01 C 565.05 164.87 565.85 158.73 564.28 152.62 C 562.74 146.74 562.71 140.94 560.06 135.36 C 558.92 126.86 555.15 119.85 552.15 111.93 C 550.48 107.52 548.01 103.61 545.51 99.64 C 541.05 88.15 532.57 81.75 524.24 73.29 C 521.64 70.63 518.68 68.55 515.44 66.73 C 509.16 62.27 502.03 57.81 494.42 56.19 C 487.64 54.18 480.85 52.40 473.94 50.86 C 469.66 49.63 465.54 48.32 461.01 48.43 C 452.23 48.61 443.87 47.67 435.25 50.00 Z M 664.77 101.24 C 665.05 123.50 664.72 145.76 663.72 168.00 C 663.61 184.03 662.34 199.97 661.58 215.98 C 660.73 238.80 658.96 261.54 657.28 284.30 C 675.42 283.61 693.54 283.95 711.68 284.27 C 711.53 266.16 712.20 248.10 712.62 230.00 C 713.59 200.01 714.03 169.85 716.35 139.93 C 722.23 139.50 728.11 139.33 734.00 139.03 C 738.61 138.82 743.43 138.91 747.93 140.02 C 753.03 141.34 757.37 144.99 758.79 150.17 C 760.45 156.39 759.70 163.58 755.93 168.93 C 753.01 173.24 748.60 176.19 743.60 177.51 C 735.84 179.67 728.57 178.71 720.72 178.03 C 723.97 189.98 727.05 202.01 729.38 214.18 C 747.66 217.47 768.20 215.63 784.75 206.76 C 798.73 199.42 808.62 185.91 812.70 170.79 C 815.01 162.56 815.28 153.66 814.44 145.19 C 813.13 134.60 809.22 124.06 801.72 116.28 C 794.32 108.35 784.26 103.20 773.55 101.59 C 761.93 99.89 749.74 100.34 738.01 100.51 C 725.32 100.60 712.69 101.56 700.00 101.43 C 688.25 101.45 676.51 101.43 664.77 101.24 Z M 832.62 284.28 C 852.71 283.82 872.79 283.85 892.88 284.29 C 893.37 277.85 893.19 271.44 893.25 265.00 C 893.80 210.34 896.09 155.68 900.46 101.19 C 885.64 101.33 870.82 101.51 856.00 101.32 C 850.82 101.44 845.60 101.00 840.44 101.35 C 840.08 116.86 840.71 132.47 839.91 147.99 C 838.70 193.57 835.86 238.83 832.62 284.28 Z M 926.15 284.30 C 943.64 283.85 961.16 283.69 978.64 284.31 C 979.87 259.57 979.67 234.75 981.18 210.01 C 981.71 195.88 982.40 181.76 983.07 167.64 C 986.63 173.34 989.37 179.47 992.71 185.31 C 1006.12 209.98 1020.54 234.04 1034.77 258.23 C 1039.86 266.75 1044.58 275.49 1049.20 284.27 C 1071.66 283.84 1094.17 283.67 1116.63 284.30 C 1116.66 274.19 1117.41 264.12 1117.40 254.00 C 1118.78 225.67 1120.56 197.33 1121.97 169.00 C 1122.84 156.32 1123.18 143.66 1124.35 131.00 C 1125.00 121.06 1126.15 111.15 1126.68 101.20 C 1109.21 101.41 1091.74 101.52 1074.27 101.23 C 1073.71 117.32 1073.56 133.41 1072.80 149.50 C 1071.85 172.96 1071.11 196.57 1069.30 219.97 C 1066.32 215.04 1063.95 209.82 1061.21 204.77 C 1042.28 170.26 1023.22 135.82 1004.35 101.27 C 986.56 101.26 968.79 101.61 951.00 101.34 C 945.85 101.42 940.66 101.05 935.52 101.36 C 935.03 108.88 935.58 116.47 935.29 124.00 C 934.65 139.68 933.98 155.33 933.30 171.01 C 931.48 200.49 930.17 230.03 928.30 259.52 C 927.55 267.79 926.44 275.99 926.15 284.30 Z M 1160.69 101.19 C 1160.84 128.78 1159.38 156.45 1157.98 184.00 C 1156.49 217.48 1154.56 250.92 1151.12 284.26 C 1163.42 284.34 1175.70 283.58 1188.00 284.04 C 1195.61 283.73 1203.17 284.38 1210.78 284.26 C 1212.33 251.89 1213.02 219.32 1214.97 186.99 C 1216.88 158.40 1218.61 129.79 1220.43 101.19 C 1200.51 101.46 1180.60 101.45 1160.69 101.19 Z M 1218.33 187.77 C 1238.23 219.50 1257.61 251.51 1275.67 284.33 C 1282.79 284.30 1289.88 283.73 1297.00 284.05 C 1309.31 283.87 1321.69 283.62 1334.00 284.17 C 1337.58 284.30 1341.16 284.28 1344.74 284.24 C 1328.02 259.67 1311.05 235.27 1294.24 210.76 C 1288.76 203.04 1283.80 194.99 1278.85 186.92 C 1284.01 179.75 1289.21 172.64 1294.77 165.77 C 1311.81 144.25 1328.90 122.77 1345.90 101.22 C 1325.26 101.35 1304.62 101.54 1283.98 101.19 C 1282.38 101.38 1280.35 100.76 1279.42 102.40 C 1276.53 106.25 1274.24 110.52 1271.39 114.40 C 1257.54 133.85 1243.65 153.26 1229.42 172.43 C 1225.73 177.57 1221.84 182.52 1218.33 187.77 Z M 233.24 204.28 C 229.95 205.47 227.63 208.46 227.62 212.01 C 227.94 216.35 231.44 220.23 236.01 219.86 C 241.06 219.90 244.91 214.48 243.35 209.72 C 242.17 205.61 237.37 202.65 233.24 204.28 Z M 238.98 228.87 C 249.68 245.94 260.46 262.95 271.25 279.96 C 274.83 277.84 278.34 275.63 281.83 273.37 C 271.09 256.33 260.43 239.20 249.47 222.30 C 245.87 224.31 242.45 226.66 238.98 228.87 Z M 229.09 234.17 C 223.92 238.16 221.93 243.53 221.18 249.86 C 219.73 247.53 218.24 245.24 216.73 242.94 C 213.19 245.13 209.67 247.36 206.18 249.63 C 217.00 266.65 227.70 283.75 238.57 300.73 C 242.07 298.52 245.57 296.30 249.05 294.05 C 243.60 285.17 237.90 276.44 232.39 267.59 C 229.89 263.41 227.24 258.58 228.55 253.54 C 229.91 248.62 234.47 245.99 238.35 243.19 C 236.08 239.52 233.78 235.88 231.40 232.27 C 230.63 232.90 229.86 233.54 229.09 234.17 Z M 168.71 243.69 C 169.93 250.31 170.68 256.99 171.81 263.62 C 174.09 262.18 176.36 260.73 178.63 259.28 C 178.36 252.13 178.23 244.99 178.06 237.84 C 174.80 239.61 171.72 241.53 168.71 243.69 Z M 153.38 253.25 C 154.54 259.83 155.75 266.40 156.92 272.97 C 159.19 271.58 161.46 270.16 163.71 268.74 C 163.48 261.63 162.95 254.54 162.49 247.45 C 159.42 249.34 156.39 251.27 153.38 253.25 Z M 182.46 265.70 C 170.00 268.52 158.68 278.93 157.27 292.03 C 156.01 301.90 160.00 311.26 166.52 318.50 C 171.56 324.01 178.47 327.69 185.98 328.17 C 201.59 329.43 217.17 317.05 219.41 301.53 C 221.32 289.08 214.32 275.77 203.75 269.26 C 197.36 265.23 189.81 264.30 182.46 265.70 Z M 1268.91 319.76 C 1282.12 319.50 1295.33 319.52 1308.54 319.75 C 1316.66 310.10 1324.78 300.46 1333.38 291.24 C 1318.91 291.31 1304.47 291.70 1290.00 291.27 C 1287.25 291.25 1284.39 291.02 1281.66 291.42 C 1280.41 293.32 1279.54 295.55 1278.64 297.64 C 1275.57 305.09 1271.95 312.30 1268.91 319.76 Z M 145.90 295.94 C 143.61 297.39 141.33 298.85 139.04 300.31 C 141.57 314.62 144.80 328.81 147.39 343.11 C 135.89 334.40 124.49 325.54 113.00 316.81 C 109.54 318.95 106.08 321.09 102.64 323.25 C 117.81 334.51 133.21 345.46 148.49 356.56 C 150.18 365.80 151.53 375.11 153.32 384.34 C 156.49 382.36 159.66 380.37 162.83 378.40 C 158.23 350.33 153.44 322.28 148.57 294.26 C 147.68 294.82 146.79 295.38 145.90 295.94 Z M 88.89 331.99 C 90.16 334.09 91.45 336.17 92.77 338.24 C 88.70 337.50 84.86 336.90 80.75 337.81 C 71.49 339.98 63.63 347.28 61.67 356.72 C 58.67 370.91 68.52 386.53 82.22 390.74 C 91.96 393.71 102.79 389.98 108.81 381.84 C 111.25 378.50 112.21 374.86 113.37 370.97 C 116.58 376.09 121.31 381.64 120.87 388.01 C 120.85 395.82 113.14 401.38 106.03 402.41 C 102.16 403.10 99.04 401.63 95.67 400.02 C 92.55 401.81 89.53 403.76 86.58 405.81 C 89.60 408.70 92.50 411.33 96.73 412.26 C 106.57 414.46 115.85 410.54 123.33 404.31 C 128.87 399.53 132.23 392.35 131.73 384.97 C 131.46 379.30 129.01 374.65 126.04 369.97 C 116.76 355.42 107.62 340.74 98.33 326.21 C 95.08 327.91 91.98 330.00 88.89 331.99 Z M 1397.13 465.99 C 1398.80 480.61 1400.13 495.29 1400.92 509.99 C 1418.53 513.27 1436.04 515.96 1454.00 516.13 C 1468.20 515.70 1481.99 514.33 1494.91 507.92 C 1503.14 503.86 1510.42 498.22 1515.44 490.44 C 1521.88 480.84 1524.75 468.55 1522.71 457.14 C 1521.12 448.50 1515.97 441.17 1510.33 434.66 C 1498.54 421.06 1481.56 411.05 1468.47 398.53 C 1464.84 394.93 1460.90 390.37 1460.80 384.99 C 1460.83 380.56 1463.90 377.54 1467.54 375.53 C 1475.24 371.28 1484.37 371.51 1492.85 372.38 C 1503.26 373.41 1513.02 376.54 1522.76 380.20 C 1521.61 366.10 1519.90 352.09 1519.53 337.93 C 1496.15 333.57 1470.63 330.66 1447.12 335.25 C 1433.68 338.22 1419.92 345.48 1412.34 357.35 C 1403.81 370.07 1402.36 387.06 1409.13 400.88 C 1413.53 409.85 1421.03 417.04 1428.48 423.52 C 1438.51 432.16 1448.47 440.88 1458.46 449.56 C 1462.17 452.90 1466.22 456.87 1467.23 461.96 C 1468.10 466.46 1466.20 470.89 1462.26 473.24 C 1456.18 476.92 1447.94 477.56 1440.99 477.43 C 1425.52 476.78 1411.19 472.14 1397.13 465.99 Z M 658.73 336.34 C 658.94 369.48 657.38 402.93 656.23 436.05 C 655.68 448.38 654.90 460.69 654.23 473.01 C 653.21 486.28 651.93 499.51 650.65 512.76 C 670.01 512.45 689.35 512.47 708.71 512.75 C 708.83 502.13 708.49 491.60 709.18 481.01 C 709.55 468.39 709.59 455.77 710.25 443.16 C 721.17 442.72 732.08 442.70 743.00 442.49 C 754.78 442.38 766.56 443.00 778.34 442.96 C 778.25 430.28 778.90 417.65 779.69 404.99 C 757.22 405.32 734.78 405.56 712.31 404.97 C 712.70 394.86 712.97 384.75 713.63 374.66 C 732.08 374.48 750.54 374.49 769.00 374.53 C 777.31 374.73 785.57 374.54 793.86 375.27 C 794.46 362.28 795.22 349.31 796.01 336.34 C 769.34 336.41 742.68 336.59 716.00 336.50 C 696.91 336.62 677.83 336.21 658.73 336.34 Z M 997.71 336.19 C 978.65 336.21 959.58 336.04 940.53 336.28 C 939.51 347.57 939.30 358.89 938.66 370.20 C 937.83 389.17 936.36 408.10 935.15 427.05 C 933.77 440.12 933.86 452.07 926.61 463.61 C 922.62 470.13 915.98 474.02 908.51 475.22 C 899.25 476.55 888.73 475.68 880.86 470.17 C 874.55 465.60 871.99 458.51 871.13 451.02 C 869.51 436.63 871.27 421.48 871.63 407.02 C 873.27 383.50 874.93 359.87 876.54 336.35 C 861.37 336.37 846.19 336.72 831.00 336.36 C 827.61 336.32 824.13 336.11 820.76 336.51 C 819.66 349.27 819.68 362.20 818.80 374.99 C 818.15 395.69 816.53 416.31 814.75 436.94 C 814.29 449.06 812.55 460.19 814.99 471.98 C 816.97 481.40 821.16 490.12 828.85 496.18 C 844.64 509.10 865.98 514.25 885.96 515.51 C 892.65 515.68 899.35 516.34 905.99 515.89 C 924.07 515.27 943.86 512.64 960.01 504.01 C 969.73 498.95 978.21 492.22 983.39 482.37 C 989.89 470.35 990.31 456.32 990.99 442.99 C 991.71 417.37 994.23 391.80 995.67 366.20 C 996.32 356.21 997.31 346.19 997.71 336.19 Z M 1011.88 336.37 C 1011.69 349.52 1011.22 362.58 1010.53 375.71 C 1028.89 375.50 1047.21 374.76 1065.56 374.38 C 1064.82 414.02 1063.17 453.53 1059.70 493.02 C 1059.26 499.61 1058.36 506.16 1058.01 512.75 C 1076.92 512.47 1095.82 512.33 1114.73 512.79 C 1115.38 504.79 1115.06 496.81 1115.29 488.80 C 1116.30 450.65 1117.60 412.39 1120.99 374.37 C 1139.23 374.10 1157.37 374.99 1175.58 375.72 C 1175.90 362.60 1176.36 349.44 1177.30 336.35 C 1132.52 336.21 1087.79 336.70 1043.00 336.45 C 1032.63 336.24 1022.25 336.33 1011.88 336.37 Z M 1163.81 512.73 C 1184.19 512.43 1204.55 512.38 1224.93 512.76 C 1232.35 495.91 1240.13 479.26 1248.12 462.68 C 1269.85 462.38 1291.60 462.64 1313.34 462.55 C 1319.60 479.07 1325.01 495.85 1329.92 512.81 C 1349.59 512.32 1369.25 512.44 1388.92 512.74 C 1385.98 505.15 1382.83 497.63 1379.99 490.00 C 1367.76 456.91 1355.47 423.83 1343.26 390.74 C 1336.87 372.65 1330.58 354.53 1324.26 336.42 C 1305.52 336.33 1286.75 336.75 1268.00 336.34 C 1264.47 336.34 1260.81 336.05 1257.31 336.57 C 1256.60 337.46 1256.05 338.53 1255.53 339.55 C 1249.37 352.55 1242.99 365.46 1236.14 378.11 C 1216.26 415.56 1196.34 453.00 1176.45 490.44 C 1172.45 498.00 1167.94 505.25 1163.81 512.73 Z" id="p0" />
<path d="M 461.01 48.43 C 465.54 48.32 469.66 49.63 473.94 50.86 C 472.87 51.94 471.86 53.07 470.84 54.20 C 469.81 53.95 468.77 53.71 467.72 53.51 C 462.97 52.83 458.16 52.53 453.40 51.94 C 450.81 51.67 448.18 51.40 445.57 51.36 C 444.17 51.34 442.76 51.32 441.35 51.33 C 439.90 51.29 438.45 51.19 437.01 51.08 L 435.25 50.00 C 443.87 47.67 452.23 48.61 461.01 48.43 Z" id="p1" />
<path d="M 435.25 50.00 L 437.01 51.08 C 430.63 52.20 423.81 53.17 417.98 55.95 C 410.86 59.14 403.57 63.31 398.23 69.08 C 395.79 71.77 393.46 74.53 390.80 77.01 C 388.12 78.24 385.73 79.51 383.93 81.93 C 381.12 85.47 378.22 88.85 374.80 91.82 C 370.70 95.41 367.68 99.87 363.36 103.23 C 357.72 107.12 357.54 112.80 353.91 118.12 C 351.26 122.00 348.10 125.45 345.80 129.59 C 345.78 127.55 345.63 125.53 345.48 123.49 C 347.32 120.68 348.94 117.78 350.99 115.11 C 355.59 109.29 359.38 102.94 364.32 97.38 C 369.03 91.39 374.73 86.46 379.89 80.90 C 383.85 76.61 388.63 73.76 393.10 70.10 C 399.12 65.15 405.65 60.15 412.76 56.89 C 415.52 55.61 418.25 54.24 421.06 53.09 C 425.53 51.26 430.49 50.57 435.25 50.00 Z" id="p2" />
<path d="M 437.01 51.08 C 438.45 51.19 439.90 51.29 441.35 51.33 C 435.97 52.73 431.04 55.10 425.85 56.98 C 420.78 58.48 415.82 59.98 411.01 62.18 C 406.53 64.26 403.12 67.73 398.23 69.08 C 403.57 63.31 410.86 59.14 417.98 55.95 C 423.81 53.17 430.63 52.20 437.01 51.08 Z" id="p3" />
<path d="M 445.57 51.36 C 443.81 54.73 442.24 58.19 440.66 61.64 C 438.26 66.64 438.05 71.88 436.46 77.40 C 434.02 85.89 432.56 94.59 430.04 103.05 C 429.05 105.88 429.82 108.33 430.58 111.09 C 428.24 111.39 425.88 111.50 423.52 111.54 C 421.50 110.71 419.53 109.76 417.49 108.97 C 416.22 106.76 414.62 104.55 413.78 102.14 C 413.44 100.39 414.24 98.33 414.69 96.64 C 418.16 86.54 420.80 76.11 423.54 65.79 C 424.60 65.27 425.65 64.75 426.70 64.22 C 425.98 63.20 425.26 62.17 424.54 61.14 C 425.70 60.38 426.86 59.62 428.02 58.86 C 427.31 58.23 426.58 57.60 425.85 56.98 C 431.04 55.10 435.97 52.73 441.35 51.33 C 442.76 51.32 444.17 51.34 445.57 51.36 Z" id="p4" />
<path d="M 473.94 50.86 C 480.85 52.40 487.64 54.18 494.42 56.19 C 493.39 56.50 492.36 56.82 491.33 57.15 C 492.23 58.53 493.13 59.92 494.03 61.31 C 490.75 60.37 487.53 59.69 484.46 58.13 C 483.20 57.27 481.97 56.28 480.62 55.58 C 478.23 54.93 475.61 55.00 473.15 54.75 C 472.38 54.58 471.61 54.39 470.84 54.20 C 471.86 53.07 472.87 51.94 473.94 50.86 Z" id="p5" />
<path d="M 445.57 51.36 C 448.18 51.40 450.81 51.67 453.40 51.94 C 452.46 56.32 451.24 60.57 449.81 64.82 C 447.94 70.37 447.39 76.04 445.81 81.66 C 444.04 87.91 442.36 94.18 440.40 100.38 C 439.40 103.41 439.46 106.47 439.59 109.62 C 436.58 109.99 433.59 110.65 430.58 111.09 C 429.82 108.33 429.05 105.88 430.04 103.05 C 432.56 94.59 434.02 85.89 436.46 77.40 C 438.05 71.88 438.26 66.64 440.66 61.64 C 442.24 58.19 443.81 54.73 445.57 51.36 Z" id="p6" />
<path d="M 453.40 51.94 C 458.16 52.53 462.97 52.83 467.72 53.51 C 463.64 55.81 464.73 59.09 464.06 63.03 C 463.59 68.09 461.82 72.57 460.42 77.38 C 458.23 84.74 457.03 92.22 454.21 99.41 C 452.67 103.32 452.02 107.39 451.63 111.55 C 447.71 110.37 443.69 109.63 439.59 109.62 C 439.46 106.47 439.40 103.41 440.40 100.38 C 442.36 94.18 444.04 87.91 445.81 81.66 C 447.39 76.04 447.94 70.37 449.81 64.82 C 451.24 60.57 452.46 56.32 453.40 51.94 Z" id="p7" />
<path d="M 467.72 53.51 C 468.77 53.71 469.81 53.95 470.84 54.20 C 471.61 54.39 472.38 54.58 473.15 54.75 C 469.93 60.24 470.59 65.78 468.81 71.68 C 465.91 81.34 463.97 91.10 460.62 100.62 C 459.16 104.70 458.39 108.90 457.94 113.21 L 457.10 113.14 C 455.26 112.67 453.45 112.09 451.63 111.55 C 452.02 107.39 452.67 103.32 454.21 99.41 C 457.03 92.22 458.23 84.74 460.42 77.38 C 461.82 72.57 463.59 68.09 464.06 63.03 C 464.73 59.09 463.64 55.81 467.72 53.51 Z" id="p8" />
<path d="M 473.15 54.75 C 475.61 55.00 478.23 54.93 480.62 55.58 C 481.97 56.28 483.20 57.27 484.46 58.13 C 484.53 59.70 484.70 61.30 484.64 62.87 C 483.84 65.27 481.78 67.22 480.76 69.54 C 480.05 72.76 480.32 76.04 479.24 79.22 C 476.63 87.27 473.54 95.35 471.39 103.56 C 470.62 106.53 470.48 109.52 470.37 112.56 C 469.28 113.29 468.18 114.01 467.08 114.74 C 464.10 113.83 461.04 113.41 457.94 113.21 C 458.39 108.90 459.16 104.70 460.62 100.62 C 463.97 91.10 465.91 81.34 468.81 71.68 C 470.59 65.78 469.93 60.24 473.15 54.75 Z" id="p9" />
<path d="M 425.85 56.98 C 426.58 57.60 427.31 58.23 428.02 58.86 C 426.86 59.62 425.70 60.38 424.54 61.14 C 425.26 62.17 425.98 63.20 426.70 64.22 C 425.65 64.75 424.60 65.27 423.54 65.79 C 420.80 76.11 418.16 86.54 414.69 96.64 C 414.24 98.33 413.44 100.39 413.78 102.14 C 414.62 104.55 416.22 106.76 417.49 108.97 C 411.18 108.95 404.83 112.43 398.96 114.51 C 397.39 112.77 395.83 111.02 394.27 109.26 C 395.56 108.09 396.85 106.92 398.14 105.75 C 395.53 102.95 393.23 100.46 393.69 96.32 C 394.46 93.48 397.04 91.15 398.22 88.45 C 399.07 85.32 398.73 81.78 399.74 78.67 C 400.47 76.57 402.67 74.93 404.16 73.33 C 405.82 71.68 406.67 69.72 407.92 67.78 C 409.27 65.61 411.32 63.80 413.11 61.97 L 411.01 62.18 C 415.82 59.98 420.78 58.48 425.85 56.98 Z" id="p10" />
<path d="M 491.33 57.15 C 492.36 56.82 493.39 56.50 494.42 56.19 C 502.03 57.81 509.16 62.27 515.44 66.73 C 511.59 65.10 508.32 63.12 503.96 63.95 C 501.95 63.54 499.96 63.04 497.98 62.50 C 496.66 62.12 495.35 61.69 494.03 61.31 C 493.13 59.92 492.23 58.53 491.33 57.15 Z" id="p11" />
<path d="M 484.46 58.13 C 487.53 59.69 490.75 60.37 494.03 61.31 C 495.35 61.69 496.66 62.12 497.98 62.50 C 494.53 65.44 492.11 69.50 491.35 73.98 C 490.75 77.31 490.22 80.60 489.02 83.77 C 486.24 90.94 484.99 98.47 482.68 105.79 C 481.66 108.85 482.35 111.78 482.01 114.87 C 481.60 116.95 478.86 117.88 477.23 118.89 C 473.92 117.33 470.58 115.86 467.08 114.74 C 468.18 114.01 469.28 113.29 470.37 112.56 C 470.48 109.52 470.62 106.53 471.39 103.56 C 473.54 95.35 476.63 87.27 479.24 79.22 C 480.32 76.04 480.05 72.76 480.76 69.54 C 481.78 67.22 483.84 65.27 484.64 62.87 C 484.70 61.30 484.53 59.70 484.46 58.13 Z" id="p12" />
<path d="M 411.01 62.18 L 413.11 61.97 C 411.32 63.80 409.27 65.61 407.92 67.78 C 406.67 69.72 405.82 71.68 404.16 73.33 C 402.67 74.93 400.47 76.57 399.74 78.67 C 398.73 81.78 399.07 85.32 398.22 88.45 C 397.04 91.15 394.46 93.48 393.69 96.32 C 393.23 100.46 395.53 102.95 398.14 105.75 C 396.85 106.92 395.56 108.09 394.27 109.26 C 395.83 111.02 397.39 112.77 398.96 114.51 C 397.89 114.99 396.84 115.51 395.77 116.00 L 395.14 116.16 C 389.45 116.94 383.94 116.29 378.41 114.90 C 378.41 113.84 378.40 112.79 378.40 111.73 C 378.01 115.26 377.74 118.79 377.48 122.33 C 377.26 121.19 377.07 120.06 376.89 118.92 C 377.45 115.63 378.12 112.37 378.47 109.04 C 379.60 97.36 384.16 86.60 390.80 77.01 C 393.46 74.53 395.79 71.77 398.23 69.08 C 403.12 67.73 406.53 64.26 411.01 62.18 Z" id="p13" />
<path d="M 497.98 62.50 C 499.96 63.04 501.95 63.54 503.96 63.95 C 506.26 65.36 508.50 66.88 510.80 68.31 C 510.46 68.82 510.11 69.32 509.77 69.83 C 512.06 76.86 508.49 81.63 507.21 88.34 C 505.42 96.96 502.57 105.27 500.61 113.83 C 499.71 117.71 498.43 121.47 496.98 125.17 C 491.71 121.50 485.86 120.75 479.65 120.01 C 478.85 119.64 478.04 119.26 477.23 118.89 C 478.86 117.88 481.60 116.95 482.01 114.87 C 482.35 111.78 481.66 108.85 482.68 105.79 C 484.99 98.47 486.24 90.94 489.02 83.77 C 490.22 80.60 490.75 77.31 491.35 73.98 C 492.11 69.50 494.53 65.44 497.98 62.50 Z" id="p14" />
<path d="M 515.44 66.73 C 518.68 68.55 521.64 70.63 524.24 73.29 C 523.32 74.18 522.43 75.10 521.54 76.01 C 518.18 73.12 514.58 70.60 510.80 68.31 C 508.50 66.88 506.26 65.36 503.96 63.95 C 508.32 63.12 511.59 65.10 515.44 66.73 Z" id="p15" />
<path d="M 510.80 68.31 C 514.58 70.60 518.18 73.12 521.54 76.01 C 522.16 76.54 522.78 77.06 523.41 77.58 C 522.05 77.45 520.69 77.35 519.33 77.29 C 520.27 79.73 521.10 82.08 521.24 84.72 C 521.98 85.38 522.72 86.04 523.47 86.70 C 522.24 87.30 521.01 87.90 519.79 88.51 C 518.11 98.56 514.70 108.40 512.38 118.19 C 511.50 121.68 511.71 125.93 510.11 129.14 C 508.14 131.64 505.86 130.90 503.13 130.78 C 503.28 131.71 503.42 132.65 503.57 133.58 L 502.73 133.15 L 502.23 132.89 C 500.68 130.17 499.04 127.54 496.98 125.17 C 498.43 121.47 499.71 117.71 500.61 113.83 C 502.57 105.27 505.42 96.96 507.21 88.34 C 508.49 81.63 512.06 76.86 509.77 69.83 C 510.11 69.32 510.46 68.82 510.80 68.31 Z" id="p16" />
<path d="M 524.24 73.29 C 532.57 81.75 541.05 88.15 545.51 99.64 C 546.25 102.42 547.03 105.18 547.83 107.94 C 547.87 109.04 547.90 110.13 547.92 111.23 C 546.86 108.79 545.91 106.30 544.88 103.85 C 543.60 100.69 542.16 97.82 539.24 95.88 C 536.33 93.85 534.28 92.27 533.16 88.74 C 531.49 83.89 527.16 80.78 523.41 77.58 C 522.78 77.06 522.16 76.54 521.54 76.01 C 522.43 75.10 523.32 74.18 524.24 73.29 Z" id="p17" />
<path d="M 390.80 77.01 C 384.16 86.60 379.60 97.36 378.47 109.04 C 378.12 112.37 377.45 115.63 376.89 118.92 C 373.76 123.89 376.61 129.56 374.59 135.20 C 371.92 135.16 368.87 134.66 366.27 135.38 C 363.86 136.76 361.90 139.28 359.34 140.34 C 356.70 140.60 353.88 139.79 351.27 139.37 C 349.07 141.01 346.87 142.64 344.62 144.22 C 344.19 140.55 344.55 137.01 345.22 133.40 C 345.42 132.13 345.61 130.86 345.80 129.59 C 348.10 125.45 351.26 122.00 353.91 118.12 C 357.54 112.80 357.72 107.12 363.36 103.23 C 367.68 99.87 370.70 95.41 374.80 91.82 C 378.22 88.85 381.12 85.47 383.93 81.93 C 385.73 79.51 388.12 78.24 390.80 77.01 Z" id="p18" />
<path d="M 519.33 77.29 C 520.69 77.35 522.05 77.45 523.41 77.58 C 527.16 80.78 531.49 83.89 533.16 88.74 C 532.78 93.38 531.36 97.69 529.81 102.05 C 528.44 105.90 527.63 109.87 526.59 113.81 C 525.52 117.92 523.49 121.48 522.64 125.61 C 522.05 128.61 521.85 131.70 521.55 134.73 C 518.35 135.29 515.11 136.03 511.87 136.20 C 508.92 136.39 506.17 134.80 503.57 133.58 C 503.42 132.65 503.28 131.71 503.13 130.78 C 505.86 130.90 508.14 131.64 510.11 129.14 C 511.71 125.93 511.50 121.68 512.38 118.19 C 514.70 108.40 518.11 98.56 519.79 88.51 C 521.01 87.90 522.24 87.30 523.47 86.70 C 522.72 86.04 521.98 85.38 521.24 84.72 C 521.10 82.08 520.27 79.73 519.33 77.29 Z" id="p19" />
<path d="M 533.16 88.74 C 534.28 92.27 536.33 93.85 539.24 95.88 C 542.16 97.82 543.60 100.69 544.88 103.85 C 541.88 107.45 539.80 111.23 538.83 115.86 C 537.31 122.95 534.87 129.69 533.83 136.87 C 534.81 138.31 535.78 139.75 536.75 141.20 C 536.54 141.67 536.32 142.15 536.11 142.63 C 534.31 141.79 532.52 140.96 530.72 140.13 C 530.58 144.56 529.19 150.37 532.09 154.11 C 533.60 156.51 534.84 159.22 536.70 161.36 C 537.90 162.25 540.01 161.96 541.49 162.18 L 540.67 163.70 C 540.21 164.48 539.75 165.25 539.28 166.02 C 537.64 164.50 536.00 162.98 534.47 161.36 C 528.71 154.88 522.91 148.26 516.46 142.48 C 512.09 139.12 507.37 136.12 502.73 133.15 L 503.57 133.58 C 506.17 134.80 508.92 136.39 511.87 136.20 C 515.11 136.03 518.35 135.29 521.55 134.73 C 521.85 131.70 522.05 128.61 522.64 125.61 C 523.49 121.48 525.52 117.92 526.59 113.81 C 527.63 109.87 528.44 105.90 529.81 102.05 C 531.36 97.69 532.78 93.38 533.16 88.74 Z" id="p20" />
<path d="M 545.51 99.64 C 548.01 103.61 550.48 107.52 552.15 111.93 C 555.15 119.85 558.92 126.86 560.06 135.36 C 560.08 143.36 563.49 150.85 563.23 158.77 C 560.39 154.43 560.71 149.87 559.79 145.02 C 558.99 140.69 556.46 137.40 555.89 133.03 C 555.33 130.23 555.69 127.76 553.66 125.52 C 552.90 124.83 552.13 124.14 551.36 123.47 C 550.84 118.13 549.43 113.04 547.83 107.94 C 547.03 105.18 546.25 102.42 545.51 99.64 Z" id="p21" />
<path d="M 773.55 101.59 C 784.26 103.20 794.32 108.35 801.72 116.28 C 809.22 124.06 813.13 134.60 814.44 145.19 C 815.28 153.66 815.01 162.56 812.70 170.79 C 808.62 185.91 798.73 199.42 784.75 206.76 C 768.20 215.63 747.66 217.47 729.38 214.18 C 727.05 202.01 723.97 189.98 720.72 178.03 C 728.57 178.71 735.84 179.67 743.60 177.51 C 748.60 176.19 753.01 173.24 755.93 168.93 C 759.70 163.58 760.45 156.39 758.79 150.17 C 757.37 144.99 753.03 141.34 747.93 140.02 C 743.43 138.91 738.61 138.82 734.00 139.03 C 728.11 139.33 722.23 139.50 716.35 139.93 C 714.03 169.85 713.59 200.01 712.62 230.00 C 712.20 248.10 711.53 266.16 711.68 284.27 C 693.54 283.95 675.42 283.61 657.28 284.30 C 658.96 261.54 660.73 238.80 661.58 215.98 C 662.34 199.97 663.61 184.03 663.72 168.00 C 664.72 145.76 665.05 123.50 664.77 101.24 C 676.51 101.43 688.25 101.45 700.00 101.43 C 712.69 101.56 725.32 100.60 738.01 100.51 C 749.74 100.34 761.93 99.89 773.55 101.59 Z" id="p22" />
<path d="M 840.44 101.35 C 845.60 101.00 850.82 101.44 856.00 101.32 C 870.82 101.51 885.64 101.33 900.46 101.19 C 896.09 155.68 893.80 210.34 893.25 265.00 C 893.19 271.44 893.37 277.85 892.88 284.29 C 872.79 283.85 852.71 283.82 832.62 284.28 C 835.86 238.83 838.70 193.57 839.91 147.99 C 840.71 132.47 840.08 116.86 840.44 101.35 Z" id="p23" />
<path d="M 935.52 101.36 C 940.66 101.05 945.85 101.42 951.00 101.34 C 968.79 101.61 986.56 101.26 1004.35 101.27 C 1023.22 135.82 1042.28 170.26 1061.21 204.77 C 1063.95 209.82 1066.32 215.04 1069.30 219.97 C 1071.11 196.57 1071.85 172.96 1072.80 149.50 C 1073.56 133.41 1073.71 117.32 1074.27 101.23 C 1091.74 101.52 1109.21 101.41 1126.68 101.20 C 1126.15 111.15 1125.00 121.06 1124.35 131.00 C 1123.18 143.66 1122.84 156.32 1121.97 169.00 C 1120.56 197.33 1118.78 225.67 1117.40 254.00 C 1117.41 264.12 1116.66 274.19 1116.63 284.30 C 1094.17 283.67 1071.66 283.84 1049.20 284.27 C 1044.58 275.49 1039.86 266.75 1034.77 258.23 C 1020.54 234.04 1006.12 209.98 992.71 185.31 C 989.37 179.47 986.63 173.34 983.07 167.64 C 982.40 181.76 981.71 195.88 981.18 210.01 C 979.67 234.75 979.87 259.57 978.64 284.31 C 961.16 283.69 943.64 283.85 926.15 284.30 C 926.44 275.99 927.55 267.79 928.30 259.52 C 930.17 230.03 931.48 200.49 933.30 171.01 C 933.98 155.33 934.65 139.68 935.29 124.00 C 935.58 116.47 935.03 108.88 935.52 101.36 Z" id="p24" />
<path d="M 1160.69 101.19 C 1180.60 101.45 1200.51 101.46 1220.43 101.19 C 1218.61 129.79 1216.88 158.40 1214.97 186.99 C 1213.02 219.32 1212.33 251.89 1210.78 284.26 C 1203.17 284.38 1195.61 283.73 1188.00 284.04 C 1175.70 283.58 1163.42 284.34 1151.12 284.26 C 1154.56 250.92 1156.49 217.48 1157.98 184.00 C 1159.38 156.45 1160.84 128.78 1160.69 101.19 Z" id="p25" />
<path d="M 1283.98 101.19 C 1304.62 101.54 1325.26 101.35 1345.90 101.22 C 1328.90 122.77 1311.81 144.25 1294.77 165.77 C 1289.21 172.64 1284.01 179.75 1278.85 186.92 C 1283.80 194.99 1288.76 203.04 1294.24 210.76 C 1311.05 235.27 1328.02 259.67 1344.74 284.24 C 1341.16 284.28 1337.58 284.30 1334.00 284.17 C 1321.69 283.62 1309.31 283.87 1297.00 284.05 C 1289.88 283.73 1282.79 284.30 1275.67 284.33 C 1257.61 251.51 1238.23 219.50 1218.33 187.77 C 1221.84 182.52 1225.73 177.57 1229.42 172.43 C 1243.65 153.26 1257.54 133.85 1271.39 114.40 C 1274.24 110.52 1276.53 106.25 1279.42 102.40 C 1280.35 100.76 1282.38 101.38 1283.98 101.19 Z" id="p26" />
<path d="M 544.88 103.85 C 545.91 106.30 546.86 108.79 547.92 111.23 C 547.90 110.13 547.87 109.04 547.83 107.94 C 549.43 113.04 550.84 118.13 551.36 123.47 C 552.27 137.36 548.02 150.12 541.49 162.18 C 540.01 161.96 537.90 162.25 536.70 161.36 C 534.84 159.22 533.60 156.51 532.09 154.11 C 529.19 150.37 530.58 144.56 530.72 140.13 C 532.52 140.96 534.31 141.79 536.11 142.63 C 536.32 142.15 536.54 141.67 536.75 141.20 C 535.78 139.75 534.81 138.31 533.83 136.87 C 534.87 129.69 537.31 122.95 538.83 115.86 C 539.80 111.23 541.88 107.45 544.88 103.85 Z" id="p27" />
<path d="M 417.49 108.97 C 419.53 109.76 421.50 110.71 423.52 111.54 C 414.07 112.14 404.95 113.75 395.77 116.00 C 396.84 115.51 397.89 114.99 398.96 114.51 C 404.83 112.43 411.18 108.95 417.49 108.97 Z" id="p28" />
<path d="M 439.59 109.62 C 443.69 109.63 447.71 110.37 451.63 111.55 C 453.45 112.09 455.26 112.67 457.10 113.14 C 453.23 113.21 449.36 113.51 445.50 113.68 C 439.36 113.83 433.91 111.86 427.93 113.09 C 422.94 113.96 417.96 113.36 412.97 113.91 C 405.36 115.04 398.02 117.09 390.56 118.77 L 388.31 118.68 C 390.52 117.68 392.79 116.81 395.14 116.16 L 395.77 116.00 C 404.95 113.75 414.07 112.14 423.52 111.54 C 425.88 111.50 428.24 111.39 430.58 111.09 C 433.59 110.65 436.58 109.99 439.59 109.62 Z" id="p29" />
<path d="M 378.40 111.73 C 378.40 112.79 378.41 113.84 378.41 114.90 C 378.41 117.33 378.37 119.75 378.35 122.18 C 381.78 121.26 385.04 120.08 388.31 118.68 L 390.56 118.77 C 386.22 121.13 381.94 123.00 377.27 124.62 C 378.78 140.82 384.47 156.97 390.71 171.92 C 388.74 170.73 386.71 169.68 384.66 168.63 C 383.60 165.95 382.28 163.40 381.33 160.66 C 379.21 155.04 379.13 149.54 375.29 144.61 C 373.06 141.68 373.98 138.52 374.59 135.20 C 376.61 129.56 373.76 123.89 376.89 118.92 C 377.07 120.06 377.26 121.19 377.48 122.33 C 377.74 118.79 378.01 115.26 378.40 111.73 Z" id="p30" />
<path d="M 445.50 113.68 C 450.17 116.09 455.01 115.42 459.93 116.78 C 465.92 118.34 471.87 119.81 477.52 122.39 C 483.43 124.53 489.24 126.75 495.01 129.26 C 497.38 130.55 499.81 131.70 502.23 132.89 L 502.73 133.15 C 507.37 136.12 512.09 139.12 516.46 142.48 C 522.91 148.26 528.71 154.88 534.47 161.36 C 535.80 163.53 537.19 165.78 538.09 168.18 C 538.18 169.55 536.68 170.85 535.84 171.80 C 533.56 173.99 531.49 176.24 529.88 178.97 C 527.07 183.63 523.22 186.90 519.75 191.04 C 517.27 193.74 515.19 197.09 512.36 199.42 C 510.05 200.68 507.10 200.73 504.68 201.79 C 503.11 203.51 502.50 206.06 500.96 207.80 C 498.87 209.22 496.23 209.94 493.88 210.83 C 490.21 212.03 486.87 213.91 483.72 216.12 C 477.20 219.03 470.85 221.78 464.90 225.81 C 462.06 227.75 459.08 229.43 456.02 231.01 C 448.14 235.15 440.99 241.08 432.89 244.75 C 430.80 243.65 429.07 241.67 427.52 239.93 C 425.67 234.68 422.92 229.71 420.30 224.81 C 414.86 216.18 410.31 207.00 405.27 198.13 C 403.27 194.70 401.51 191.16 399.73 187.61 C 397.00 182.21 394.08 176.95 390.71 171.92 C 384.47 156.97 378.78 140.82 377.27 124.62 C 381.94 123.00 386.22 121.13 390.56 118.77 C 398.02 117.09 405.36 115.04 412.97 113.91 C 417.96 113.36 422.94 113.96 427.93 113.09 C 433.91 111.86 439.36 113.83 445.50 113.68 Z" id="p31" />
<path d="M 457.10 113.14 L 457.94 113.21 C 461.04 113.41 464.10 113.83 467.08 114.74 C 470.58 115.86 473.92 117.33 477.23 118.89 C 478.04 119.26 478.85 119.64 479.65 120.01 C 484.72 123.29 490.26 125.48 495.01 129.26 C 489.24 126.75 483.43 124.53 477.52 122.39 C 471.87 119.81 465.92 118.34 459.93 116.78 C 455.01 115.42 450.17 116.09 445.50 113.68 C 449.36 113.51 453.23 113.21 457.10 113.14 Z" id="p32" />
<path d="M 378.41 114.90 C 383.94 116.29 389.45 116.94 395.14 116.16 C 392.79 116.81 390.52 117.68 388.31 118.68 C 385.04 120.08 381.78 121.26 378.35 122.18 C 378.37 119.75 378.41 117.33 378.41 114.90 Z" id="p33" />
<path d="M 479.65 120.01 C 485.86 120.75 491.71 121.50 496.98 125.17 C 499.04 127.54 500.68 130.17 502.23 132.89 C 499.81 131.70 497.38 130.55 495.01 129.26 C 490.26 125.48 484.72 123.29 479.65 120.01 Z" id="p34" />
<path d="M 345.48 123.49 C 345.63 125.53 345.78 127.55 345.80 129.59 C 345.61 130.86 345.42 132.13 345.22 133.40 C 343.09 136.05 341.34 138.91 339.66 141.85 C 337.61 145.42 335.03 147.93 333.99 151.99 C 330.36 165.76 325.91 178.51 324.36 192.86 C 323.86 196.64 323.33 200.39 323.29 204.21 C 321.27 205.34 319.27 206.49 317.27 207.67 C 316.66 201.07 319.82 195.45 319.70 188.97 C 319.78 185.20 321.12 182.06 322.03 178.47 C 323.33 173.57 323.86 168.92 325.98 164.23 C 327.35 161.25 328.81 158.34 329.76 155.18 C 333.23 143.78 338.45 133.12 345.48 123.49 Z" id="p35" />
<path d="M 551.36 123.47 C 552.13 124.14 552.90 124.83 553.66 125.52 C 555.69 127.76 555.33 130.23 555.89 133.03 C 556.46 137.40 558.99 140.69 559.79 145.02 C 560.71 149.87 560.39 154.43 563.23 158.77 C 563.08 162.42 562.34 166.11 562.26 169.76 C 562.20 174.85 563.40 179.73 563.60 184.87 C 562.58 185.17 561.55 185.47 560.53 185.77 C 560.18 183.18 560.92 180.23 558.40 178.60 C 554.11 175.34 549.21 173.55 545.52 169.41 C 544.58 167.52 543.73 165.59 542.89 163.66 C 542.15 163.67 541.41 163.69 540.67 163.70 L 541.49 162.18 C 548.02 150.12 552.27 137.36 551.36 123.47 Z" id="p36" />
<path d="M 345.22 133.40 C 344.55 137.01 344.19 140.55 344.62 144.22 C 346.87 142.64 349.07 141.01 351.27 139.37 C 353.88 139.79 356.70 140.60 359.34 140.34 C 361.90 139.28 363.86 136.76 366.27 135.38 C 368.87 134.66 371.92 135.16 374.59 135.20 C 373.98 138.52 373.06 141.68 375.29 144.61 C 379.13 149.54 379.21 155.04 381.33 160.66 C 382.28 163.40 383.60 165.95 384.66 168.63 C 384.69 170.41 384.59 172.16 384.50 173.93 C 382.88 174.11 381.26 174.30 379.63 174.48 C 379.93 175.68 380.23 176.88 380.53 178.08 C 379.99 178.41 379.45 178.74 378.91 179.07 C 377.12 178.08 375.34 177.09 373.56 176.09 C 370.71 178.44 368.45 181.37 365.71 183.82 C 363.35 184.01 360.84 183.22 358.54 182.71 C 356.63 184.23 354.68 186.07 352.45 187.08 C 349.93 188.11 347.27 188.72 344.76 189.82 C 341.88 191.03 338.97 192.81 335.81 193.09 C 333.69 193.25 331.72 192.24 329.77 191.53 C 328.88 194.17 327.81 196.53 326.14 198.77 C 325.50 196.81 324.88 194.85 324.36 192.86 C 325.91 178.51 330.36 165.76 333.99 151.99 C 335.03 147.93 337.61 145.42 339.66 141.85 C 341.34 138.91 343.09 136.05 345.22 133.40 Z" id="p37" />
<path d="M 560.06 135.36 C 562.71 140.94 562.74 146.74 564.28 152.62 C 565.85 158.73 565.05 164.87 566.29 171.01 C 566.96 174.67 567.60 178.26 567.52 182.00 C 567.50 185.78 566.68 189.71 567.06 193.43 C 568.12 199.88 566.53 206.88 565.56 213.30 C 564.66 213.77 563.76 214.24 562.86 214.71 C 562.73 209.18 563.18 203.71 562.53 198.19 C 563.31 193.78 563.81 189.36 563.60 184.87 C 563.40 179.73 562.20 174.85 562.26 169.76 C 562.34 166.11 563.08 162.42 563.23 158.77 C 563.49 150.85 560.08 143.36 560.06 135.36 Z" id="p38" />
<path d="M 534.47 161.36 C 536.00 162.98 537.64 164.50 539.28 166.02 C 539.75 165.25 540.21 164.48 540.67 163.70 C 541.41 163.69 542.15 163.67 542.89 163.66 C 543.73 165.59 544.58 167.52 545.52 169.41 C 541.31 173.98 535.98 176.28 532.97 182.02 C 530.32 186.08 526.72 188.95 522.76 191.63 C 521.76 191.40 520.76 191.20 519.75 191.04 C 523.22 186.90 527.07 183.63 529.88 178.97 C 531.49 176.24 533.56 173.99 535.84 171.80 C 536.68 170.85 538.18 169.55 538.09 168.18 C 537.19 165.78 535.80 163.53 534.47 161.36 Z" id="p39" />
<path d="M 384.66 168.63 C 386.71 169.68 388.74 170.73 390.71 171.92 C 394.08 176.95 397.00 182.21 399.73 187.61 C 398.46 187.19 397.21 186.76 395.93 186.39 C 393.48 188.50 391.50 191.09 389.04 193.16 C 387.96 194.15 386.16 194.03 384.78 194.04 C 380.07 193.83 375.13 194.03 370.59 195.44 C 367.32 196.46 365.08 198.51 362.24 200.25 C 360.04 201.69 356.93 201.46 354.48 202.55 C 351.63 203.83 349.19 205.51 346.03 206.03 C 341.34 206.91 336.65 207.71 332.04 208.97 C 330.64 211.80 329.16 214.57 327.58 217.30 C 327.16 215.54 326.74 213.79 326.33 212.03 C 324.71 213.65 323.08 215.26 321.40 216.82 C 322.35 212.63 323.38 208.54 323.29 204.21 C 323.33 200.39 323.86 196.64 324.36 192.86 C 324.88 194.85 325.50 196.81 326.14 198.77 C 327.81 196.53 328.88 194.17 329.77 191.53 C 331.72 192.24 333.69 193.25 335.81 193.09 C 338.97 192.81 341.88 191.03 344.76 189.82 C 347.27 188.72 349.93 188.11 352.45 187.08 C 354.68 186.07 356.63 184.23 358.54 182.71 C 360.84 183.22 363.35 184.01 365.71 183.82 C 368.45 181.37 370.71 178.44 373.56 176.09 C 375.34 177.09 377.12 178.08 378.91 179.07 C 379.45 178.74 379.99 178.41 380.53 178.08 C 380.23 176.88 379.93 175.68 379.63 174.48 C 381.26 174.30 382.88 174.11 384.50 173.93 C 384.59 172.16 384.69 170.41 384.66 168.63 Z" id="p40" />
<path d="M 545.52 169.41 C 549.21 173.55 554.11 175.34 558.40 178.60 C 560.92 180.23 560.18 183.18 560.53 185.77 C 561.55 185.47 562.58 185.17 563.60 184.87 C 563.81 189.36 563.31 193.78 562.53 198.19 L 562.36 199.14 C 560.95 202.16 559.32 205.05 557.17 207.61 C 557.61 204.56 558.70 201.42 558.64 198.34 C 557.88 196.22 554.14 196.79 552.33 196.31 C 547.89 196.57 547.13 189.35 543.84 187.17 C 540.48 185.04 536.64 183.56 532.97 182.02 C 535.98 176.28 541.31 173.98 545.52 169.41 Z" id="p41" />
<path d="M 532.97 182.02 C 536.64 183.56 540.48 185.04 543.84 187.17 C 547.13 189.35 547.89 196.57 552.33 196.31 C 554.14 196.79 557.88 196.22 558.64 198.34 C 558.70 201.42 557.61 204.56 557.17 207.61 C 559.32 205.05 560.95 202.16 562.36 199.14 C 561.67 203.93 561.88 208.42 559.82 212.93 C 557.62 217.84 556.02 222.80 556.31 228.25 C 554.52 229.65 552.70 231.01 550.84 232.32 C 549.97 228.26 548.81 224.87 546.79 221.25 C 545.11 218.35 545.55 215.52 545.56 212.32 C 541.24 209.96 536.42 208.33 532.36 205.56 C 529.40 203.98 531.45 198.91 529.50 196.56 C 527.70 194.49 525.13 192.95 522.76 191.63 C 526.72 188.95 530.32 186.08 532.97 182.02 Z" id="p42" />
<path d="M 395.93 186.39 C 397.21 186.76 398.46 187.19 399.73 187.61 C 401.51 191.16 403.27 194.70 405.27 198.13 C 404.30 198.53 403.33 198.94 402.36 199.34 C 403.38 203.28 404.40 207.08 406.16 210.76 C 403.68 212.79 402.37 215.48 400.99 218.30 C 398.74 217.96 396.10 217.24 393.84 217.72 C 389.86 219.17 385.91 223.52 381.27 224.25 C 378.51 224.45 375.28 223.02 372.40 223.54 C 369.14 224.21 365.93 225.42 362.94 226.87 C 360.20 228.21 358.53 230.37 356.18 232.23 C 353.53 234.32 350.11 234.15 347.56 236.59 C 343.03 240.83 337.34 242.14 333.73 247.53 C 332.65 245.13 331.66 242.10 329.74 240.24 C 327.86 239.19 325.31 239.16 323.20 238.77 C 322.88 234.19 322.53 229.64 321.58 225.14 C 320.95 222.32 320.94 219.68 321.40 216.82 C 323.08 215.26 324.71 213.65 326.33 212.03 C 326.74 213.79 327.16 215.54 327.58 217.30 C 329.16 214.57 330.64 211.80 332.04 208.97 C 336.65 207.71 341.34 206.91 346.03 206.03 C 349.19 205.51 351.63 203.83 354.48 202.55 C 356.93 201.46 360.04 201.69 362.24 200.25 C 365.08 198.51 367.32 196.46 370.59 195.44 C 375.13 194.03 380.07 193.83 384.78 194.04 C 386.16 194.03 387.96 194.15 389.04 193.16 C 391.50 191.09 393.48 188.50 395.93 186.39 Z" id="p43" />
<path d="M 519.75 191.04 C 520.76 191.20 521.76 191.40 522.76 191.63 C 525.13 192.95 527.70 194.49 529.50 196.56 C 531.45 198.91 529.40 203.98 532.36 205.56 C 536.42 208.33 541.24 209.96 545.56 212.32 C 545.55 215.52 545.11 218.35 546.79 221.25 C 548.81 224.87 549.97 228.26 550.84 232.32 C 552.70 231.01 554.52 229.65 556.31 228.25 C 556.52 229.61 556.80 230.96 557.06 232.31 C 558.30 232.20 559.53 232.10 560.76 232.00 C 559.70 235.16 558.96 238.27 556.94 241.00 C 553.96 245.08 553.19 249.62 551.62 254.28 C 549.53 260.54 545.54 264.91 542.59 270.81 L 542.11 271.68 C 541.33 269.91 540.55 268.13 539.77 266.36 C 538.73 267.91 537.69 269.47 536.68 271.05 C 536.42 269.77 536.26 268.40 535.81 267.17 C 534.76 265.61 533.23 264.07 532.34 262.32 C 531.05 259.66 530.63 256.49 529.14 253.95 C 527.48 252.03 524.61 251.23 522.93 249.29 C 522.75 248.29 522.74 247.26 522.68 246.25 C 519.68 244.35 517.94 241.77 516.12 238.83 C 514.19 235.75 510.75 234.84 508.44 232.47 C 506.42 229.34 505.56 224.75 502.92 222.03 C 501.31 220.25 498.94 218.77 497.89 216.64 C 496.81 214.48 495.61 212.54 493.88 210.83 C 496.23 209.94 498.87 209.22 500.96 207.80 C 502.50 206.06 503.11 203.51 504.68 201.79 C 507.10 200.73 510.05 200.68 512.36 199.42 C 515.19 197.09 517.27 193.74 519.75 191.04 Z" id="p44" />
<path d="M 402.36 199.34 C 403.33 198.94 404.30 198.53 405.27 198.13 C 410.31 207.00 414.86 216.18 420.30 224.81 C 422.92 229.71 425.67 234.68 427.52 239.93 L 428.34 242.45 C 424.33 238.10 421.62 232.84 417.53 228.57 C 415.68 221.21 410.27 217.62 406.16 210.76 C 404.40 207.08 403.38 203.28 402.36 199.34 Z" id="p45" />
<path d="M 562.36 199.14 L 562.53 198.19 C 563.18 203.71 562.73 209.18 562.86 214.71 C 563.76 214.24 564.66 213.77 565.56 213.30 C 563.62 219.77 564.42 226.05 560.76 232.00 C 559.53 232.10 558.30 232.20 557.06 232.31 C 556.80 230.96 556.52 229.61 556.31 228.25 C 556.02 222.80 557.62 217.84 559.82 212.93 C 561.88 208.42 561.67 203.93 562.36 199.14 Z" id="p46" />
<path d="M 233.24 204.28 C 237.37 202.65 242.17 205.61 243.35 209.72 C 244.91 214.48 241.06 219.90 236.01 219.86 C 231.44 220.23 227.94 216.35 227.62 212.01 C 227.63 208.46 229.95 205.47 233.24 204.28 Z" id="p47" />
<path d="M 323.29 204.21 C 323.38 208.54 322.35 212.63 321.40 216.82 C 320.94 219.68 320.95 222.32 321.58 225.14 C 322.53 229.64 322.88 234.19 323.20 238.77 C 323.43 244.90 325.62 250.26 327.46 256.02 C 328.43 258.84 329.74 261.50 330.92 264.23 C 331.81 266.81 332.39 269.46 333.01 272.11 C 331.15 269.91 330.02 267.48 328.98 264.81 C 325.88 258.13 323.52 251.09 321.11 244.13 C 318.26 232.11 317.29 220.00 317.27 207.67 C 319.27 206.49 321.27 205.34 323.29 204.21 Z" id="p48" />
<path d="M 406.16 210.76 C 410.27 217.62 415.68 221.21 417.53 228.57 C 416.95 229.14 416.38 229.71 415.81 230.28 C 415.95 231.29 416.10 232.30 416.24 233.30 C 411.74 233.65 409.55 236.67 405.97 238.82 C 403.11 239.41 400.28 238.70 397.45 239.87 C 392.17 241.92 386.97 244.11 382.23 247.26 C 377.96 250.30 371.78 247.97 367.03 250.03 C 362.07 252.18 358.53 256.05 353.20 257.55 C 347.99 259.14 341.71 261.64 336.25 260.70 C 333.21 259.81 332.30 255.32 331.26 252.70 C 329.99 253.81 328.73 254.91 327.46 256.02 C 325.62 250.26 323.43 244.90 323.20 238.77 C 325.31 239.16 327.86 239.19 329.74 240.24 C 331.66 242.10 332.65 245.13 333.73 247.53 C 337.34 242.14 343.03 240.83 347.56 236.59 C 350.11 234.15 353.53 234.32 356.18 232.23 C 358.53 230.37 360.20 228.21 362.94 226.87 C 365.93 225.42 369.14 224.21 372.40 223.54 C 375.28 223.02 378.51 224.45 381.27 224.25 C 385.91 223.52 389.86 219.17 393.84 217.72 C 396.10 217.24 398.74 217.96 400.99 218.30 C 402.37 215.48 403.68 212.79 406.16 210.76 Z" id="p49" />
<path d="M 493.88 210.83 C 495.61 212.54 496.81 214.48 497.89 216.64 C 498.94 218.77 501.31 220.25 502.92 222.03 C 505.56 224.75 506.42 229.34 508.44 232.47 C 510.75 234.84 514.19 235.75 516.12 238.83 C 517.94 241.77 519.68 244.35 522.68 246.25 C 522.74 247.26 522.75 248.29 522.93 249.29 C 524.61 251.23 527.48 252.03 529.14 253.95 C 530.63 256.49 531.05 259.66 532.34 262.32 C 533.23 264.07 534.76 265.61 535.81 267.17 C 536.26 268.40 536.42 269.77 536.68 271.05 C 537.69 269.47 538.73 267.91 539.77 266.36 C 540.55 268.13 541.33 269.91 542.11 271.68 C 539.98 275.68 537.60 279.35 535.83 283.53 C 534.92 285.47 534.08 287.91 532.51 289.40 C 529.83 291.91 526.32 293.71 523.36 295.90 C 521.30 294.91 519.20 294.07 516.95 293.58 C 514.99 293.04 513.03 292.95 511.51 291.47 C 507.92 287.73 506.45 282.75 504.69 278.14 C 502.37 273.56 495.44 271.71 491.72 268.30 C 486.28 263.73 484.33 256.70 480.59 251.00 C 477.96 248.39 473.96 247.53 473.46 243.30 C 473.57 238.50 478.08 235.32 477.26 230.03 C 472.96 230.27 468.64 230.22 464.33 230.47 C 469.95 227.91 475.05 224.58 479.85 220.72 C 481.47 219.42 482.47 217.76 483.72 216.12 C 486.87 213.91 490.21 212.03 493.88 210.83 Z" id="p50" />
<path d="M 483.72 216.12 C 482.47 217.76 481.47 219.42 479.85 220.72 C 475.05 224.58 469.95 227.91 464.33 230.47 L 463.92 230.67 C 459.09 234.00 453.88 236.43 448.64 239.02 C 442.85 241.75 437.22 244.58 431.86 248.11 C 431.33 247.28 430.79 246.45 430.27 245.61 C 429.62 244.56 428.97 243.51 428.34 242.45 L 427.52 239.93 C 429.07 241.67 430.80 243.65 432.89 244.75 C 440.99 241.08 448.14 235.15 456.02 231.01 C 459.08 229.43 462.06 227.75 464.90 225.81 C 470.85 221.78 477.20 219.03 483.72 216.12 Z" id="p51" />
<path d="M 249.47 222.30 C 260.43 239.20 271.09 256.33 281.83 273.37 C 278.34 275.63 274.83 277.84 271.25 279.96 C 260.46 262.95 249.68 245.94 238.98 228.87 C 242.45 226.66 245.87 224.31 249.47 222.30 Z" id="p52" />
<path d="M 417.53 228.57 C 421.62 232.84 424.33 238.10 428.34 242.45 C 428.97 243.51 429.62 244.56 430.27 245.61 C 426.53 248.30 422.73 250.90 418.99 253.58 L 418.46 253.89 C 415.93 255.36 413.30 256.62 410.73 258.01 C 414.48 254.76 418.22 251.70 421.24 247.72 C 414.41 248.87 409.74 252.00 405.56 257.44 C 404.17 256.54 402.72 255.48 401.16 254.92 C 398.30 257.34 395.97 260.34 393.17 262.85 C 391.61 261.32 390.05 259.78 388.49 258.24 C 387.47 259.72 386.59 261.96 384.91 262.74 C 381.25 264.69 377.34 266.17 373.54 267.81 C 367.92 270.19 362.42 271.05 357.16 274.22 C 354.65 275.76 352.69 276.47 349.74 276.78 C 346.40 277.12 343.53 278.28 340.59 279.85 C 339.08 275.99 339.16 271.76 337.85 267.90 C 336.53 265.84 333.13 265.06 330.92 264.23 C 329.74 261.50 328.43 258.84 327.46 256.02 C 328.73 254.91 329.99 253.81 331.26 252.70 C 332.30 255.32 333.21 259.81 336.25 260.70 C 341.71 261.64 347.99 259.14 353.20 257.55 C 358.53 256.05 362.07 252.18 367.03 250.03 C 371.78 247.97 377.96 250.30 382.23 247.26 C 386.97 244.11 392.17 241.92 397.45 239.87 C 400.28 238.70 403.11 239.41 405.97 238.82 C 409.55 236.67 411.74 233.65 416.24 233.30 C 416.10 232.30 415.95 231.29 415.81 230.28 C 416.38 229.71 416.95 229.14 417.53 228.57 Z" id="p53" />
<path d="M 463.92 230.67 L 464.33 230.47 C 468.64 230.22 472.96 230.27 477.26 230.03 C 478.08 235.32 473.57 238.50 473.46 243.30 C 473.96 247.53 477.96 248.39 480.59 251.00 C 484.33 256.70 486.28 263.73 491.72 268.30 C 495.44 271.71 502.37 273.56 504.69 278.14 C 506.45 282.75 507.92 287.73 511.51 291.47 C 513.03 292.95 514.99 293.04 516.95 293.58 C 519.20 294.07 521.30 294.91 523.36 295.90 C 520.34 298.70 517.84 301.93 514.61 304.53 C 510.70 307.66 507.39 311.11 502.78 313.25 C 498.49 306.58 493.44 300.47 489.30 293.69 C 486.75 289.89 484.45 285.92 481.93 282.10 C 480.48 279.59 477.15 279.75 475.12 277.97 C 471.87 273.87 470.26 268.19 466.68 264.35 C 463.59 262.21 461.19 260.06 458.63 257.32 C 456.71 255.11 454.20 257.66 452.00 258.04 C 450.80 257.89 449.61 257.45 448.44 257.13 C 448.83 255.49 448.99 253.46 449.89 252.03 C 451.31 250.75 453.05 249.80 454.68 248.81 C 451.57 245.78 450.02 243.13 448.64 239.02 C 453.88 236.43 459.09 234.00 463.92 230.67 Z" id="p54" />
<path d="M 231.40 232.27 C 233.78 235.88 236.08 239.52 238.35 243.19 C 234.47 245.99 229.91 248.62 228.55 253.54 C 227.24 258.58 229.89 263.41 232.39 267.59 C 237.90 276.44 243.60 285.17 249.05 294.05 C 245.57 296.30 242.07 298.52 238.57 300.73 C 227.70 283.75 217.00 266.65 206.18 249.63 C 209.67 247.36 213.19 245.13 216.73 242.94 C 218.24 245.24 219.73 247.53 221.18 249.86 C 221.93 243.53 223.92 238.16 229.09 234.17 C 229.86 233.54 230.63 232.90 231.40 232.27 Z" id="p55" />
<path d="M 178.06 237.84 C 178.23 244.99 178.36 252.13 178.63 259.28 C 176.36 260.73 174.09 262.18 171.81 263.62 C 170.68 256.99 169.93 250.31 168.71 243.69 C 171.72 241.53 174.80 239.61 178.06 237.84 Z" id="p56" />
<path d="M 448.64 239.02 C 450.02 243.13 451.57 245.78 454.68 248.81 C 453.05 249.80 451.31 250.75 449.89 252.03 C 448.99 253.46 448.83 255.49 448.44 257.13 C 449.61 257.45 450.80 257.89 452.00 258.04 C 454.20 257.66 456.71 255.11 458.63 257.32 C 461.19 260.06 463.59 262.21 466.68 264.35 C 470.26 268.19 471.87 273.87 475.12 277.97 C 477.15 279.75 480.48 279.59 481.93 282.10 C 484.45 285.92 486.75 289.89 489.30 293.69 C 493.44 300.47 498.49 306.58 502.78 313.25 C 499.14 315.10 496.01 317.59 492.59 319.78 C 489.23 321.96 485.94 323.87 483.04 326.69 C 481.99 325.84 480.94 324.91 479.79 324.19 C 476.49 324.22 473.22 325.29 469.88 325.40 C 471.58 323.82 473.32 322.30 475.07 320.79 C 471.71 318.58 467.72 316.96 464.73 314.28 C 463.43 312.10 463.03 309.49 461.69 307.30 C 460.20 304.82 458.56 302.38 456.88 300.02 C 455.34 297.75 452.37 296.55 450.30 294.68 C 447.32 292.15 446.16 288.05 443.88 284.99 C 442.38 283.16 440.59 281.65 439.22 279.70 C 437.03 276.71 435.94 273.51 432.81 271.36 C 430.17 269.20 426.66 268.10 426.39 264.23 C 428.89 261.50 432.20 259.48 434.88 256.88 C 434.50 256.45 434.11 256.02 433.73 255.58 C 432.87 256.20 432.00 256.82 431.14 257.43 C 430.24 256.44 429.33 255.46 428.42 254.47 C 428.23 254.64 428.05 254.81 427.86 254.99 C 428.29 256.90 428.69 258.83 429.05 260.76 C 426.60 259.54 425.49 257.39 423.82 255.39 C 422.54 254.35 420.53 254.06 418.99 253.58 C 422.73 250.90 426.53 248.30 430.27 245.61 C 430.79 246.45 431.33 247.28 431.86 248.11 C 437.22 244.58 442.85 241.75 448.64 239.02 Z" id="p57" />
<path d="M 162.49 247.45 C 162.95 254.54 163.48 261.63 163.71 268.74 C 161.46 270.16 159.19 271.58 156.92 272.97 C 155.75 266.40 154.54 259.83 153.38 253.25 C 156.39 251.27 159.42 249.34 162.49 247.45 Z" id="p58" />
<path d="M 421.24 247.72 C 418.22 251.70 414.48 254.76 410.73 258.01 C 397.16 267.44 382.73 275.41 369.16 284.78 C 361.61 288.42 354.50 293.13 347.86 298.23 C 347.70 295.32 347.51 292.40 346.29 289.70 C 344.77 286.26 342.39 283.17 340.59 279.85 C 343.53 278.28 346.40 277.12 349.74 276.78 C 352.69 276.47 354.65 275.76 357.16 274.22 C 362.42 271.05 367.92 270.19 373.54 267.81 C 377.34 266.17 381.25 264.69 384.91 262.74 C 386.59 261.96 387.47 259.72 388.49 258.24 C 390.05 259.78 391.61 261.32 393.17 262.85 C 395.97 260.34 398.30 257.34 401.16 254.92 C 402.72 255.48 404.17 256.54 405.56 257.44 C 409.74 252.00 414.41 248.87 421.24 247.72 Z" id="p59" />
<path d="M 418.46 253.89 L 418.99 253.58 C 420.53 254.06 422.54 254.35 423.82 255.39 C 425.49 257.39 426.60 259.54 429.05 260.76 C 428.69 258.83 428.29 256.90 427.86 254.99 C 428.05 254.81 428.23 254.64 428.42 254.47 C 429.33 255.46 430.24 256.44 431.14 257.43 C 432.00 256.82 432.87 256.20 433.73 255.58 C 434.11 256.02 434.50 256.45 434.88 256.88 C 432.20 259.48 428.89 261.50 426.39 264.23 C 426.66 268.10 430.17 269.20 432.81 271.36 C 435.94 273.51 437.03 276.71 439.22 279.70 C 440.59 281.65 442.38 283.16 443.88 284.99 C 446.16 288.05 447.32 292.15 450.30 294.68 C 452.37 296.55 455.34 297.75 456.88 300.02 C 458.56 302.38 460.20 304.82 461.69 307.30 C 463.03 309.49 463.43 312.10 464.73 314.28 C 467.72 316.96 471.71 318.58 475.07 320.79 C 473.32 322.30 471.58 323.82 469.88 325.40 C 473.22 325.29 476.49 324.22 479.79 324.19 C 480.94 324.91 481.99 325.84 483.04 326.69 C 480.68 329.64 478.71 332.91 476.29 335.81 C 472.67 339.64 467.84 342.62 463.47 345.54 C 457.39 349.36 451.89 353.90 446.01 358.01 C 444.13 355.72 442.16 353.76 439.74 352.04 C 436.35 349.83 436.25 344.96 432.68 343.36 C 428.13 341.03 423.90 339.46 421.27 334.66 C 420.10 333.07 421.57 331.51 422.07 329.92 C 416.83 324.50 410.67 322.67 407.68 315.34 C 405.47 309.27 402.04 303.79 400.06 297.66 C 395.51 296.39 392.09 294.10 388.49 291.15 C 388.83 290.07 389.17 289.00 389.51 287.92 C 387.26 285.64 384.80 282.33 381.71 281.28 C 378.03 282.54 374.90 285.41 371.41 287.17 C 367.62 289.10 364.02 291.34 360.29 293.36 C 358.87 293.77 357.44 294.10 356.01 294.45 C 360.34 291.09 365.15 288.56 369.16 284.78 C 382.73 275.41 397.16 267.44 410.73 258.01 C 413.30 256.62 415.93 255.36 418.46 253.89 Z" id="p60" />
<path d="M 337.85 267.90 C 339.16 271.76 339.08 275.99 340.59 279.85 C 342.39 283.17 344.77 286.26 346.29 289.70 C 347.51 292.40 347.70 295.32 347.86 298.23 L 345.96 299.90 C 343.58 295.08 341.04 290.39 339.24 285.30 C 337.17 280.88 334.76 276.69 333.01 272.11 C 332.39 269.46 331.81 266.81 330.92 264.23 C 333.13 265.06 336.53 265.84 337.85 267.90 Z" id="p61" />
<path d="M 182.46 265.70 C 189.81 264.30 197.36 265.23 203.75 269.26 C 214.32 275.77 221.32 289.08 219.41 301.53 C 217.17 317.05 201.59 329.43 185.98 328.17 C 178.47 327.69 171.56 324.01 166.52 318.50 C 160.00 311.26 156.01 301.90 157.27 292.03 C 158.68 278.93 170.00 268.52 182.46 265.70 Z M 182.23 277.30 C 175.12 279.34 168.90 286.35 169.14 293.98 C 169.18 300.98 173.37 307.98 178.47 312.56 C 183.52 317.09 191.05 318.20 197.10 315.04 C 202.40 312.37 206.69 307.05 207.28 301.03 C 208.12 293.97 204.67 287.08 199.87 282.12 C 195.32 277.51 188.51 275.45 182.23 277.30 Z" id="p62" />
<path d="M 542.11 271.68 L 542.59 270.81 C 542.83 272.43 543.35 274.40 542.88 276.02 C 540.66 282.61 536.81 288.13 532.20 293.27 C 527.88 298.90 522.67 303.63 517.19 308.11 C 513.74 310.83 509.76 312.55 506.30 315.27 C 497.98 322.27 488.89 328.30 480.26 334.91 C 480.50 337.72 480.91 340.45 481.98 343.08 C 480.51 341.10 478.93 339.20 477.41 337.25 C 477.04 336.77 476.66 336.29 476.29 335.81 C 478.71 332.91 480.68 329.64 483.04 326.69 C 485.94 323.87 489.23 321.96 492.59 319.78 C 496.01 317.59 499.14 315.10 502.78 313.25 C 507.39 311.11 510.70 307.66 514.61 304.53 C 517.84 301.93 520.34 298.70 523.36 295.90 C 526.32 293.71 529.83 291.91 532.51 289.40 C 534.08 287.91 534.92 285.47 535.83 283.53 C 537.60 279.35 539.98 275.68 542.11 271.68 Z" id="p63" />
<path d="M 182.23 277.30 C 188.51 275.45 195.32 277.51 199.87 282.12 C 204.67 287.08 208.12 293.97 207.28 301.03 C 206.69 307.05 202.40 312.37 197.10 315.04 C 191.05 318.20 183.52 317.09 178.47 312.56 C 173.37 307.98 169.18 300.98 169.14 293.98 C 168.90 286.35 175.12 279.34 182.23 277.30 Z" id="p64" />
<path d="M 381.71 281.28 C 384.80 282.33 387.26 285.64 389.51 287.92 C 389.17 289.00 388.83 290.07 388.49 291.15 C 392.09 294.10 395.51 296.39 400.06 297.66 C 402.04 303.79 405.47 309.27 407.68 315.34 C 410.67 322.67 416.83 324.50 422.07 329.92 C 421.57 331.51 420.10 333.07 421.27 334.66 C 423.90 339.46 428.13 341.03 432.68 343.36 C 436.25 344.96 436.35 349.83 439.74 352.04 C 442.16 353.76 444.13 355.72 446.01 358.01 C 439.19 362.88 432.21 367.52 425.32 372.30 C 422.96 370.43 421.03 368.58 419.56 365.94 C 417.31 367.10 415.29 368.50 413.34 370.11 C 411.21 368.06 411.11 365.41 409.84 362.96 C 407.68 360.51 405.37 358.27 403.59 355.49 C 405.76 355.89 407.92 356.32 410.08 356.76 C 409.91 355.98 409.74 355.20 409.57 354.42 C 406.48 353.06 402.91 351.92 400.25 349.81 C 399.81 349.47 399.57 349.08 399.53 348.63 C 399.31 345.97 400.08 343.13 400.54 340.51 C 396.98 339.20 393.53 337.69 390.11 336.05 C 392.17 335.06 395.14 335.01 395.00 332.02 C 395.17 328.18 390.86 327.94 388.22 326.79 C 385.18 326.01 384.61 323.56 382.52 321.60 C 379.77 319.31 376.56 318.49 374.49 315.35 C 372.37 312.40 373.00 309.28 372.04 305.97 C 370.44 303.68 367.89 302.07 366.09 299.92 C 364.22 297.66 362.46 295.35 360.29 293.36 C 364.02 291.34 367.62 289.10 371.41 287.17 C 374.90 285.41 378.03 282.54 381.71 281.28 Z" id="p65" />
<path d="M 369.16 284.78 C 365.15 288.56 360.34 291.09 356.01 294.45 C 350.09 298.14 349.33 305.63 343.10 308.03 C 339.89 309.47 336.71 310.76 333.91 312.95 C 330.99 315.22 328.03 317.30 324.65 318.84 C 325.34 318.05 326.02 317.26 326.69 316.45 C 325.52 315.93 324.34 315.43 323.16 314.94 C 326.69 312.77 330.17 310.52 333.60 308.21 C 337.77 305.39 342.18 303.30 345.96 299.90 L 347.86 298.23 C 354.50 293.13 361.61 288.42 369.16 284.78 Z" id="p66" />
<path d="M 1281.66 291.42 C 1284.39 291.02 1287.25 291.25 1290.00 291.27 C 1304.47 291.70 1318.91 291.31 1333.38 291.24 C 1324.78 300.46 1316.66 310.10 1308.54 319.75 C 1295.33 319.52 1282.12 319.50 1268.91 319.76 C 1271.95 312.30 1275.57 305.09 1278.64 297.64 C 1279.54 295.55 1280.41 293.32 1281.66 291.42 Z" id="p67" />
<path d="M 356.01 294.45 C 357.44 294.10 358.87 293.77 360.29 293.36 C 362.46 295.35 364.22 297.66 366.09 299.92 C 367.89 302.07 370.44 303.68 372.04 305.97 C 373.00 309.28 372.37 312.40 374.49 315.35 C 376.56 318.49 379.77 319.31 382.52 321.60 C 384.61 323.56 385.18 326.01 388.22 326.79 C 390.86 327.94 395.17 328.18 395.00 332.02 C 395.14 335.01 392.17 335.06 390.11 336.05 C 393.53 337.69 396.98 339.20 400.54 340.51 C 400.08 343.13 399.31 345.97 399.53 348.63 C 399.57 349.08 399.81 349.47 400.25 349.81 C 402.91 351.92 406.48 353.06 409.57 354.42 C 409.74 355.20 409.91 355.98 410.08 356.76 C 407.92 356.32 405.76 355.89 403.59 355.49 C 405.37 358.27 407.68 360.51 409.84 362.96 C 411.11 365.41 411.21 368.06 413.34 370.11 C 415.29 368.50 417.31 367.10 419.56 365.94 C 421.03 368.58 422.96 370.43 425.32 372.30 C 419.89 376.67 414.22 380.60 408.35 384.36 C 402.30 387.98 398.08 393.65 392.02 397.32 C 392.32 398.95 392.62 400.58 392.99 402.20 C 391.93 400.96 390.83 399.77 389.72 398.57 C 385.51 400.83 381.84 403.76 378.11 406.71 C 377.54 405.40 376.96 404.09 376.36 402.79 C 371.38 405.05 367.86 409.65 363.26 412.83 C 365.14 409.44 367.37 406.76 370.59 404.55 C 373.43 402.36 376.62 402.10 379.76 400.65 C 380.66 399.75 380.96 398.20 381.51 397.06 C 379.46 396.38 377.43 395.28 375.21 395.60 C 372.70 395.66 369.92 396.88 367.71 395.30 C 367.00 394.91 366.29 394.51 365.60 394.09 C 367.91 393.78 370.22 393.52 372.54 393.25 C 370.10 390.85 367.02 388.74 365.49 385.72 C 363.41 381.58 360.22 378.21 358.20 374.02 C 356.02 369.11 350.62 368.36 348.68 363.15 C 347.17 360.08 347.35 355.23 344.45 353.28 C 342.21 351.47 339.44 350.14 336.92 348.77 C 336.79 346.68 336.66 344.60 336.51 342.51 C 334.83 341.10 332.61 339.75 331.48 337.85 C 330.33 334.62 330.25 330.90 330.00 327.48 C 327.52 327.53 325.29 327.98 322.93 328.72 C 322.94 330.14 322.95 331.56 322.95 332.98 C 319.02 332.73 315.62 332.45 312.48 329.82 C 315.74 329.74 318.75 330.09 321.70 328.36 C 320.44 327.16 319.16 325.97 317.81 324.88 C 319.66 321.72 321.40 320.43 324.65 318.84 C 328.03 317.30 330.99 315.22 333.91 312.95 C 336.71 310.76 339.89 309.47 343.10 308.03 C 349.33 305.63 350.09 298.14 356.01 294.45 Z" id="p68" />
<path d="M 148.57 294.26 C 153.44 322.28 158.23 350.33 162.83 378.40 C 159.66 380.37 156.49 382.36 153.32 384.34 C 151.53 375.11 150.18 365.80 148.49 356.56 C 133.21 345.46 117.81 334.51 102.64 323.25 C 106.08 321.09 109.54 318.95 113.00 316.81 C 124.49 325.54 135.89 334.40 147.39 343.11 C 144.80 328.81 141.57 314.62 139.04 300.31 C 141.33 298.85 143.61 297.39 145.90 295.94 C 146.79 295.38 147.68 294.82 148.57 294.26 Z" id="p69" />
<path d="M 323.16 314.94 C 324.34 315.43 325.52 315.93 326.69 316.45 C 326.02 317.26 325.34 318.05 324.65 318.84 C 321.40 320.43 319.66 321.72 317.81 324.88 C 314.91 325.49 311.86 326.05 309.15 327.28 C 306.61 328.75 304.84 331.56 302.25 333.02 C 300.03 334.26 297.66 335.18 295.45 336.46 C 290.98 339.02 287.34 342.54 283.15 345.36 C 279.63 347.28 276.14 348.54 272.90 350.94 C 270.41 352.75 268.27 355.03 265.74 356.76 C 262.39 358.97 258.58 358.79 255.53 361.58 C 251.47 365.22 246.77 367.87 241.36 368.85 C 240.15 368.96 238.93 369.08 237.72 369.19 C 241.51 366.55 245.22 363.82 249.22 361.49 C 256.06 357.49 262.16 352.70 269.13 348.94 C 275.82 345.47 281.57 340.64 288.13 336.91 C 300.07 330.01 311.21 321.81 323.16 314.94 Z" id="p70" />
<path d="M 317.81 324.88 C 319.16 325.97 320.44 327.16 321.70 328.36 C 318.75 330.09 315.74 329.74 312.48 329.82 C 315.62 332.45 319.02 332.73 322.95 332.98 C 322.95 331.56 322.94 330.14 322.93 328.72 C 325.29 327.98 327.52 327.53 330.00 327.48 C 330.25 330.90 330.33 334.62 331.48 337.85 C 332.61 339.75 334.83 341.10 336.51 342.51 C 336.66 344.60 336.79 346.68 336.92 348.77 C 339.44 350.14 342.21 351.47 344.45 353.28 C 347.35 355.23 347.17 360.08 348.68 363.15 C 350.62 368.36 356.02 369.11 358.20 374.02 C 360.22 378.21 363.41 381.58 365.49 385.72 C 367.02 388.74 370.10 390.85 372.54 393.25 C 370.22 393.52 367.91 393.78 365.60 394.09 C 366.29 394.51 367.00 394.91 367.71 395.30 C 369.92 396.88 372.70 395.66 375.21 395.60 C 377.43 395.28 379.46 396.38 381.51 397.06 C 380.96 398.20 380.66 399.75 379.76 400.65 C 376.62 402.10 373.43 402.36 370.59 404.55 C 367.37 406.76 365.14 409.44 363.26 412.83 C 359.71 415.79 355.56 417.37 351.70 419.78 C 349.01 421.49 347.37 424.02 344.94 425.93 C 343.42 427.00 341.49 427.60 339.80 428.36 C 341.54 426.47 343.49 424.82 345.47 423.19 C 344.50 418.79 342.77 414.88 342.98 410.28 C 341.25 408.98 339.51 407.70 337.76 406.43 C 337.67 404.77 337.58 403.11 337.49 401.45 C 334.76 399.99 331.67 398.74 329.30 396.72 C 327.00 394.31 326.11 390.53 324.10 387.87 C 322.50 386.08 320.18 384.85 318.19 383.53 C 318.68 380.82 319.41 378.03 319.44 375.26 C 319.58 373.81 318.00 373.63 316.97 373.25 C 314.61 372.59 312.20 372.08 309.82 371.50 C 309.34 368.88 309.13 365.74 307.53 363.52 C 304.89 359.70 300.35 355.30 299.49 350.63 C 299.73 346.25 301.25 342.51 299.81 338.09 C 298.67 338.09 297.53 338.13 296.40 338.20 C 295.09 342.26 294.13 346.38 292.43 350.31 C 291.14 348.28 289.88 346.23 288.62 344.18 C 288.07 345.66 287.52 347.13 286.97 348.61 C 285.70 347.52 284.42 346.44 283.15 345.36 C 287.34 342.54 290.98 339.02 295.45 336.46 C 297.66 335.18 300.03 334.26 302.25 333.02 C 304.84 331.56 306.61 328.75 309.15 327.28 C 311.86 326.05 314.91 325.49 317.81 324.88 Z" id="p71" />
<path d="M 98.33 326.21 C 107.62 340.74 116.76 355.42 126.04 369.97 C 129.01 374.65 131.46 379.30 131.73 384.97 C 132.23 392.35 128.87 399.53 123.33 404.31 C 115.85 410.54 106.57 414.46 96.73 412.26 C 92.50 411.33 89.60 408.70 86.58 405.81 C 89.53 403.76 92.55 401.81 95.67 400.02 C 99.04 401.63 102.16 403.10 106.03 402.41 C 113.14 401.38 120.85 395.82 120.87 388.01 C 121.31 381.64 116.58 376.09 113.37 370.97 C 112.21 374.86 111.25 378.50 108.81 381.84 C 102.79 389.98 91.96 393.71 82.22 390.74 C 68.52 386.53 58.67 370.91 61.67 356.72 C 63.63 347.28 71.49 339.98 80.75 337.81 C 84.86 336.90 88.70 337.50 92.77 338.24 C 91.45 336.17 90.16 334.09 88.89 331.99 C 91.98 330.00 95.08 327.91 98.33 326.21 Z M 83.40 346.45 C 77.65 348.34 72.84 353.84 72.43 359.98 C 71.75 367.78 76.78 375.86 83.69 379.32 C 90.76 382.72 99.54 380.42 103.80 373.77 C 108.35 366.97 106.40 358.50 101.53 352.47 C 97.30 347.02 90.10 344.17 83.40 346.45 Z" id="p72" />
<path d="M 1519.53 337.93 C 1519.90 352.09 1521.61 366.10 1522.76 380.20 C 1513.02 376.54 1503.26 373.41 1492.85 372.38 C 1484.37 371.51 1475.24 371.28 1467.54 375.53 C 1463.90 377.54 1460.83 380.56 1460.80 384.99 C 1460.90 390.37 1464.84 394.93 1468.47 398.53 C 1481.56 411.05 1498.54 421.06 1510.33 434.66 C 1515.97 441.17 1521.12 448.50 1522.71 457.14 C 1524.75 468.55 1521.88 480.84 1515.44 490.44 C 1510.42 498.22 1503.14 503.86 1494.91 507.92 C 1481.99 514.33 1468.20 515.70 1454.00 516.13 C 1436.04 515.96 1418.53 513.27 1400.92 509.99 C 1400.13 495.29 1398.80 480.61 1397.13 465.99 C 1411.19 472.14 1425.52 476.78 1440.99 477.43 C 1447.94 477.56 1456.18 476.92 1462.26 473.24 C 1466.20 470.89 1468.10 466.46 1467.23 461.96 C 1466.22 456.87 1462.17 452.90 1458.46 449.56 C 1448.47 440.88 1438.51 432.16 1428.48 423.52 C 1421.03 417.04 1413.53 409.85 1409.13 400.88 C 1402.36 387.06 1403.81 370.07 1412.34 357.35 C 1419.92 345.48 1433.68 338.22 1447.12 335.25 C 1470.63 330.66 1496.15 333.57 1519.53 337.93 Z" id="p73" />
<path d="M 476.29 335.81 C 476.66 336.29 477.04 336.77 477.41 337.25 C 476.37 338.96 475.00 340.04 475.39 342.21 C 476.47 349.73 484.55 352.73 485.31 360.93 C 485.44 361.81 485.56 362.69 485.68 363.56 C 487.20 364.48 488.94 365.30 490.22 366.53 C 490.68 368.26 490.67 370.18 491.31 371.85 C 492.98 374.65 495.25 376.69 496.09 379.99 C 497.12 383.54 498.43 386.59 500.60 389.60 C 498.01 390.13 495.62 391.10 493.18 392.09 C 494.49 393.18 496.39 394.25 497.10 395.83 C 498.36 400.38 498.54 405.09 495.02 408.73 C 493.85 408.29 492.67 407.85 491.49 407.41 C 491.24 402.40 490.43 397.50 489.22 392.64 C 485.99 393.82 484.93 396.47 482.89 398.93 C 481.74 400.41 479.71 401.27 478.13 402.27 C 476.06 403.44 474.45 405.16 472.49 406.47 C 470.45 407.55 467.94 407.75 465.89 408.86 C 463.76 409.93 461.77 411.39 459.42 411.84 C 455.66 412.61 451.43 411.70 447.65 411.24 C 446.89 412.55 446.14 413.86 445.38 415.16 C 443.58 415.35 441.57 415.31 439.88 415.96 C 437.37 417.60 435.59 420.45 432.61 421.13 C 428.25 422.23 424.03 423.72 419.78 425.15 C 421.14 426.51 422.50 427.87 423.85 429.22 C 422.70 430.43 421.55 431.63 420.40 432.83 C 419.44 431.27 418.48 429.71 417.52 428.15 C 416.47 428.32 415.42 428.49 414.38 428.66 C 415.52 430.99 416.53 433.35 417.45 435.78 C 415.99 435.40 414.54 435.00 413.10 434.61 C 413.86 437.87 414.50 441.30 416.06 444.28 C 417.27 446.61 419.02 448.82 419.91 451.29 C 420.11 453.31 418.79 455.56 418.12 457.44 C 415.45 452.78 414.01 447.63 411.39 442.96 C 406.53 434.07 403.19 424.48 398.42 415.57 C 396.15 411.32 395.01 406.58 392.99 402.20 C 392.62 400.58 392.32 398.95 392.02 397.32 C 398.08 393.65 402.30 387.98 408.35 384.36 C 414.22 380.60 419.89 376.67 425.32 372.30 C 432.21 367.52 439.19 362.88 446.01 358.01 C 451.89 353.90 457.39 349.36 463.47 345.54 C 467.84 342.62 472.67 339.64 476.29 335.81 Z" id="p74" />
<path d="M 658.73 336.34 C 677.83 336.21 696.91 336.62 716.00 336.50 C 742.68 336.59 769.34 336.41 796.01 336.34 C 795.22 349.31 794.46 362.28 793.86 375.27 C 785.57 374.54 777.31 374.73 769.00 374.53 C 750.54 374.49 732.08 374.48 713.63 374.66 C 712.97 384.75 712.70 394.86 712.31 404.97 C 734.78 405.56 757.22 405.32 779.69 404.99 C 778.90 417.65 778.25 430.28 778.34 442.96 C 766.56 443.00 754.78 442.38 743.00 442.49 C 732.08 442.70 721.17 442.72 710.25 443.16 C 709.59 455.77 709.55 468.39 709.18 481.01 C 708.49 491.60 708.83 502.13 708.71 512.75 C 689.35 512.47 670.01 512.45 650.65 512.76 C 651.93 499.51 653.21 486.28 654.23 473.01 C 654.90 460.69 655.68 448.38 656.23 436.05 C 657.38 402.93 658.94 369.48 658.73 336.34 Z" id="p75" />
<path d="M 820.76 336.51 C 824.13 336.11 827.61 336.32 831.00 336.36 C 846.19 336.72 861.37 336.37 876.54 336.35 C 874.93 359.87 873.27 383.50 871.63 407.02 C 871.27 421.48 869.51 436.63 871.13 451.02 C 871.99 458.51 874.55 465.60 880.86 470.17 C 888.73 475.68 899.25 476.55 908.51 475.22 C 915.98 474.02 922.62 470.13 926.61 463.61 C 933.86 452.07 933.77 440.12 935.15 427.05 C 936.36 408.10 937.83 389.17 938.66 370.20 C 939.30 358.89 939.51 347.57 940.53 336.28 C 959.58 336.04 978.65 336.21 997.71 336.19 C 997.31 346.19 996.32 356.21 995.67 366.20 C 994.23 391.80 991.71 417.37 990.99 442.99 C 990.31 456.32 989.89 470.35 983.39 482.37 C 978.21 492.22 969.73 498.95 960.01 504.01 C 943.86 512.64 924.07 515.27 905.99 515.89 C 899.35 516.34 892.65 515.68 885.96 515.51 C 865.98 514.25 844.64 509.10 828.85 496.18 C 821.16 490.12 816.97 481.40 814.99 471.98 C 812.55 460.19 814.29 449.06 814.75 436.94 C 816.53 416.31 818.15 395.69 818.80 374.99 C 819.68 362.20 819.66 349.27 820.76 336.51 Z" id="p76" />
<path d="M 1011.88 336.37 C 1022.25 336.33 1032.63 336.24 1043.00 336.45 C 1087.79 336.70 1132.52 336.21 1177.30 336.35 C 1176.36 349.44 1175.90 362.60 1175.58 375.72 C 1157.37 374.99 1139.23 374.10 1120.99 374.37 C 1117.60 412.39 1116.30 450.65 1115.29 488.80 C 1115.06 496.81 1115.38 504.79 1114.73 512.79 C 1095.82 512.33 1076.92 512.47 1058.01 512.75 C 1058.36 506.16 1059.26 499.61 1059.70 493.02 C 1063.17 453.53 1064.82 414.02 1065.56 374.38 C 1047.21 374.76 1028.89 375.50 1010.53 375.71 C 1011.22 362.58 1011.69 349.52 1011.88 336.37 Z" id="p77" />
<path d="M 1257.31 336.57 C 1260.81 336.05 1264.47 336.34 1268.00 336.34 C 1286.75 336.75 1305.52 336.33 1324.26 336.42 C 1330.58 354.53 1336.87 372.65 1343.26 390.74 C 1355.47 423.83 1367.76 456.91 1379.99 490.00 C 1382.83 497.63 1385.98 505.15 1388.92 512.74 C 1369.25 512.44 1349.59 512.32 1329.92 512.81 C 1325.01 495.85 1319.60 479.07 1313.34 462.55 C 1291.60 462.64 1269.85 462.38 1248.12 462.68 C 1240.13 479.26 1232.35 495.91 1224.93 512.76 C 1204.55 512.38 1184.19 512.43 1163.81 512.73 C 1167.94 505.25 1172.45 498.00 1176.45 490.44 C 1196.34 453.00 1216.26 415.56 1236.14 378.11 C 1242.99 365.46 1249.37 352.55 1255.53 339.55 C 1256.05 338.53 1256.60 337.46 1257.31 336.57 Z M 1286.48 377.47 C 1279.33 393.40 1271.59 409.02 1264.04 424.76 C 1277.36 424.80 1290.68 424.79 1303.99 424.77 C 1298.59 408.13 1293.03 391.54 1287.73 374.87 C 1287.31 375.74 1286.89 376.61 1286.48 377.47 Z" id="p78" />
<path d="M 296.40 338.20 C 297.53 338.13 298.67 338.09 299.81 338.09 C 301.25 342.51 299.73 346.25 299.49 350.63 C 300.35 355.30 304.89 359.70 307.53 363.52 C 309.13 365.74 309.34 368.88 309.82 371.50 C 312.20 372.08 314.61 372.59 316.97 373.25 C 318.00 373.63 319.58 373.81 319.44 375.26 C 319.41 378.03 318.68 380.82 318.19 383.53 C 320.18 384.85 322.50 386.08 324.10 387.87 C 326.11 390.53 327.00 394.31 329.30 396.72 C 331.67 398.74 334.76 399.99 337.49 401.45 C 337.58 403.11 337.67 404.77 337.76 406.43 C 339.51 407.70 341.25 408.98 342.98 410.28 C 342.77 414.88 344.50 418.79 345.47 423.19 C 343.49 424.82 341.54 426.47 339.80 428.36 C 338.06 430.06 337.68 433.12 336.91 435.33 L 336.68 435.50 C 333.64 434.85 330.60 434.32 327.49 434.22 C 326.60 436.56 325.87 438.93 325.12 441.32 C 322.59 442.10 319.90 442.73 317.52 443.92 C 315.48 445.33 313.92 447.38 311.90 448.84 C 308.51 451.27 304.70 453.09 301.26 455.48 C 302.28 453.49 303.97 451.77 302.74 449.48 C 301.76 446.89 299.58 446.69 297.33 445.68 C 298.54 444.09 299.75 442.49 300.95 440.90 C 293.95 438.77 286.90 436.85 280.02 434.37 C 280.59 430.96 281.08 427.56 281.49 424.13 C 278.80 425.57 276.08 426.98 273.33 428.33 C 274.35 422.70 275.27 417.32 273.85 411.65 C 271.68 411.15 269.34 410.83 267.30 409.92 C 266.52 408.20 266.19 406.26 265.36 404.57 C 264.37 403.16 262.95 402.02 262.03 400.57 C 261.44 398.92 261.30 397.06 260.56 395.47 C 259.56 393.99 258.18 392.74 256.93 391.48 C 257.12 390.04 257.31 388.60 257.51 387.16 C 253.04 385.33 248.69 385.26 246.10 380.68 C 244.36 381.49 242.63 382.30 240.89 383.12 C 239.51 381.46 238.14 379.80 236.78 378.13 C 239.64 378.16 242.49 378.20 245.35 378.24 C 246.20 376.06 246.75 373.21 248.63 371.69 C 250.50 370.01 252.53 368.52 254.44 366.89 C 252.25 367.51 249.41 367.94 247.68 369.53 C 245.54 371.43 243.64 373.59 241.51 375.52 C 241.36 373.54 241.19 371.59 241.18 369.61 L 241.36 368.85 C 246.77 367.87 251.47 365.22 255.53 361.58 C 258.58 358.79 262.39 358.97 265.74 356.76 C 268.27 355.03 270.41 352.75 272.90 350.94 C 276.14 348.54 279.63 347.28 283.15 345.36 C 284.42 346.44 285.70 347.52 286.97 348.61 C 287.52 347.13 288.07 345.66 288.62 344.18 C 289.88 346.23 291.14 348.28 292.43 350.31 C 294.13 346.38 295.09 342.26 296.40 338.20 Z" id="p79" />
<path d="M 477.41 337.25 C 478.93 339.20 480.51 341.10 481.98 343.08 C 484.77 349.38 489.04 355.01 491.00 361.58 C 490.43 362.54 489.86 363.49 489.27 364.44 C 487.96 363.27 486.64 362.08 485.31 360.93 C 484.55 352.73 476.47 349.73 475.39 342.21 C 475.00 340.04 476.37 338.96 477.41 337.25 Z" id="p80" />
<path d="M 83.40 346.45 C 90.10 344.17 97.30 347.02 101.53 352.47 C 106.40 358.50 108.35 366.97 103.80 373.77 C 99.54 380.42 90.76 382.72 83.69 379.32 C 76.78 375.86 71.75 367.78 72.43 359.98 C 72.84 353.84 77.65 348.34 83.40 346.45 Z" id="p81" />
<path d="M 485.31 360.93 C 486.64 362.08 487.96 363.27 489.27 364.44 C 489.86 363.49 490.43 362.54 491.00 361.58 C 492.42 363.29 493.80 364.99 494.75 367.02 C 498.30 374.23 501.48 381.57 505.64 388.47 C 508.29 392.68 509.68 397.45 512.31 401.66 C 513.72 404.01 514.89 406.47 516.05 408.95 C 518.59 414.43 521.78 419.38 524.79 424.54 C 525.26 426.71 525.46 428.85 525.69 431.05 C 524.20 430.16 522.70 429.87 521.82 428.29 C 518.85 423.09 515.92 417.85 513.47 412.39 C 512.48 410.09 510.60 408.82 509.10 406.93 C 508.06 404.34 508.10 400.84 506.52 398.47 C 504.57 395.50 502.55 392.57 500.60 389.60 C 498.43 386.59 497.12 383.54 496.09 379.99 C 495.25 376.69 492.98 374.65 491.31 371.85 C 490.67 370.18 490.68 368.26 490.22 366.53 C 488.94 365.30 487.20 364.48 485.68 363.56 C 485.56 362.69 485.44 361.81 485.31 360.93 Z" id="p82" />
<path d="M 254.44 366.89 C 252.53 368.52 250.50 370.01 248.63 371.69 C 246.75 373.21 246.20 376.06 245.35 378.24 C 242.49 378.20 239.64 378.16 236.78 378.13 C 238.14 379.80 239.51 381.46 240.89 383.12 C 242.63 382.30 244.36 381.49 246.10 380.68 C 248.69 385.26 253.04 385.33 257.51 387.16 C 257.31 388.60 257.12 390.04 256.93 391.48 C 258.18 392.74 259.56 393.99 260.56 395.47 C 261.30 397.06 261.44 398.92 262.03 400.57 C 262.95 402.02 264.37 403.16 265.36 404.57 C 266.19 406.26 266.52 408.20 267.30 409.92 C 269.34 410.83 271.68 411.15 273.85 411.65 C 275.27 417.32 274.35 422.70 273.33 428.33 C 276.08 426.98 278.80 425.57 281.49 424.13 C 281.08 427.56 280.59 430.96 280.02 434.37 C 286.90 436.85 293.95 438.77 300.95 440.90 C 299.75 442.49 298.54 444.09 297.33 445.68 C 299.58 446.69 301.76 446.89 302.74 449.48 C 303.97 451.77 302.28 453.49 301.26 455.48 C 297.80 458.29 295.30 461.37 291.13 463.16 C 286.99 464.89 283.38 466.98 280.23 470.22 C 275.11 475.40 268.96 478.82 263.25 483.25 C 260.22 485.59 256.84 487.46 253.90 489.89 C 251.70 491.59 251.85 494.11 251.24 496.61 L 251.09 496.73 C 249.74 495.99 248.38 495.34 246.99 494.79 C 245.30 496.09 243.82 497.76 242.16 499.10 C 239.73 501.04 236.46 502.09 234.06 504.08 C 231.84 505.92 230.12 508.01 227.63 509.56 C 224.51 511.49 221.28 513.00 218.52 515.49 C 215.42 518.30 212.32 521.05 208.81 523.35 C 208.15 520.88 207.36 518.65 208.05 516.07 C 210.62 505.53 212.77 494.89 214.35 484.16 C 215.73 476.62 216.74 469.41 219.16 462.15 C 220.03 459.17 221.40 455.42 220.66 452.33 C 219.55 449.59 216.72 447.40 214.70 445.30 C 210.05 440.92 207.47 435.71 201.78 432.40 C 197.31 429.77 193.98 426.28 191.09 422.01 C 188.84 418.54 185.55 416.15 183.00 412.99 C 181.45 411.09 182.65 408.64 184.15 407.15 C 186.56 405.41 189.87 405.00 192.28 403.30 C 194.79 401.04 196.74 398.45 199.79 396.81 C 204.58 394.13 208.85 390.74 213.84 388.71 C 216.38 387.61 219.16 386.81 221.53 385.39 C 224.72 383.08 225.79 379.38 229.67 377.71 C 234.20 375.72 237.82 373.26 241.18 369.61 C 241.19 371.59 241.36 373.54 241.51 375.52 C 243.64 373.59 245.54 371.43 247.68 369.53 C 249.41 367.94 252.25 367.51 254.44 366.89 Z" id="p83" />
<path d="M 237.72 369.19 C 238.93 369.08 240.15 368.96 241.36 368.85 L 241.18 369.61 C 237.82 373.26 234.20 375.72 229.67 377.71 C 225.79 379.38 224.72 383.08 221.53 385.39 C 219.16 386.81 216.38 387.61 213.84 388.71 C 208.85 390.74 204.58 394.13 199.79 396.81 C 196.74 398.45 194.79 401.04 192.28 403.30 C 189.87 405.00 186.56 405.41 184.15 407.15 C 182.65 408.64 181.45 411.09 183.00 412.99 C 185.55 416.15 188.84 418.54 191.09 422.01 C 193.98 426.28 197.31 429.77 201.78 432.40 C 207.47 435.71 210.05 440.92 214.70 445.30 C 216.72 447.40 219.55 449.59 220.66 452.33 C 221.40 455.42 220.03 459.17 219.16 462.15 C 216.74 469.41 215.73 476.62 214.35 484.16 C 212.77 494.89 210.62 505.53 208.05 516.07 C 207.36 518.65 208.15 520.88 208.81 523.35 C 212.32 521.05 215.42 518.30 218.52 515.49 C 221.28 513.00 224.51 511.49 227.63 509.56 C 230.12 508.01 231.84 505.92 234.06 504.08 C 236.46 502.09 239.73 501.04 242.16 499.10 C 243.82 497.76 245.30 496.09 246.99 494.79 C 248.38 495.34 249.74 495.99 251.09 496.73 C 243.87 502.00 236.72 507.34 229.27 512.29 C 224.63 516.26 219.75 519.48 214.53 522.63 C 209.50 525.52 207.05 529.99 201.07 531.09 C 201.90 527.61 202.66 524.46 201.70 520.89 C 204.36 511.09 207.12 501.30 209.67 491.47 C 210.33 488.51 209.64 485.36 210.19 482.48 C 210.92 479.02 212.59 475.50 213.17 471.96 C 213.67 468.72 213.30 465.50 214.03 462.23 C 214.72 459.35 215.81 456.55 216.82 453.76 C 212.41 447.53 206.58 443.03 201.57 437.36 C 199.23 434.72 196.63 432.36 194.05 429.96 C 189.84 426.10 186.76 421.31 182.42 417.58 C 179.35 414.92 177.03 412.18 174.87 408.75 C 178.85 406.06 183.10 403.84 186.94 400.92 C 196.45 394.52 206.33 388.80 216.17 382.94 C 223.09 377.93 230.34 373.49 237.72 369.19 Z" id="p84" />
<path d="M 1287.73 374.87 C 1293.03 391.54 1298.59 408.13 1303.99 424.77 C 1290.68 424.79 1277.36 424.80 1264.04 424.76 C 1271.59 409.02 1279.33 393.40 1286.48 377.47 C 1286.89 376.61 1287.31 375.74 1287.73 374.87 Z" id="p85" />
<path d="M 500.60 389.60 C 502.55 392.57 504.57 395.50 506.52 398.47 C 508.10 400.84 508.06 404.34 509.10 406.93 C 510.60 408.82 512.48 410.09 513.47 412.39 C 515.92 417.85 518.85 423.09 521.82 428.29 C 522.70 429.87 524.20 430.16 525.69 431.05 C 525.46 428.85 525.26 426.71 524.79 424.54 C 526.28 428.22 527.69 431.85 529.82 435.23 C 531.75 438.24 532.48 441.71 534.21 444.79 C 538.60 451.80 542.37 459.19 546.46 466.37 C 549.22 474.38 554.16 481.04 557.73 488.66 C 558.20 495.93 560.59 501.97 564.01 508.30 C 562.44 506.84 560.50 505.56 559.23 503.82 C 558.29 501.94 557.86 499.80 556.93 497.91 C 555.38 495.65 552.93 493.84 551.52 491.46 C 549.67 488.10 549.42 483.82 547.36 480.61 C 545.29 477.92 542.88 475.52 540.83 472.80 C 538.62 473.03 536.41 473.27 534.21 473.51 C 533.26 471.11 533.13 466.30 530.09 465.79 C 527.71 464.89 525.05 465.78 522.61 466.12 C 519.58 466.66 516.83 465.61 513.80 465.70 C 511.64 466.99 510.43 469.81 508.57 471.53 C 505.55 471.90 502.36 471.37 499.33 471.14 C 498.12 473.12 497.06 475.59 495.31 477.12 C 490.36 478.45 483.94 477.32 479.24 479.48 C 477.88 481.42 477.98 484.94 476.71 487.08 C 472.70 488.41 467.35 488.00 463.43 486.50 C 462.63 484.50 462.40 482.30 461.58 480.32 C 459.35 478.28 457.32 480.00 456.18 482.17 C 454.41 486.23 453.74 490.83 452.53 495.09 C 450.25 494.61 446.95 494.48 445.26 492.74 C 443.81 489.91 443.50 486.37 442.77 483.28 C 442.04 483.20 441.32 483.12 440.59 483.03 C 440.31 485.46 440.03 487.89 439.74 490.32 C 440.42 490.76 441.11 491.20 441.79 491.65 C 442.52 493.75 443.34 495.77 444.27 497.79 C 445.59 500.30 445.12 503.16 445.44 506.04 C 445.62 509.04 447.38 512.10 448.48 514.86 C 445.73 513.06 444.54 510.32 442.84 507.61 C 442.51 508.89 442.17 510.18 441.85 511.47 C 440.61 506.16 437.78 501.70 435.84 496.66 C 433.16 490.20 429.82 484.10 427.31 477.57 C 423.48 471.00 420.62 464.62 418.12 457.44 C 418.79 455.56 420.11 453.31 419.91 451.29 C 419.02 448.82 417.27 446.61 416.06 444.28 C 414.50 441.30 413.86 437.87 413.10 434.61 C 414.54 435.00 415.99 435.40 417.45 435.78 C 416.53 433.35 415.52 430.99 414.38 428.66 C 415.42 428.49 416.47 428.32 417.52 428.15 C 418.48 429.71 419.44 431.27 420.40 432.83 C 421.55 431.63 422.70 430.43 423.85 429.22 C 422.50 427.87 421.14 426.51 419.78 425.15 C 424.03 423.72 428.25 422.23 432.61 421.13 C 435.59 420.45 437.37 417.60 439.88 415.96 C 441.57 415.31 443.58 415.35 445.38 415.16 C 446.14 413.86 446.89 412.55 447.65 411.24 C 451.43 411.70 455.66 412.61 459.42 411.84 C 461.77 411.39 463.76 409.93 465.89 408.86 C 467.94 407.75 470.45 407.55 472.49 406.47 C 474.45 405.16 476.06 403.44 478.13 402.27 C 479.71 401.27 481.74 400.41 482.89 398.93 C 484.93 396.47 485.99 393.82 489.22 392.64 C 490.43 397.50 491.24 402.40 491.49 407.41 C 492.67 407.85 493.85 408.29 495.02 408.73 C 498.54 405.09 498.36 400.38 497.10 395.83 C 496.39 394.25 494.49 393.18 493.18 392.09 C 495.62 391.10 498.01 390.13 500.60 389.60 Z" id="p86" />
<path d="M 376.36 402.79 C 376.96 404.09 377.54 405.40 378.11 406.71 C 372.99 410.62 367.33 413.44 362.43 417.62 C 359.30 420.31 355.90 422.58 352.40 424.76 C 346.92 428.05 342.94 432.86 336.91 435.33 C 337.68 433.12 338.06 430.06 339.80 428.36 C 341.49 427.60 343.42 427.00 344.94 425.93 C 347.37 424.02 349.01 421.49 351.70 419.78 C 355.56 417.37 359.71 415.79 363.26 412.83 C 367.86 409.65 371.38 405.05 376.36 402.79 Z" id="p87" />
<path d="M 327.49 434.22 C 330.60 434.32 333.64 434.85 336.68 435.50 C 333.74 437.62 330.75 439.66 327.95 441.97 C 324.93 444.50 321.26 445.82 318.31 448.43 C 310.17 455.78 300.56 461.14 292.03 468.08 C 289.75 470.03 287.29 471.59 284.64 472.99 C 278.61 476.30 274.15 480.93 268.39 484.78 C 262.56 488.60 257.28 493.09 251.24 496.61 C 251.85 494.11 251.70 491.59 253.90 489.89 C 256.84 487.46 260.22 485.59 263.25 483.25 C 268.96 478.82 275.11 475.40 280.23 470.22 C 283.38 466.98 286.99 464.89 291.13 463.16 C 295.30 461.37 297.80 458.29 301.26 455.48 C 304.70 453.09 308.51 451.27 311.90 448.84 C 313.92 447.38 315.48 445.33 317.52 443.92 C 319.90 442.73 322.59 442.10 325.12 441.32 C 325.87 438.93 326.60 436.56 327.49 434.22 Z" id="p88" />
<path d="M 522.61 466.12 C 525.05 465.78 527.71 464.89 530.09 465.79 C 533.13 466.30 533.26 471.11 534.21 473.51 C 536.41 473.27 538.62 473.03 540.83 472.80 C 542.88 475.52 545.29 477.92 547.36 480.61 C 549.42 483.82 549.67 488.10 551.52 491.46 C 552.93 493.84 555.38 495.65 556.93 497.91 C 557.86 499.80 558.29 501.94 559.23 503.82 C 560.50 505.56 562.44 506.84 564.01 508.30 C 565.23 510.42 564.71 513.21 562.66 514.60 C 560.03 516.17 557.03 517.20 554.14 518.19 C 550.84 519.38 547.49 518.47 544.06 519.49 C 540.62 520.53 537.37 522.08 533.87 522.95 C 525.83 525.03 516.83 527.15 509.96 532.05 C 507.75 533.58 507.46 536.46 506.81 538.85 C 504.69 549.71 500.20 559.85 497.69 570.65 C 496.08 576.77 493.26 582.26 491.98 588.46 C 491.45 590.58 491.13 593.08 489.93 594.92 C 488.63 596.57 484.99 597.34 483.82 595.21 C 480.35 589.41 479.45 581.78 476.04 575.92 C 473.65 571.75 472.25 567.20 470.12 562.91 C 467.88 558.28 465.29 554.05 463.95 549.03 C 462.17 542.27 458.83 536.49 456.10 530.09 C 453.44 525.02 450.47 520.28 448.48 514.86 C 447.38 512.10 445.62 509.04 445.44 506.04 C 445.12 503.16 445.59 500.30 444.27 497.79 C 443.34 495.77 442.52 493.75 441.79 491.65 C 441.11 491.20 440.42 490.76 439.74 490.32 C 440.03 487.89 440.31 485.46 440.59 483.03 C 441.32 483.12 442.04 483.20 442.77 483.28 C 443.50 486.37 443.81 489.91 445.26 492.74 C 446.95 494.48 450.25 494.61 452.53 495.09 C 453.74 490.83 454.41 486.23 456.18 482.17 C 457.32 480.00 459.35 478.28 461.58 480.32 C 462.40 482.30 462.63 484.50 463.43 486.50 C 467.35 488.00 472.70 488.41 476.71 487.08 C 477.98 484.94 477.88 481.42 479.24 479.48 C 483.94 477.32 490.36 478.45 495.31 477.12 C 497.06 475.59 498.12 473.12 499.33 471.14 C 502.36 471.37 505.55 471.90 508.57 471.53 C 510.43 469.81 511.64 466.99 513.80 465.70 C 516.83 465.61 519.58 466.66 522.61 466.12 Z" id="p89" />
<path d="M 557.73 488.66 C 562.36 497.76 567.65 506.31 570.98 516.03 C 565.52 518.61 559.50 518.45 554.04 520.93 C 548.22 523.44 542.14 524.34 536.11 526.07 C 528.45 528.74 520.47 529.97 512.85 532.82 C 512.66 534.56 512.49 536.36 512.11 538.06 C 511.32 540.93 509.36 543.11 508.33 546.00 C 506.61 550.78 505.95 555.95 504.34 560.77 C 503.22 564.01 501.04 566.64 500.14 570.00 C 498.58 575.28 497.26 580.63 495.78 585.93 C 494.36 590.82 493.72 595.57 491.18 600.08 C 489.51 602.83 489.84 606.05 486.71 607.18 C 483.48 602.41 482.25 596.84 479.37 591.90 C 474.37 583.24 471.25 574.01 466.93 564.97 C 462.79 556.38 458.73 547.77 454.95 539.02 C 450.07 529.89 447.87 520.04 441.85 511.47 C 442.17 510.18 442.51 508.89 442.84 507.61 C 444.54 510.32 445.73 513.06 448.48 514.86 C 450.47 520.28 453.44 525.02 456.10 530.09 C 458.83 536.49 462.17 542.27 463.95 549.03 C 465.29 554.05 467.88 558.28 470.12 562.91 C 472.25 567.20 473.65 571.75 476.04 575.92 C 479.45 581.78 480.35 589.41 483.82 595.21 C 484.99 597.34 488.63 596.57 489.93 594.92 C 491.13 593.08 491.45 590.58 491.98 588.46 C 493.26 582.26 496.08 576.77 497.69 570.65 C 500.20 559.85 504.69 549.71 506.81 538.85 C 507.46 536.46 507.75 533.58 509.96 532.05 C 516.83 527.15 525.83 525.03 533.87 522.95 C 537.37 522.08 540.62 520.53 544.06 519.49 C 547.49 518.47 550.84 519.38 554.14 518.19 C 557.03 517.20 560.03 516.17 562.66 514.60 C 564.71 513.21 565.23 510.42 564.01 508.30 C 560.59 501.97 558.20 495.93 557.73 488.66 Z" id="p90" />
</defs>
<g stroke-width="10pt">
<use stroke="#fd87c2" xlink:href="#p0" />
<use stroke="#cb4390" xlink:href="#p1" />
<use stroke="#dc518d" xlink:href="#p2" />
<use stroke="#ab1d5d" xlink:href="#p3" />
<use stroke="#cc186f" xlink:href="#p4" />
<use stroke="#e559af" xlink:href="#p5" />
<use stroke="#d7247f" xlink:href="#p6" />
<use stroke="#e23394" xlink:href="#p7" />
<use stroke="#e946a8" xlink:href="#p8" />
<use stroke="#f254bb" xlink:href="#p9" />
<use stroke="#c40c5e" xlink:href="#p10" />
<use stroke="#d14c9b" xlink:href="#p11" />
<use stroke="#ed4cb0" xlink:href="#p12" />
<use stroke="#b9064f" xlink:href="#p13" />
<use stroke="#e33c9d" xlink:href="#p14" />
<use stroke="#c94187" xlink:href="#p15" />
<use stroke="#d92d8b" xlink:href="#p16" />
<use stroke="#b12b6d" xlink:href="#p17" />
<use stroke="#f14997" xlink:href="#p18" />
<use stroke="#d0237c" xlink:href="#p19" />
<use stroke="#c61d6c" xlink:href="#p20" />
<use stroke="#e05892" xlink:href="#p21" />
<use stroke="#ffffff" xlink:href="#p22" />
<use stroke="#ffffff" xlink:href="#p23" />
<use stroke="#ffffff" xlink:href="#p24" />
<use stroke="#ffffff" xlink:href="#p25" />
<use stroke="#ffffff" xlink:href="#p26" />
<use stroke="#bd135e" xlink:href="#p27" />
<use stroke="#b71f62" xlink:href="#p28" />
<use stroke="#cf3d88" xlink:href="#p29" />
<use stroke="#de5999" xlink:href="#p30" />
<use stroke="#fa86c0" xlink:href="#p31" />
<use stroke="#df60ae" xlink:href="#p32" />
<use stroke="#9f114c" xlink:href="#p33" />
<use stroke="#cd458f" xlink:href="#p34" />
<use stroke="#da5999" xlink:href="#p35" />
<use stroke="#fa4f9c" xlink:href="#p36" />
<use stroke="#e852a2" xlink:href="#p37" />
<use stroke="#e762a1" xlink:href="#p38" />
<use stroke="#ed66a8" xlink:href="#p39" />
<use stroke="#e04b9c" xlink:href="#p40" />
<use stroke="#fd58a9" xlink:href="#p41" />
<use stroke="#fe62b6" xlink:href="#p42" />
<use stroke="#d83c8c" xlink:href="#p43" />
<use stroke="#fd6dc0" xlink:href="#p44" />
<use stroke="#c13d7b" xlink:href="#p45" />
<use stroke="#f269b0" xlink:href="#p46" />
<use stroke="#ffffff" xlink:href="#p47" />
<use stroke="#cd5191" xlink:href="#p48" />
<use stroke="#cd2e7c" xlink:href="#p49" />
<use stroke="#f95fb5" xlink:href="#p50" />
<use stroke="#e762a7" xlink:href="#p51" />
<use stroke="#ffffff" xlink:href="#p52" />
<use stroke="#c62572" xlink:href="#p53" />
<use stroke="#f751ab" xlink:href="#p54" />
<use stroke="#ffffff" xlink:href="#p55" />
<use stroke="#ffffff" xlink:href="#p56" />
<use stroke="#f545a2" xlink:href="#p57" />
<use stroke="#ffffff" xlink:href="#p58" />
<use stroke="#c11e6b" xlink:href="#p59" />
<use stroke="#f23797" xlink:href="#p60" />
<use stroke="#b52b68" xlink:href="#p61" />
<use stroke="#ffffff" xlink:href="#p62" />
<use stroke="#e75da2" xlink:href="#p63" />
<use stroke="#fa86c0" xlink:href="#p64" />
<use stroke="#ee2b8f" xlink:href="#p65" />
<use stroke="#d72980" xlink:href="#p66" />
<use stroke="#ffffff" xlink:href="#p67" />
<use stroke="#ed2087" xlink:href="#p68" />
<use stroke="#ffffff" xlink:href="#p69" />
<use stroke="#d22379" xlink:href="#p70" />
<use stroke="#ec1780" xlink:href="#p71" />
<use stroke="#ffffff" xlink:href="#p72" />
<use stroke="#ffffff" xlink:href="#p73" />
<use stroke="#c60f5f" xlink:href="#p74" />
<use stroke="#ffffff" xlink:href="#p75" />
<use stroke="#ffffff" xlink:href="#p76" />
<use stroke="#ffffff" xlink:href="#p77" />
<use stroke="#ffffff" xlink:href="#p78" />
<use stroke="#eb117a" xlink:href="#p79" />
<use stroke="#ad1859" xlink:href="#p80" />
<use stroke="#fa86c0" xlink:href="#p81" />
<use stroke="#bb1d64" xlink:href="#p82" />
<use stroke="#e90b76" xlink:href="#p83" />
<use stroke="#cf1b72" xlink:href="#p84" />
<use stroke="#fa86c0" xlink:href="#p85" />
<use stroke="#d80d6b" xlink:href="#p86" />
<use stroke="#d02174" xlink:href="#p87" />
<use stroke="#d2196f" xlink:href="#p88" />
<use stroke="#e50973" xlink:href="#p89" />
<use stroke="#cb1e6f" xlink:href="#p90" />
</g>
<g>
<use fill="#fd87c2" xlink:href="#p0" />
<use fill="#cb4390" xlink:href="#p1" />
<use fill="#dc518d" xlink:href="#p2" />
<use fill="#ab1d5d" xlink:href="#p3" />
<use fill="#cc186f" xlink:href="#p4" />
<use fill="#e559af" xlink:href="#p5" />
<use fill="#d7247f" xlink:href="#p6" />
<use fill="#e23394" xlink:href="#p7" />
<use fill="#e946a8" xlink:href="#p8" />
<use fill="#f254bb" xlink:href="#p9" />
<use fill="#c40c5e" xlink:href="#p10" />
<use fill="#d14c9b" xlink:href="#p11" />
<use fill="#ed4cb0" xlink:href="#p12" />
<use fill="#b9064f" xlink:href="#p13" />
<use fill="#e33c9d" xlink:href="#p14" />
<use fill="#c94187" xlink:href="#p15" />
<use fill="#d92d8b" xlink:href="#p16" />
<use fill="#b12b6d" xlink:href="#p17" />
<use fill="#f14997" xlink:href="#p18" />
<use fill="#d0237c" xlink:href="#p19" />
<use fill="#c61d6c" xlink:href="#p20" />
<use fill="#e05892" xlink:href="#p21" />
<use fill="#ffffff" xlink:href="#p22" />
<use fill="#ffffff" xlink:href="#p23" />
<use fill="#ffffff" xlink:href="#p24" />
<use fill="#ffffff" xlink:href="#p25" />
<use fill="#ffffff" xlink:href="#p26" />
<use fill="#bd135e" xlink:href="#p27" />
<use fill="#b71f62" xlink:href="#p28" />
<use fill="#cf3d88" xlink:href="#p29" />
<use fill="#de5999" xlink:href="#p30" />
<use fill="#fa86c0" xlink:href="#p31" />
<use fill="#df60ae" xlink:href="#p32" />
<use fill="#9f114c" xlink:href="#p33" />
<use fill="#cd458f" xlink:href="#p34" />
<use fill="#da5999" xlink:href="#p35" />
<use fill="#fa4f9c" xlink:href="#p36" />
<use fill="#e852a2" xlink:href="#p37" />
<use fill="#e762a1" xlink:href="#p38" />
<use fill="#ed66a8" xlink:href="#p39" />
<use fill="#e04b9c" xlink:href="#p40" />
<use fill="#fd58a9" xlink:href="#p41" />
<use fill="#fe62b6" xlink:href="#p42" />
<use fill="#d83c8c" xlink:href="#p43" />
<use fill="#fd6dc0" xlink:href="#p44" />
<use fill="#c13d7b" xlink:href="#p45" />
<use fill="#f269b0" xlink:href="#p46" />
<use fill="#ffffff" xlink:href="#p47" />
<use fill="#cd5191" xlink:href="#p48" />
<use fill="#cd2e7c" xlink:href="#p49" />
<use fill="#f95fb5" xlink:href="#p50" />
<use fill="#e762a7" xlink:href="#p51" />
<use fill="#ffffff" xlink:href="#p52" />
<use fill="#c62572" xlink:href="#p53" />
<use fill="#f751ab" xlink:href="#p54" />
<use fill="#ffffff" xlink:href="#p55" />
<use fill="#ffffff" xlink:href="#p56" />
<use fill="#f545a2" xlink:href="#p57" />
<use fill="#ffffff" xlink:href="#p58" />
<use fill="#c11e6b" xlink:href="#p59" />
<use fill="#f23797" xlink:href="#p60" />
<use fill="#b52b68" xlink:href="#p61" />
<use fill="#ffffff" xlink:href="#p62" />
<use fill="#e75da2" xlink:href="#p63" />
<use fill="#fa86c0" xlink:href="#p64" />
<use fill="#ee2b8f" xlink:href="#p65" />
<use fill="#d72980" xlink:href="#p66" />
<use fill="#ffffff" xlink:href="#p67" />
<use fill="#ed2087" xlink:href="#p68" />
<use fill="#ffffff" xlink:href="#p69" />
<use fill="#d22379" xlink:href="#p70" />
<use fill="#ec1780" xlink:href="#p71" />
<use fill="#ffffff" xlink:href="#p72" />
<use fill="#ffffff" xlink:href="#p73" />
<use fill="#c60f5f" xlink:href="#p74" />
<use fill="#ffffff" xlink:href="#p75" />
<use fill="#ffffff" xlink:href="#p76" />
<use fill="#ffffff" xlink:href="#p77" />
<use fill="#ffffff" xlink:href="#p78" />
<use fill="#eb117a" xlink:href="#p79" />
<use fill="#ad1859" xlink:href="#p80" />
<use fill="#fa86c0" xlink:href="#p81" />
<use fill="#bb1d64" xlink:href="#p82" />
<use fill="#e90b76" xlink:href="#p83" />
<use fill="#cf1b72" xlink:href="#p84" />
<use fill="#fa86c0" xlink:href="#p85" />
<use fill="#d80d6b" xlink:href="#p86" />
<use fill="#d02174" xlink:href="#p87" />
<use fill="#d2196f" xlink:href="#p88" />
<use fill="#e50973" xlink:href="#p89" />
<use fill="#cb1e6f" xlink:href="#p90" />
</g>
</svg>