<?xml version="1.0" encoding="UTF-8" standalone="no"?>
<!DOCTYPE svg PUBLIC "-//W3C//DTD SVG 1.1//EN" "http://www.w3.org/Graphics/SVG/1.1/DTD/svg11.dtd">
<svg xmlns="http://www.w3.org/2000/svg" version="1.1" viewBox="0 0 1645 636">
<path d="M 0.00 0.00 L 1645.00 0.00 L 1645.00 636.00 L 0.00 636.00 L 0.00 0.00 Z" fill="#fb86c0" />
<path d="M 461.17 48.02 C 468.78 48.29 475.07 50.94 482.35 52.78 C 488.35 54.44 494.74 55.42 500.53 57.66 C 507.32 60.41 513.36 64.44 518.90 69.20 C 516.53 67.89 513.99 66.76 511.53 65.60 C 509.75 64.73 508.01 63.79 506.21 62.95 C 502.11 61.21 498.93 58.49 494.41 60.76 C 491.78 59.67 489.10 58.77 486.51 57.57 C 483.60 56.01 480.39 53.36 476.94 53.89 C 475.67 53.97 474.39 54.10 473.11 54.23 C 472.33 54.00 471.55 53.78 470.76 53.57 C 471.01 52.72 471.25 51.87 471.50 51.02 C 461.29 48.26 450.67 48.78 439.87 49.07 C 446.89 47.99 454.07 47.79 461.17 48.02 Z" fill="#dc58a8" />
<path d="M 439.87 49.07 C 450.67 48.78 461.29 48.26 471.50 51.02 C 471.25 51.87 471.01 52.72 470.76 53.57 L 469.97 53.47 C 466.06 53.02 462.21 52.43 458.38 51.52 C 456.30 51.03 454.20 50.42 452.10 50.07 C 448.80 49.75 445.49 49.83 442.21 50.21 C 432.49 51.02 423.09 53.53 413.97 56.92 C 417.61 55.10 420.92 53.07 424.93 52.11 C 429.84 50.93 434.88 49.87 439.87 49.07 Z" fill="#cc4693" />
<path d="M 442.21 50.21 C 441.39 51.17 440.58 52.16 439.85 53.19 C 435.12 54.01 430.57 55.37 425.96 56.65 C 424.65 56.81 423.35 56.95 422.05 57.16 C 414.69 57.84 409.70 61.88 403.81 65.85 C 398.24 69.69 393.73 75.03 388.90 79.99 C 389.37 78.81 389.84 77.64 390.31 76.46 C 394.95 72.05 398.80 67.40 403.81 63.79 C 407.12 61.41 410.52 59.09 413.97 56.92 C 423.09 53.53 432.49 51.02 442.21 50.21 Z" fill="#b02164" />
<path d="M 442.21 50.21 C 445.49 49.83 448.80 49.75 452.10 50.07 C 449.46 51.80 448.72 53.58 448.08 56.54 C 446.78 62.98 443.00 68.30 441.57 74.69 C 439.67 82.89 438.05 91.13 436.06 99.31 C 435.09 103.15 435.65 106.84 436.49 110.63 C 434.03 111.10 431.55 111.61 429.07 111.94 L 427.16 112.04 C 426.45 109.17 425.99 106.34 426.44 103.38 C 427.48 95.84 429.20 88.37 430.89 80.95 C 431.88 76.34 432.56 71.82 434.59 67.50 C 436.13 64.25 437.07 61.10 437.37 57.52 C 438.14 56.04 438.94 54.59 439.85 53.19 C 440.58 52.16 441.39 51.17 442.21 50.21 Z" fill="#d22079" />
<path d="M 452.10 50.07 C 454.20 50.42 456.30 51.03 458.38 51.52 C 456.57 52.98 454.43 54.12 454.00 56.58 C 453.15 60.16 452.55 63.77 451.45 67.28 C 448.75 75.41 447.72 83.92 445.16 92.10 C 444.00 96.82 441.47 101.71 441.35 106.58 C 442.37 108.47 444.29 109.95 445.79 111.46 C 445.11 111.81 444.43 112.16 443.75 112.51 C 438.87 112.35 433.96 111.85 429.07 111.94 C 431.55 111.61 434.03 111.10 436.49 110.63 C 435.65 106.84 435.09 103.15 436.06 99.31 C 438.05 91.13 439.67 82.89 441.57 74.69 C 443.00 68.30 446.78 62.98 448.08 56.54 C 448.72 53.58 449.46 51.80 452.10 50.07 Z" fill="#db2785" />
<path d="M 458.38 51.52 C 462.21 52.43 466.06 53.02 469.97 53.47 C 468.50 54.42 466.57 55.25 466.35 57.21 C 465.51 61.57 465.55 65.95 464.21 70.26 C 460.55 80.45 459.15 91.15 455.03 101.18 C 453.42 104.99 453.27 108.80 453.69 112.86 C 450.38 112.70 447.07 112.65 443.75 112.51 C 444.43 112.16 445.11 111.81 445.79 111.46 C 444.29 109.95 442.37 108.47 441.35 106.58 C 441.47 101.71 444.00 96.82 445.16 92.10 C 447.72 83.92 448.75 75.41 451.45 67.28 C 452.55 63.77 453.15 60.16 454.00 56.58 C 454.43 54.12 456.57 52.98 458.38 51.52 Z" fill="#e23697" />
<path d="M 439.85 53.19 C 438.94 54.59 438.14 56.04 437.37 57.52 C 437.07 61.10 436.13 64.25 434.59 67.50 C 432.56 71.82 431.88 76.34 430.89 80.95 C 429.20 88.37 427.48 95.84 426.44 103.38 C 425.99 106.34 426.45 109.17 427.16 112.04 C 421.14 112.16 414.89 112.12 408.92 112.87 C 412.49 112.09 416.08 111.39 419.67 110.71 C 417.01 107.49 411.63 103.32 413.60 98.64 C 416.82 89.00 419.03 79.08 422.41 69.49 C 423.22 67.06 424.85 65.38 426.53 63.54 C 425.74 62.77 424.95 62.01 424.16 61.24 C 425.53 60.46 426.89 59.69 428.25 58.91 C 427.49 58.15 426.73 57.40 425.96 56.65 C 430.57 55.37 435.12 54.01 439.85 53.19 Z" fill="#ca166d" />
<path d="M 469.97 53.47 L 470.76 53.57 C 471.55 53.78 472.33 54.00 473.11 54.23 C 470.77 68.09 466.77 81.48 463.03 95.00 C 461.12 101.02 459.26 106.96 458.57 113.28 C 456.95 113.08 455.32 112.96 453.69 112.86 C 453.27 108.80 453.42 104.99 455.03 101.18 C 459.15 91.15 460.55 80.45 464.21 70.26 C 465.55 65.95 465.51 61.57 466.35 57.21 C 466.57 55.25 468.50 54.42 469.97 53.47 Z" fill="#ea48ab" />
<path d="M 476.94 53.89 C 480.39 53.36 483.60 56.01 486.51 57.57 C 487.01 59.28 487.60 61.08 487.69 62.87 C 486.37 66.07 483.39 68.70 482.37 71.99 C 482.86 73.89 483.74 75.72 484.49 77.54 C 480.53 82.20 480.40 87.90 477.33 93.20 C 473.72 99.56 472.09 106.42 473.70 113.65 C 471.69 114.24 469.71 114.82 467.68 115.29 C 464.64 114.54 461.65 113.77 458.57 113.28 C 459.26 106.96 461.12 101.02 463.03 95.00 C 466.77 81.48 470.77 68.09 473.11 54.23 C 474.39 54.10 475.67 53.97 476.94 53.89 Z" fill="#f154bb" />
<path d="M 425.96 56.65 C 426.73 57.40 427.49 58.15 428.25 58.91 C 426.89 59.69 425.53 60.46 424.16 61.24 C 424.95 62.01 425.74 62.77 426.53 63.54 C 424.85 65.38 423.22 67.06 422.41 69.49 C 419.03 79.08 416.82 89.00 413.60 98.64 C 411.63 103.32 417.01 107.49 419.67 110.71 C 416.08 111.39 412.49 112.09 408.92 112.87 C 407.17 113.23 405.45 113.67 403.73 114.13 C 403.21 108.69 399.76 105.64 396.33 101.82 C 397.45 101.08 398.56 100.33 399.68 99.59 C 399.60 98.59 399.52 97.59 399.43 96.59 C 398.26 96.75 397.08 96.91 395.90 97.08 C 397.96 95.31 399.92 93.46 402.16 91.90 C 403.58 90.79 405.04 90.10 405.30 88.13 C 405.80 84.08 404.27 79.72 405.52 75.62 C 407.03 70.85 409.68 65.83 413.76 62.78 C 416.38 60.75 419.19 58.83 422.05 57.16 C 423.35 56.95 424.65 56.81 425.96 56.65 Z" fill="#c50d60" />
<path d="M 413.97 56.92 C 410.52 59.09 407.12 61.41 403.81 63.79 C 398.80 67.40 394.95 72.05 390.31 76.46 C 387.46 78.56 384.70 80.65 382.52 83.49 C 378.16 89.17 372.36 93.30 367.81 98.82 C 365.59 101.63 363.05 103.00 359.70 104.15 C 365.07 95.37 372.24 88.63 379.35 81.33 C 382.18 78.44 385.31 75.91 388.56 73.52 C 396.98 67.40 403.96 60.52 413.97 56.92 Z" fill="#dc538d" />
<path d="M 422.05 57.16 C 419.19 58.83 416.38 60.75 413.76 62.78 C 409.68 65.83 407.03 70.85 405.52 75.62 C 404.27 79.72 405.80 84.08 405.30 88.13 C 405.04 90.10 403.58 90.79 402.16 91.90 C 399.92 93.46 397.96 95.31 395.90 97.08 C 397.08 96.91 398.26 96.75 399.43 96.59 C 399.52 97.59 399.60 98.59 399.68 99.59 C 398.56 100.33 397.45 101.08 396.33 101.82 C 399.76 105.64 403.21 108.69 403.73 114.13 C 395.82 116.30 388.17 117.77 381.03 122.04 C 379.95 122.12 378.87 122.19 377.79 122.25 C 377.81 113.09 378.43 104.13 381.38 95.39 C 383.10 89.85 385.92 84.92 388.90 79.99 C 393.73 75.03 398.24 69.69 403.81 65.85 C 409.70 61.88 414.69 57.84 422.05 57.16 Z" fill="#ba0751" />
<path d="M 486.51 57.57 C 489.10 58.77 491.78 59.67 494.41 60.76 C 495.62 61.34 496.82 61.96 498.02 62.58 C 495.10 66.94 492.31 71.09 491.13 76.29 C 489.14 85.33 486.50 94.19 483.99 103.09 C 482.64 107.89 482.08 112.80 481.94 117.77 C 480.21 117.97 478.48 118.18 476.74 118.33 C 473.73 117.30 470.73 116.19 467.68 115.29 C 469.71 114.82 471.69 114.24 473.70 113.65 C 472.09 106.42 473.72 99.56 477.33 93.20 C 480.40 87.90 480.53 82.20 484.49 77.54 C 483.74 75.72 482.86 73.89 482.37 71.99 C 483.39 68.70 486.37 66.07 487.69 62.87 C 487.60 61.08 487.01 59.28 486.51 57.57 Z" fill="#ec4aae" />
<path d="M 506.21 62.95 C 505.50 63.12 504.80 63.30 504.09 63.49 C 504.66 65.24 505.23 67.00 505.79 68.75 C 505.30 69.27 504.81 69.78 504.32 70.29 C 504.12 73.49 504.03 76.57 502.98 79.64 C 500.92 85.59 499.51 91.71 497.80 97.76 C 495.47 105.77 494.01 113.93 491.10 121.77 C 488.97 121.81 486.81 121.88 484.68 121.79 C 482.04 120.63 479.42 119.39 476.74 118.33 C 478.48 118.18 480.21 117.97 481.94 117.77 C 482.08 112.80 482.64 107.89 483.99 103.09 C 486.50 94.19 489.14 85.33 491.13 76.29 C 492.31 71.09 495.10 66.94 498.02 62.58 C 496.82 61.96 495.62 61.34 494.41 60.76 C 498.93 58.49 502.11 61.21 506.21 62.95 Z" fill="#e43ea0" />
<path d="M 506.21 62.95 C 508.01 63.79 509.75 64.73 511.53 65.60 C 512.43 67.69 513.51 69.43 515.34 70.83 C 514.63 71.38 513.92 71.94 513.22 72.51 C 514.69 74.41 517.14 75.51 516.32 78.24 C 514.64 85.68 512.24 92.97 510.57 100.43 C 508.37 109.00 505.08 117.21 503.00 125.82 C 502.16 125.11 501.31 124.41 500.47 123.71 C 498.49 124.93 496.51 126.13 494.52 127.33 C 491.33 125.38 488.05 123.43 484.68 121.79 C 486.81 121.88 488.97 121.81 491.10 121.77 C 494.01 113.93 495.47 105.77 497.80 97.76 C 499.51 91.71 500.92 85.59 502.98 79.64 C 504.03 76.57 504.12 73.49 504.32 70.29 C 504.81 69.78 505.30 69.27 505.79 68.75 C 505.23 67.00 504.66 65.24 504.09 63.49 C 504.80 63.30 505.50 63.12 506.21 62.95 Z" fill="#dd3494" />
<path d="M 511.53 65.60 C 513.99 66.76 516.53 67.89 518.90 69.20 C 524.29 73.23 528.94 77.72 533.36 82.77 L 531.46 82.48 C 528.80 82.14 526.49 81.43 524.63 79.39 C 521.66 76.32 519.00 73.14 515.34 70.83 C 513.51 69.43 512.43 67.69 511.53 65.60 Z" fill="#ba3377" />
<path d="M 515.34 70.83 C 519.00 73.14 521.66 76.32 524.63 79.39 C 526.49 81.43 528.80 82.14 531.46 82.48 C 532.01 86.59 533.08 90.15 532.09 94.29 C 530.83 99.13 528.67 103.67 527.63 108.59 C 525.62 117.65 521.29 125.30 520.67 134.67 C 517.83 135.19 515.00 135.73 512.17 136.29 C 513.05 137.63 513.93 138.95 514.87 140.25 C 507.96 136.11 501.30 131.66 494.52 127.33 C 496.51 126.13 498.49 124.93 500.47 123.71 C 501.31 124.41 502.16 125.11 503.00 125.82 C 505.08 117.21 508.37 109.00 510.57 100.43 C 512.24 92.97 514.64 85.68 516.32 78.24 C 517.14 75.51 514.69 74.41 513.22 72.51 C 513.92 71.94 514.63 71.38 515.34 70.83 Z" fill="#d22680" />
<path d="M 390.31 76.46 C 389.84 77.64 389.37 78.81 388.90 79.99 C 385.92 84.92 383.10 89.85 381.38 95.39 C 378.43 104.13 377.81 113.09 377.79 122.25 C 378.87 122.19 379.95 122.12 381.03 122.04 L 382.03 121.95 C 380.57 122.40 379.12 122.87 377.67 123.34 C 376.93 121.31 375.96 119.40 374.93 117.50 C 373.66 123.19 375.53 129.04 374.12 134.57 C 370.96 134.93 367.78 133.66 364.69 133.95 C 361.80 135.41 359.65 137.52 356.32 138.10 C 353.07 138.70 350.29 139.75 347.32 141.17 C 346.09 138.44 345.44 135.40 344.56 132.53 C 346.83 127.67 349.66 123.16 352.75 118.78 C 355.32 115.13 356.51 111.05 357.93 106.88 C 358.52 105.97 359.11 105.06 359.70 104.15 C 363.05 103.00 365.59 101.63 367.81 98.82 C 372.36 93.30 378.16 89.17 382.52 83.49 C 384.70 80.65 387.46 78.56 390.31 76.46 Z" fill="#f14996" />
<path d="M 531.46 82.48 L 533.36 82.77 C 535.38 84.73 537.43 86.75 539.19 88.95 C 538.44 90.54 536.53 92.33 537.27 94.17 C 537.76 96.10 538.73 98.00 539.04 99.96 C 539.23 101.94 538.84 104.02 538.63 105.98 C 540.44 105.41 542.25 104.83 544.06 104.24 C 541.19 107.89 538.52 111.46 536.90 115.86 C 534.35 123.02 532.40 130.32 532.23 137.97 C 531.26 138.21 530.30 138.45 529.33 138.69 C 529.46 141.07 529.61 143.44 529.76 145.82 C 528.98 146.04 528.20 146.25 527.42 146.45 C 525.66 145.24 523.91 144.02 522.16 142.80 C 523.26 145.36 524.30 147.93 525.57 150.39 C 522.21 146.83 518.44 143.61 514.87 140.25 C 513.93 138.95 513.05 137.63 512.17 136.29 C 515.00 135.73 517.83 135.19 520.67 134.67 C 521.29 125.30 525.62 117.65 527.63 108.59 C 528.67 103.67 530.83 99.13 532.09 94.29 C 533.08 90.15 532.01 86.59 531.46 82.48 Z" fill="#c81d6e" />
<path d="M 539.19 88.95 C 542.82 93.67 545.27 99.62 547.88 105.00 C 549.12 111.17 550.50 117.33 551.33 123.57 C 550.85 130.54 550.39 137.69 548.74 144.50 C 547.03 151.59 543.62 157.24 541.04 164.14 C 540.07 164.37 539.10 164.60 538.13 164.84 C 533.95 160.02 529.73 155.23 525.57 150.39 C 524.30 147.93 523.26 145.36 522.16 142.80 C 523.91 144.02 525.66 145.24 527.42 146.45 C 528.20 146.25 528.98 146.04 529.76 145.82 C 529.61 143.44 529.46 141.07 529.33 138.69 C 530.30 138.45 531.26 138.21 532.23 137.97 C 532.40 130.32 534.35 123.02 536.90 115.86 C 538.52 111.46 541.19 107.89 544.06 104.24 C 542.25 104.83 540.44 105.41 538.63 105.98 C 538.84 104.02 539.23 101.94 539.04 99.96 C 538.73 98.00 537.76 96.10 537.27 94.17 C 536.53 92.33 538.44 90.54 539.19 88.95 Z" fill="#bd145f" />
<path d="M 757.01 100.34 C 764.60 100.45 772.69 100.90 780.01 103.02 C 789.85 105.83 798.77 111.88 804.94 120.05 C 809.96 126.76 812.80 134.73 814.13 142.95 C 816.25 157.34 814.19 172.21 806.91 184.92 C 800.63 196.06 791.17 204.42 779.38 209.37 C 763.80 215.83 745.78 217.45 729.29 214.01 C 727.16 201.86 723.71 190.09 720.95 178.10 C 730.74 178.89 740.98 180.15 749.81 174.81 C 758.98 169.29 762.04 156.83 757.62 147.34 C 754.49 141.51 748.25 139.50 742.02 139.11 C 733.46 138.68 724.80 139.51 716.27 140.11 C 714.49 165.37 713.63 190.69 713.05 216.00 C 712.42 238.69 711.59 261.35 711.76 284.05 C 703.84 284.30 695.92 284.11 688.00 283.94 C 677.73 283.71 667.51 284.50 657.23 283.97 C 657.89 274.99 658.60 266.02 659.31 257.05 C 660.94 233.16 661.79 209.25 663.27 185.36 C 664.15 157.30 665.10 129.27 664.92 101.19 C 684.86 101.41 704.86 101.77 724.78 100.76 C 735.52 100.44 746.27 100.25 757.01 100.34 Z" fill="#ffffff" />
<path d="M 840.48 101.43 C 844.93 100.89 849.53 101.27 854.00 101.25 C 869.43 101.52 884.86 101.27 900.29 101.14 C 898.67 127.74 896.51 154.31 895.49 180.95 C 894.47 209.91 893.28 239.02 893.22 268.00 C 893.23 273.38 893.14 278.74 892.89 284.11 C 886.26 284.21 879.63 284.19 873.00 284.03 C 859.59 283.63 846.20 284.37 832.79 284.14 C 833.32 268.05 835.20 252.07 835.84 236.00 C 836.86 219.34 837.89 202.69 838.49 186.00 C 839.74 160.03 840.63 133.97 840.21 107.97 C 840.20 105.81 840.19 103.57 840.48 101.43 Z" fill="#ffffff" />
<path d="M 935.55 101.47 C 938.65 101.04 941.88 101.19 945.00 101.21 C 962.34 101.52 979.69 101.46 997.03 101.14 C 999.36 101.17 1001.99 101.01 1004.23 101.75 C 1006.86 104.88 1008.46 108.96 1010.49 112.50 C 1027.05 142.61 1043.59 172.73 1060.17 202.82 C 1063.17 208.40 1065.88 214.10 1069.16 219.53 C 1071.61 193.79 1071.82 167.77 1073.11 141.96 C 1073.82 128.38 1073.63 114.79 1074.24 101.21 C 1091.75 101.52 1109.24 101.27 1126.74 101.24 C 1125.81 114.41 1124.52 127.56 1123.59 140.73 C 1122.26 163.65 1121.24 186.58 1119.70 209.49 C 1119.15 225.67 1117.72 241.82 1117.30 258.00 C 1117.26 266.68 1116.75 275.33 1116.69 284.00 C 1109.79 284.19 1102.90 284.18 1096.00 283.98 C 1080.38 283.56 1064.79 284.37 1049.16 284.12 C 1044.22 275.00 1039.37 265.86 1034.03 256.97 C 1021.02 234.87 1007.87 212.94 995.54 190.46 C 991.30 183.02 987.55 175.32 983.26 167.91 C 982.06 185.59 981.45 203.31 980.67 221.01 C 979.69 242.01 979.67 263.04 978.77 284.04 C 972.51 284.19 966.26 284.13 960.00 283.93 C 948.69 283.62 937.40 284.45 926.09 284.04 C 926.55 275.13 927.73 266.30 928.43 257.41 C 929.11 246.78 929.64 236.15 930.31 225.52 C 931.55 198.32 933.46 171.17 934.43 143.96 C 934.72 134.29 935.48 124.69 935.32 115.00 C 935.34 110.52 935.00 105.92 935.55 101.47 Z" fill="#ffffff" />
<path d="M 1160.84 101.15 C 1180.74 101.43 1200.62 101.40 1220.52 101.16 C 1217.74 145.58 1214.40 190.01 1212.71 234.49 C 1212.16 251.03 1211.66 267.58 1210.80 284.11 C 1202.20 284.26 1193.60 284.12 1185.00 283.95 C 1173.70 283.71 1162.43 284.47 1151.12 284.03 C 1152.91 265.43 1154.69 246.85 1155.59 228.19 C 1156.31 215.82 1157.27 203.47 1157.59 191.08 C 1158.33 176.05 1159.32 161.03 1159.77 145.98 C 1160.80 131.03 1160.45 116.11 1160.84 101.15 Z" fill="#ffffff" />
<path d="M 1280.51 101.56 C 1283.24 100.93 1286.22 101.16 1289.00 101.16 C 1307.96 101.56 1326.91 101.27 1345.87 101.16 C 1330.17 121.33 1314.13 141.24 1298.32 161.32 C 1291.60 169.68 1285.01 178.13 1278.91 186.95 C 1283.29 194.22 1287.77 201.42 1292.61 208.39 C 1306.90 229.11 1321.15 249.85 1335.43 270.58 C 1338.55 274.95 1341.57 279.39 1344.30 284.02 C 1332.21 284.43 1320.09 283.93 1308.00 283.90 C 1297.11 283.95 1286.15 284.43 1275.27 283.99 C 1258.36 252.40 1239.47 221.83 1220.59 191.39 C 1219.89 189.83 1218.45 188.23 1219.47 186.51 C 1220.85 183.49 1223.20 180.82 1225.16 178.16 C 1241.13 156.72 1256.75 135.03 1272.20 113.20 C 1274.96 109.45 1277.04 104.67 1280.51 101.56 Z" fill="#ffffff" />
<path d="M 547.88 105.00 C 549.87 107.85 551.89 110.59 553.31 113.78 C 558.38 124.82 561.60 136.75 563.33 148.76 C 564.01 157.65 564.50 166.63 565.72 175.46 C 566.27 179.20 566.00 182.90 565.39 186.61 C 563.36 181.80 561.53 177.10 561.26 171.81 C 561.42 167.15 562.42 162.35 562.00 157.79 C 561.31 151.17 559.71 144.76 557.63 138.45 C 555.61 132.74 556.60 127.54 551.33 123.57 C 550.50 117.33 549.12 111.17 547.88 105.00 Z" fill="#e45b97" />
<path d="M 357.93 106.88 C 356.51 111.05 355.32 115.13 352.75 118.78 C 349.66 123.16 346.83 127.67 344.56 132.53 C 342.54 137.18 340.26 141.22 337.34 145.36 C 333.33 151.13 333.04 157.15 330.65 163.58 C 326.69 174.82 325.19 186.26 324.43 198.07 C 323.40 204.06 322.62 210.18 320.89 216.01 C 317.03 226.91 321.30 240.39 323.85 251.20 C 322.44 248.53 320.96 246.02 320.32 243.02 C 317.77 231.07 316.28 218.98 316.57 206.74 C 316.96 201.23 318.29 195.80 318.93 190.31 C 319.72 183.70 321.81 177.51 323.28 171.05 C 324.76 164.32 328.34 158.51 330.18 151.86 C 333.15 141.21 338.88 132.08 344.95 122.96 C 348.82 117.18 353.64 112.31 357.93 106.88 Z" fill="#db5c9b" />
<path d="M 427.16 112.04 L 429.07 111.94 C 425.28 112.57 421.59 113.48 417.75 113.79 C 410.44 114.04 403.43 115.60 396.36 117.30 C 391.44 118.48 386.88 120.58 382.03 121.95 L 381.03 122.04 C 388.17 117.77 395.82 116.30 403.73 114.13 C 405.45 113.67 407.17 113.23 408.92 112.87 C 414.89 112.12 421.14 112.16 427.16 112.04 Z" fill="#d04b87" />
<path d="M 429.07 111.94 C 433.96 111.85 438.87 112.35 443.75 112.51 C 447.07 112.65 450.38 112.70 453.69 112.86 C 455.32 112.96 456.95 113.08 458.57 113.28 C 461.65 113.77 464.64 114.54 467.68 115.29 C 470.73 116.19 473.73 117.30 476.74 118.33 C 479.42 119.39 482.04 120.63 484.68 121.79 C 488.05 123.43 491.33 125.38 494.52 127.33 C 501.30 131.66 507.96 136.11 514.87 140.25 C 518.44 143.61 522.21 146.83 525.57 150.39 C 529.73 155.23 533.95 160.02 538.13 164.84 C 539.10 164.60 540.07 164.37 541.04 164.14 C 541.71 166.68 542.42 169.20 543.15 171.72 C 541.80 172.41 540.45 173.09 539.10 173.78 C 538.31 173.22 537.52 172.66 536.72 172.11 C 537.47 170.71 538.23 169.31 538.98 167.90 C 533.51 160.79 527.38 154.30 521.19 147.81 C 515.33 141.60 508.23 138.12 500.86 133.11 C 491.59 126.96 481.55 123.86 471.31 119.82 C 464.64 117.21 457.65 115.91 450.55 115.11 C 443.88 114.40 437.95 113.01 431.27 113.33 C 426.76 113.52 422.25 113.61 417.75 113.79 C 421.59 113.48 425.28 112.57 429.07 111.94 Z" fill="#df5ea6" />
<path d="M 431.27 113.33 C 437.95 113.01 443.88 114.40 450.55 115.11 C 457.65 115.91 464.64 117.21 471.31 119.82 C 481.55 123.86 491.59 126.96 500.86 133.11 C 508.23 138.12 515.33 141.60 521.19 147.81 C 527.38 154.30 533.51 160.79 538.98 167.90 C 538.23 169.31 537.47 170.71 536.72 172.11 C 535.23 173.05 533.82 174.10 532.51 175.28 C 530.02 178.24 528.06 181.54 525.42 184.41 C 522.84 187.20 519.96 189.74 517.26 192.42 C 512.16 198.26 505.04 200.97 499.67 206.43 C 495.24 208.12 491.00 210.20 486.87 212.53 C 477.07 218.13 467.29 223.80 457.75 229.83 C 449.22 235.16 440.74 240.54 431.90 245.33 C 427.31 238.69 424.87 231.06 420.65 224.23 C 416.26 216.85 412.51 209.13 408.04 201.79 C 404.38 195.71 401.74 189.14 398.09 183.06 C 395.20 178.20 392.01 173.86 389.55 168.73 C 387.34 164.10 385.68 159.15 383.93 154.33 C 381.04 146.59 379.55 138.44 377.24 130.49 C 377.44 128.12 377.65 125.72 377.67 123.34 C 379.12 122.87 380.57 122.40 382.03 121.95 C 386.88 120.58 391.44 118.48 396.36 117.30 C 403.43 115.60 410.44 114.04 417.75 113.79 C 422.25 113.61 426.76 113.52 431.27 113.33 Z" fill="#fa86c0" />
<path d="M 374.93 117.50 C 375.96 119.40 376.93 121.31 377.67 123.34 C 377.65 125.72 377.44 128.12 377.24 130.49 C 376.45 133.26 375.28 136.19 375.08 139.07 C 375.29 141.53 376.67 143.94 377.50 146.25 C 379.00 149.89 379.60 153.66 380.52 157.46 C 381.52 161.46 383.38 164.80 385.11 168.49 C 385.27 170.28 385.35 172.08 385.42 173.88 C 384.18 174.45 382.93 175.01 381.68 175.58 C 381.49 176.91 381.30 178.25 381.12 179.59 C 378.67 178.81 376.22 178.20 373.69 177.71 C 370.55 181.13 367.29 184.43 363.96 187.67 C 360.83 187.31 358.00 186.81 354.91 187.68 C 347.48 189.80 340.35 193.60 333.90 197.81 C 333.03 196.68 332.17 195.55 331.30 194.42 C 329.04 195.69 326.75 196.91 324.43 198.07 C 325.19 186.26 326.69 174.82 330.65 163.58 C 333.04 157.15 333.33 151.13 337.34 145.36 C 340.26 141.22 342.54 137.18 344.56 132.53 C 345.44 135.40 346.09 138.44 347.32 141.17 C 350.29 139.75 353.07 138.70 356.32 138.10 C 359.65 137.52 361.80 135.41 364.69 133.95 C 367.78 133.66 370.96 134.93 374.12 134.57 C 375.53 129.04 373.66 123.19 374.93 117.50 Z" fill="#e852a2" />
<path d="M 551.33 123.57 C 556.60 127.54 555.61 132.74 557.63 138.45 C 559.71 144.76 561.31 151.17 562.00 157.79 C 562.42 162.35 561.42 167.15 561.26 171.81 C 559.94 171.12 558.65 170.39 557.34 169.68 C 557.91 168.09 559.32 166.08 558.63 164.35 C 557.46 160.75 555.32 157.38 553.51 154.06 C 552.86 155.94 552.21 157.81 551.55 159.69 C 550.46 159.84 549.38 159.98 548.29 160.13 C 549.64 156.14 550.51 152.05 551.18 147.89 C 547.58 153.23 544.96 159.02 541.04 164.14 C 543.62 157.24 547.03 151.59 548.74 144.50 C 550.39 137.69 550.85 130.54 551.33 123.57 Z" fill="#f84a95" />
<path d="M 377.24 130.49 C 379.55 138.44 381.04 146.59 383.93 154.33 C 385.68 159.15 387.34 164.10 389.55 168.73 C 392.01 173.86 395.20 178.20 398.09 183.06 C 401.74 189.14 404.38 195.71 408.04 201.79 C 412.51 209.13 416.26 216.85 420.65 224.23 C 424.87 231.06 427.31 238.69 431.90 245.33 C 440.74 240.54 449.22 235.16 457.75 229.83 C 467.29 223.80 477.07 218.13 486.87 212.53 C 487.53 213.12 488.20 213.70 488.87 214.28 C 484.99 216.11 481.98 218.28 478.90 221.27 C 476.62 223.33 474.26 224.94 471.52 226.34 C 463.77 230.42 456.12 234.66 448.42 238.83 C 443.05 242.17 437.64 245.26 431.97 248.09 C 431.37 247.12 430.76 246.15 430.15 245.18 C 428.44 242.44 426.75 239.70 425.27 236.82 C 422.94 232.11 421.05 227.31 418.08 222.92 C 415.47 219.03 413.13 215.04 410.94 210.89 C 410.06 209.17 409.28 207.40 408.40 205.67 C 405.11 198.06 400.07 191.68 395.96 184.55 C 392.65 178.96 388.64 173.90 385.11 168.49 C 383.38 164.80 381.52 161.46 380.52 157.46 C 379.60 153.66 379.00 149.89 377.50 146.25 C 376.67 143.94 375.29 141.53 375.08 139.07 C 375.28 136.19 376.45 133.26 377.24 130.49 Z" fill="#e260a2" />
<path d="M 551.18 147.89 C 550.51 152.05 549.64 156.14 548.29 160.13 C 549.38 159.98 550.46 159.84 551.55 159.69 C 552.21 157.81 552.86 155.94 553.51 154.06 C 555.32 157.38 557.46 160.75 558.63 164.35 C 559.32 166.08 557.91 168.09 557.34 169.68 C 558.65 170.39 559.94 171.12 561.26 171.81 C 561.53 177.10 563.36 181.80 565.39 186.61 C 564.85 190.45 563.81 194.24 563.14 198.06 C 562.04 198.61 560.93 199.15 559.83 199.71 C 559.61 197.00 559.52 194.18 558.87 191.53 C 556.79 191.60 553.98 192.73 552.04 191.96 C 548.82 189.75 546.57 185.80 544.35 182.64 C 542.73 182.84 541.06 183.13 539.42 183.12 C 537.41 181.39 537.04 177.69 536.26 175.25 C 537.21 174.76 538.16 174.27 539.10 173.78 C 540.45 173.09 541.80 172.41 543.15 171.72 C 542.42 169.20 541.71 166.68 541.04 164.14 C 544.96 159.02 547.58 153.23 551.18 147.89 Z" fill="#fc55a6" />
<path d="M 563.33 148.76 C 565.74 157.00 565.64 165.41 567.13 173.81 C 568.16 179.92 567.11 185.89 567.72 192.04 C 568.19 197.40 568.06 202.71 566.90 207.99 C 565.15 216.31 564.23 224.89 562.07 233.08 C 561.41 233.26 560.74 233.44 560.08 233.63 C 560.05 232.21 560.03 230.80 560.01 229.38 C 559.36 229.81 558.70 230.23 558.04 230.66 C 558.10 228.28 558.14 225.94 558.33 223.56 C 558.74 219.35 560.06 215.45 561.29 211.43 C 562.67 206.96 562.47 202.63 563.14 198.06 C 563.81 194.24 564.85 190.45 565.39 186.61 C 566.00 182.90 566.27 179.20 565.72 175.46 C 564.50 166.63 564.01 157.65 563.33 148.76 Z" fill="#eb6aaa" />
<path d="M 385.11 168.49 C 388.64 173.90 392.65 178.96 395.96 184.55 C 393.85 187.38 391.75 190.88 388.83 192.95 C 385.90 194.32 382.03 194.09 378.86 194.54 C 375.14 194.90 372.26 196.70 368.93 198.23 C 368.05 198.01 367.17 197.79 366.29 197.57 C 363.28 199.87 359.88 201.02 356.32 202.14 C 351.78 203.55 347.85 205.69 343.24 206.51 C 339.45 207.19 335.68 207.93 331.96 208.92 C 330.51 211.69 329.05 214.46 327.64 217.25 C 327.19 215.44 326.74 213.63 326.28 211.81 C 325.06 213.30 323.82 214.77 322.57 216.23 C 322.01 216.16 321.45 216.09 320.89 216.01 C 322.62 210.18 323.40 204.06 324.43 198.07 C 326.75 196.91 329.04 195.69 331.30 194.42 C 332.17 195.55 333.03 196.68 333.90 197.81 C 340.35 193.60 347.48 189.80 354.91 187.68 C 358.00 186.81 360.83 187.31 363.96 187.67 C 367.29 184.43 370.55 181.13 373.69 177.71 C 376.22 178.20 378.67 178.81 381.12 179.59 C 381.30 178.25 381.49 176.91 381.68 175.58 C 382.93 175.01 384.18 174.45 385.42 173.88 C 385.35 172.08 385.27 170.28 385.11 168.49 Z" fill="#e04a9b" />
<path d="M 536.72 172.11 C 537.52 172.66 538.31 173.22 539.10 173.78 C 538.16 174.27 537.21 174.76 536.26 175.25 C 537.04 177.69 537.41 181.39 539.42 183.12 C 541.06 183.13 542.73 182.84 544.35 182.64 C 546.57 185.80 548.82 189.75 552.04 191.96 C 553.98 192.73 556.79 191.60 558.87 191.53 C 559.52 194.18 559.61 197.00 559.83 199.71 C 560.93 199.15 562.04 198.61 563.14 198.06 C 562.47 202.63 562.67 206.96 561.29 211.43 C 560.06 215.45 558.74 219.35 558.33 223.56 C 557.36 224.50 556.38 225.44 555.41 226.37 C 555.37 223.67 555.30 220.97 555.18 218.27 C 554.20 218.78 553.22 219.31 552.24 219.83 C 552.15 217.64 552.76 214.76 551.77 212.76 C 548.45 207.74 542.61 204.13 539.45 198.71 C 537.82 195.91 537.31 192.57 535.75 189.76 C 533.61 189.89 531.43 190.62 529.29 190.51 C 528.01 190.05 526.81 189.31 525.62 188.64 C 529.14 184.50 531.35 180.64 532.51 175.28 C 533.82 174.10 535.23 173.05 536.72 172.11 Z" fill="#fd5fb1" />
<path d="M 532.51 175.28 C 531.35 180.64 529.14 184.50 525.62 188.64 C 526.81 189.31 528.01 190.05 529.29 190.51 C 531.43 190.62 533.61 189.89 535.75 189.76 C 537.31 192.57 537.82 195.91 539.45 198.71 C 542.61 204.13 548.45 207.74 551.77 212.76 C 552.76 214.76 552.15 217.64 552.24 219.83 C 553.22 219.31 554.20 218.78 555.18 218.27 C 555.30 220.97 555.37 223.67 555.41 226.37 C 556.38 225.44 557.36 224.50 558.33 223.56 C 558.14 225.94 558.10 228.28 558.04 230.66 C 558.70 230.23 559.36 229.81 560.01 229.38 C 560.03 230.80 560.05 232.21 560.08 233.63 C 560.74 233.44 561.41 233.26 562.07 233.08 C 560.54 238.25 559.05 243.44 557.21 248.51 C 556.74 246.26 556.26 243.77 555.07 241.77 C 553.59 239.73 551.28 238.25 549.68 236.30 C 548.10 233.31 548.26 229.19 545.85 226.22 C 542.66 222.21 538.24 220.46 533.72 218.41 C 533.46 216.37 533.40 214.10 532.63 212.18 C 531.60 210.09 529.96 208.30 528.87 206.23 C 527.64 203.85 527.45 200.99 526.34 198.60 C 523.25 196.58 520.13 194.77 517.26 192.42 C 519.96 189.74 522.84 187.20 525.42 184.41 C 528.06 181.54 530.02 178.24 532.51 175.28 Z" fill="#fd67ba" />
<path d="M 395.96 184.55 C 400.07 191.68 405.11 198.06 408.40 205.67 C 407.20 204.95 405.97 204.29 404.70 203.71 C 402.92 205.97 401.55 208.36 399.09 209.94 C 395.94 211.92 392.56 213.64 389.18 215.19 C 384.42 217.43 379.28 214.86 374.26 217.12 C 366.00 220.57 357.29 223.35 349.77 227.89 C 347.27 229.34 344.86 231.07 342.25 232.31 C 339.33 233.70 335.42 232.44 332.48 233.58 C 329.35 235.40 326.75 238.30 324.36 240.99 L 323.64 241.99 C 324.57 249.00 326.63 255.78 329.74 262.14 C 331.32 265.76 332.54 269.36 333.42 273.22 C 329.58 265.97 326.58 258.94 323.85 251.20 C 321.30 240.39 317.03 226.91 320.89 216.01 C 321.45 216.09 322.01 216.16 322.57 216.23 C 323.82 214.77 325.06 213.30 326.28 211.81 C 326.74 213.63 327.19 215.44 327.64 217.25 C 329.05 214.46 330.51 211.69 331.96 208.92 C 335.68 207.93 339.45 207.19 343.24 206.51 C 347.85 205.69 351.78 203.55 356.32 202.14 C 359.88 201.02 363.28 199.87 366.29 197.57 C 367.17 197.79 368.05 198.01 368.93 198.23 C 372.26 196.70 375.14 194.90 378.86 194.54 C 382.03 194.09 385.90 194.32 388.83 192.95 C 391.75 190.88 393.85 187.38 395.96 184.55 Z" fill="#d83e8d" />
<path d="M 517.26 192.42 C 520.13 194.77 523.25 196.58 526.34 198.60 C 527.45 200.99 527.64 203.85 528.87 206.23 C 529.96 208.30 531.60 210.09 532.63 212.18 C 533.40 214.10 533.46 216.37 533.72 218.41 C 538.24 220.46 542.66 222.21 545.85 226.22 C 548.26 229.19 548.10 233.31 549.68 236.30 C 551.28 238.25 553.59 239.73 555.07 241.77 C 556.26 243.77 556.74 246.26 557.21 248.51 C 554.81 254.71 551.94 260.73 549.31 266.83 C 548.29 266.46 547.27 266.09 546.24 265.76 C 545.42 266.33 544.61 266.91 543.81 267.50 C 542.42 264.55 541.18 261.42 539.47 258.64 C 538.20 256.59 536.27 255.02 535.04 252.97 C 534.63 250.55 535.38 247.89 535.07 245.47 C 534.46 244.11 533.42 242.90 532.55 241.70 C 530.47 243.18 528.39 244.65 526.33 246.14 C 526.63 243.01 526.96 239.88 527.33 236.75 C 526.11 236.65 524.90 236.54 523.68 236.43 C 520.26 232.04 516.00 228.65 512.88 224.06 C 511.07 221.43 509.10 218.97 506.98 216.58 C 506.38 214.78 505.92 212.73 504.89 211.12 C 503.50 209.27 501.50 207.81 499.67 206.43 C 505.04 200.97 512.16 198.26 517.26 192.42 Z" fill="#fd6fc2" />
<path d="M 404.70 203.71 C 405.97 204.29 407.20 204.95 408.40 205.67 C 409.28 207.40 410.06 209.17 410.94 210.89 C 410.13 210.71 409.31 210.56 408.49 210.45 C 407.87 210.78 407.24 211.11 406.62 211.46 C 407.72 212.74 408.82 214.01 409.93 215.28 C 408.31 217.41 406.71 219.97 404.50 221.52 C 401.44 221.86 398.11 220.67 395.13 221.31 C 391.37 223.07 388.40 226.75 384.43 228.35 C 380.10 230.11 374.88 229.41 370.65 230.83 C 365.72 232.97 361.95 237.83 356.74 239.86 C 351.28 241.88 346.41 244.96 340.87 246.78 C 338.02 247.70 335.09 248.35 332.23 249.23 C 331.80 247.41 331.37 245.60 330.95 243.78 C 329.94 245.20 328.93 246.61 327.91 248.02 C 326.70 245.69 325.52 243.35 324.36 240.99 C 326.75 238.30 329.35 235.40 332.48 233.58 C 335.42 232.44 339.33 233.70 342.25 232.31 C 344.86 231.07 347.27 229.34 349.77 227.89 C 357.29 223.35 366.00 220.57 374.26 217.12 C 379.28 214.86 384.42 217.43 389.18 215.19 C 392.56 213.64 395.94 211.92 399.09 209.94 C 401.55 208.36 402.92 205.97 404.70 203.71 Z" fill="#d23583" />
<path d="M 233.38 204.28 C 237.61 202.90 242.07 205.54 243.34 209.70 C 244.94 214.51 241.00 219.85 235.96 219.89 C 232.08 220.08 228.93 217.47 227.96 213.79 C 226.85 209.73 229.38 205.45 233.38 204.28 Z" fill="#ffffff" />
<path d="M 499.67 206.43 C 501.50 207.81 503.50 209.27 504.89 211.12 C 505.92 212.73 506.38 214.78 506.98 216.58 C 509.10 218.97 511.07 221.43 512.88 224.06 C 516.00 228.65 520.26 232.04 523.68 236.43 C 524.90 236.54 526.11 236.65 527.33 236.75 C 526.96 239.88 526.63 243.01 526.33 246.14 C 528.39 244.65 530.47 243.18 532.55 241.70 C 533.42 242.90 534.46 244.11 535.07 245.47 C 535.38 247.89 534.63 250.55 535.04 252.97 C 536.27 255.02 538.20 256.59 539.47 258.64 C 541.18 261.42 542.42 264.55 543.81 267.50 C 542.94 270.85 541.47 273.73 539.54 276.59 C 537.09 280.23 535.38 284.21 533.33 288.07 C 533.09 287.23 532.85 286.39 532.61 285.55 C 530.84 285.24 529.07 284.92 527.30 284.61 C 525.43 281.50 523.74 278.30 522.05 275.09 C 519.56 269.83 513.57 266.77 509.77 262.18 C 506.69 258.21 502.70 255.33 500.15 251.02 C 498.25 248.01 495.96 245.78 494.69 242.61 C 493.38 239.38 493.11 236.00 493.28 232.55 C 489.50 231.81 484.43 231.40 481.58 228.49 C 480.05 226.54 479.65 223.59 478.90 221.27 C 481.98 218.28 484.99 216.11 488.87 214.28 C 488.20 213.70 487.53 213.12 486.87 212.53 C 491.00 210.20 495.24 208.12 499.67 206.43 Z" fill="#fb65ba" />
<path d="M 408.49 210.45 C 409.31 210.56 410.13 210.71 410.94 210.89 C 413.13 215.04 415.47 219.03 418.08 222.92 C 421.05 227.31 422.94 232.11 425.27 236.82 L 424.37 236.87 C 422.65 234.42 421.24 231.24 418.90 229.33 C 415.35 230.36 411.97 232.83 408.88 234.83 C 408.29 233.81 407.69 232.79 407.09 231.77 C 404.17 233.63 401.40 235.75 398.40 237.50 C 395.26 239.33 391.05 239.41 387.63 240.62 C 383.67 242.21 380.46 245.84 376.47 247.34 C 373.22 248.05 369.59 246.95 366.26 247.28 C 362.13 248.88 358.74 254.04 353.63 254.62 C 349.45 254.99 343.60 255.37 340.66 258.76 C 340.01 259.07 339.35 259.39 338.70 259.70 C 335.76 258.90 332.84 258.06 329.92 257.19 C 329.84 258.84 329.76 260.49 329.74 262.14 C 326.63 255.78 324.57 249.00 323.64 241.99 L 324.36 240.99 C 325.52 243.35 326.70 245.69 327.91 248.02 C 328.93 246.61 329.94 245.20 330.95 243.78 C 331.37 245.60 331.80 247.41 332.23 249.23 C 335.09 248.35 338.02 247.70 340.87 246.78 C 346.41 244.96 351.28 241.88 356.74 239.86 C 361.95 237.83 365.72 232.97 370.65 230.83 C 374.88 229.41 380.10 230.11 384.43 228.35 C 388.40 226.75 391.37 223.07 395.13 221.31 C 398.11 220.67 401.44 221.86 404.50 221.52 C 406.71 219.97 408.31 217.41 409.93 215.28 C 408.82 214.01 407.72 212.74 406.62 211.46 C 407.24 211.11 407.87 210.78 408.49 210.45 Z" fill="#cd2e7b" />
<path d="M 478.90 221.27 C 479.65 223.59 480.05 226.54 481.58 228.49 C 484.43 231.40 489.50 231.81 493.28 232.55 C 493.11 236.00 493.38 239.38 494.69 242.61 C 495.96 245.78 498.25 248.01 500.15 251.02 C 502.70 255.33 506.69 258.21 509.77 262.18 C 513.57 266.77 519.56 269.83 522.05 275.09 C 523.74 278.30 525.43 281.50 527.30 284.61 C 529.07 284.92 530.84 285.24 532.61 285.55 C 532.85 286.39 533.09 287.23 533.33 288.07 C 529.75 291.60 526.04 294.92 522.86 298.85 C 517.64 305.00 511.25 309.28 505.18 314.45 C 500.68 310.54 495.94 306.53 491.71 302.28 C 489.47 300.04 488.21 297.18 486.30 294.49 C 484.14 291.46 483.15 288.12 480.35 285.52 C 478.32 283.29 475.73 282.28 473.36 280.54 C 471.17 277.24 470.79 272.90 468.56 269.53 C 466.30 266.10 462.99 262.72 459.65 260.32 C 456.59 258.17 453.33 258.09 449.76 257.74 C 449.93 256.00 450.01 254.19 450.43 252.50 C 451.65 251.10 453.27 250.01 454.74 248.88 C 452.35 245.66 450.29 242.38 448.42 238.83 C 456.12 234.66 463.77 230.42 471.52 226.34 C 474.26 224.94 476.62 223.33 478.90 221.27 Z" fill="#f754ad" />
<path d="M 249.62 222.44 C 253.44 227.99 256.82 233.86 260.48 239.52 C 267.54 250.89 275.05 262.01 281.77 273.58 C 278.27 275.71 274.77 277.85 271.23 279.91 C 260.44 262.94 249.66 245.96 239.01 228.91 C 242.42 226.60 245.90 224.21 249.62 222.44 Z" fill="#ffffff" />
<path d="M 418.90 229.33 C 421.24 231.24 422.65 234.42 424.37 236.87 C 423.46 236.94 422.55 237.03 421.64 237.11 C 421.34 239.81 421.57 242.51 419.80 244.74 C 417.44 248.06 414.03 249.47 410.60 251.44 C 410.35 249.19 410.10 246.94 409.85 244.69 C 407.40 247.30 405.07 250.07 402.43 252.48 C 400.70 254.17 398.03 254.43 395.77 254.98 C 395.19 256.86 394.63 258.75 394.08 260.64 C 389.52 258.16 384.96 256.40 379.70 257.60 C 377.36 258.72 375.44 260.58 373.05 261.65 C 369.51 263.49 365.68 263.81 362.67 266.15 C 360.67 267.65 358.74 269.11 356.35 269.96 C 353.95 270.95 351.55 270.72 349.10 271.27 C 347.83 272.54 347.07 274.38 346.21 275.94 C 345.46 275.06 344.70 274.19 343.95 273.31 C 342.39 273.92 340.84 274.52 339.28 275.12 C 340.51 273.29 341.77 271.47 343.02 269.64 C 339.72 270.60 336.51 271.70 333.42 273.22 C 332.54 269.36 331.32 265.76 329.74 262.14 C 329.76 260.49 329.84 258.84 329.92 257.19 C 332.84 258.06 335.76 258.90 338.70 259.70 C 339.35 259.39 340.01 259.07 340.66 258.76 C 343.60 255.37 349.45 254.99 353.63 254.62 C 358.74 254.04 362.13 248.88 366.26 247.28 C 369.59 246.95 373.22 248.05 376.47 247.34 C 380.46 245.84 383.67 242.21 387.63 240.62 C 391.05 239.41 395.26 239.33 398.40 237.50 C 401.40 235.75 404.17 233.63 407.09 231.77 C 407.69 232.79 408.29 233.81 408.88 234.83 C 411.97 232.83 415.35 230.36 418.90 229.33 Z" fill="#c82773" />
<path d="M 231.12 232.56 C 233.89 235.77 236.09 239.34 238.19 243.01 C 234.75 245.79 229.80 249.11 228.56 253.57 C 227.27 258.49 229.95 263.49 232.39 267.60 C 237.88 276.43 243.63 285.11 249.02 294.01 C 245.63 296.25 242.22 298.44 238.78 300.58 C 236.07 296.79 233.43 292.96 231.03 288.97 C 222.87 275.86 214.43 262.92 206.35 249.77 C 209.69 247.37 213.11 245.12 216.66 243.03 C 218.10 245.07 219.53 247.11 220.96 249.15 C 221.87 245.93 222.73 242.31 224.43 239.41 C 226.08 236.59 228.58 234.54 231.12 232.56 Z" fill="#ffffff" />
<path d="M 421.64 237.11 C 422.55 237.03 423.46 236.94 424.37 236.87 L 425.27 236.82 C 426.75 239.70 428.44 242.44 430.15 245.18 C 427.14 247.45 424.14 249.74 421.19 252.08 C 411.99 256.99 403.43 263.05 394.54 268.53 C 385.99 273.96 377.35 279.23 368.98 284.95 C 363.02 287.95 357.52 291.18 352.27 295.31 C 349.62 297.31 348.13 298.00 344.82 297.63 C 340.94 289.54 337.25 281.34 333.42 273.22 C 336.51 271.70 339.72 270.60 343.02 269.64 C 341.77 271.47 340.51 273.29 339.28 275.12 C 340.84 274.52 342.39 273.92 343.95 273.31 C 344.70 274.19 345.46 275.06 346.21 275.94 C 347.07 274.38 347.83 272.54 349.10 271.27 C 351.55 270.72 353.95 270.95 356.35 269.96 C 358.74 269.11 360.67 267.65 362.67 266.15 C 365.68 263.81 369.51 263.49 373.05 261.65 C 375.44 260.58 377.36 258.72 379.70 257.60 C 384.96 256.40 389.52 258.16 394.08 260.64 C 394.63 258.75 395.19 256.86 395.77 254.98 C 398.03 254.43 400.70 254.17 402.43 252.48 C 405.07 250.07 407.40 247.30 409.85 244.69 C 410.10 246.94 410.35 249.19 410.60 251.44 C 414.03 249.47 417.44 248.06 419.80 244.74 C 421.57 242.51 421.34 239.81 421.64 237.11 Z" fill="#c1206c" />
<path d="M 177.83 238.05 C 178.06 244.98 179.12 252.32 178.15 259.18 C 176.42 260.93 174.06 262.18 171.99 263.48 C 170.94 257.00 168.90 250.08 169.39 243.51 C 171.63 241.10 174.92 239.50 177.83 238.05 Z" fill="#ffffff" />
<path d="M 448.42 238.83 C 450.29 242.38 452.35 245.66 454.74 248.88 C 453.27 250.01 451.65 251.10 450.43 252.50 C 450.01 254.19 449.93 256.00 449.76 257.74 C 453.33 258.09 456.59 258.17 459.65 260.32 C 462.99 262.72 466.30 266.10 468.56 269.53 C 470.79 272.90 471.17 277.24 473.36 280.54 C 475.73 282.28 478.32 283.29 480.35 285.52 C 483.15 288.12 484.14 291.46 486.30 294.49 C 488.21 297.18 489.47 300.04 491.71 302.28 C 495.94 306.53 500.68 310.54 505.18 314.45 C 498.49 320.57 490.78 325.13 483.59 330.58 C 480.87 332.49 479.56 335.21 478.11 338.09 C 477.55 337.46 476.98 336.84 476.41 336.22 C 477.46 334.43 478.43 332.60 479.35 330.74 C 476.65 329.89 474.20 328.79 471.92 327.08 C 468.26 324.35 463.89 322.24 461.46 318.36 C 459.04 314.62 457.72 310.73 454.46 307.48 C 451.45 304.33 447.78 303.38 445.42 299.79 C 443.59 297.12 441.56 294.91 439.15 292.76 C 435.82 289.88 434.90 285.48 431.99 282.01 C 427.63 276.57 424.10 270.60 420.78 264.48 C 419.14 261.64 420.63 258.86 421.41 256.00 C 417.99 258.82 414.78 259.98 410.43 260.70 C 414.39 258.24 417.80 255.28 421.19 252.08 C 424.14 249.74 427.14 247.45 430.15 245.18 C 430.76 246.15 431.37 247.12 431.97 248.09 C 437.64 245.26 443.05 242.17 448.42 238.83 Z" fill="#f443a1" />
<path d="M 162.47 247.72 C 163.10 254.71 163.43 261.72 163.74 268.73 C 161.50 270.10 159.26 271.50 157.05 272.92 C 155.61 266.33 154.49 259.69 153.36 253.04 C 156.39 251.26 159.42 249.48 162.47 247.72 Z" fill="#ffffff" />
<path d="M 421.19 252.08 C 417.80 255.28 414.39 258.24 410.43 260.70 C 414.78 259.98 417.99 258.82 421.41 256.00 C 420.63 258.86 419.14 261.64 420.78 264.48 C 424.10 270.60 427.63 276.57 431.99 282.01 C 434.90 285.48 435.82 289.88 439.15 292.76 C 441.56 294.91 443.59 297.12 445.42 299.79 C 447.78 303.38 451.45 304.33 454.46 307.48 C 457.72 310.73 459.04 314.62 461.46 318.36 C 463.89 322.24 468.26 324.35 471.92 327.08 C 474.20 328.79 476.65 329.89 479.35 330.74 C 478.43 332.60 477.46 334.43 476.41 336.22 C 471.37 340.49 465.65 343.61 460.25 347.36 C 455.38 350.72 450.68 354.30 445.79 357.62 C 444.76 355.47 443.63 353.43 442.33 351.42 C 443.60 352.25 444.88 353.06 446.15 353.87 C 447.50 352.62 448.86 351.38 450.22 350.15 C 446.62 348.81 443.20 347.34 440.38 344.64 C 436.89 341.33 433.36 338.19 429.34 335.53 C 431.02 334.77 432.71 334.05 434.40 333.29 C 430.45 330.67 425.95 328.63 422.37 325.53 C 418.64 322.30 416.84 318.39 413.70 314.56 C 416.32 315.03 418.95 315.35 421.59 315.73 C 418.44 313.66 415.49 311.51 412.03 309.97 C 407.60 307.80 404.69 304.25 401.80 300.40 C 403.83 299.74 405.85 299.07 407.88 298.40 C 403.76 294.45 399.48 291.30 394.29 288.85 C 389.84 286.77 386.41 282.91 381.97 280.95 C 379.70 281.54 377.67 283.42 375.72 284.69 C 369.05 288.43 363.68 292.83 356.40 294.16 C 360.68 291.17 364.90 288.20 368.98 284.95 C 377.35 279.23 385.99 273.96 394.54 268.53 C 403.43 263.05 411.99 256.99 421.19 252.08 Z" fill="#f23697" />
<path d="M 184.33 265.38 C 188.46 264.83 192.81 264.98 196.82 266.15 C 207.28 269.20 215.28 278.37 218.43 288.60 C 220.89 296.58 219.81 305.31 215.45 312.43 C 208.20 324.31 193.55 331.14 179.89 327.07 C 164.67 322.36 153.93 304.41 157.82 288.80 C 160.68 276.65 172.21 267.23 184.33 265.38 Z" fill="#ffffff" />
<path d="M 546.24 265.76 C 547.27 266.09 548.29 266.46 549.31 266.83 C 547.25 271.15 544.66 275.18 542.55 279.47 C 540.59 283.41 538.48 287.19 535.41 290.39 C 530.00 296.01 525.71 301.77 519.64 306.64 C 515.00 310.53 509.66 313.20 504.91 316.92 C 499.10 321.45 493.33 326.02 487.23 330.16 C 485.18 331.66 482.63 333.21 481.24 335.37 C 480.78 337.51 481.08 339.88 481.44 342.01 C 480.39 340.66 479.26 339.37 478.11 338.09 C 479.56 335.21 480.87 332.49 483.59 330.58 C 490.78 325.13 498.49 320.57 505.18 314.45 C 511.25 309.28 517.64 305.00 522.86 298.85 C 526.04 294.92 529.75 291.60 533.33 288.07 C 535.38 284.21 537.09 280.23 539.54 276.59 C 541.47 273.73 542.94 270.85 543.81 267.50 C 544.61 266.91 545.42 266.33 546.24 265.76 Z" fill="#ed6eaf" />
<path d="M 182.31 277.30 C 188.08 275.69 194.36 277.20 198.81 281.18 C 204.01 285.80 207.79 292.95 207.34 300.03 C 206.97 309.54 197.63 317.69 188.17 316.78 C 183.00 316.33 178.73 313.44 175.49 309.53 C 171.98 305.26 169.14 299.62 169.13 293.99 C 168.93 286.34 175.13 279.28 182.31 277.30 Z" fill="#fa86c0" />
<path d="M 381.97 280.95 C 386.41 282.91 389.84 286.77 394.29 288.85 C 399.48 291.30 403.76 294.45 407.88 298.40 C 405.85 299.07 403.83 299.74 401.80 300.40 C 404.69 304.25 407.60 307.80 412.03 309.97 C 415.49 311.51 418.44 313.66 421.59 315.73 C 418.95 315.35 416.32 315.03 413.70 314.56 C 416.84 318.39 418.64 322.30 422.37 325.53 C 425.95 328.63 430.45 330.67 434.40 333.29 C 432.71 334.05 431.02 334.77 429.34 335.53 C 433.36 338.19 436.89 341.33 440.38 344.64 C 443.20 347.34 446.62 348.81 450.22 350.15 C 448.86 351.38 447.50 352.62 446.15 353.87 C 444.88 353.06 443.60 352.25 442.33 351.42 C 443.63 353.43 444.76 355.47 445.79 357.62 C 441.90 360.30 437.99 362.96 434.10 365.65 C 433.46 364.53 432.82 363.42 432.18 362.30 C 430.67 362.50 429.17 362.70 427.66 362.89 C 427.62 361.49 427.59 360.09 427.54 358.69 C 425.40 357.13 423.15 355.61 421.37 353.62 C 419.30 351.35 417.78 348.55 415.63 346.37 C 413.20 344.11 409.39 343.32 406.72 341.37 C 405.02 338.95 404.64 335.72 402.85 333.28 C 399.95 329.34 396.13 326.03 392.75 322.50 C 393.45 321.81 394.15 321.13 394.85 320.45 C 393.96 319.24 393.14 317.64 391.87 316.79 C 390.49 316.11 388.97 315.70 387.51 315.22 C 387.38 313.20 387.64 310.81 386.85 308.92 C 384.40 304.96 378.86 302.85 376.06 299.31 C 375.89 297.84 376.13 296.29 376.25 294.82 C 375.24 293.26 374.20 291.72 373.16 290.17 C 374.79 288.46 376.40 286.73 377.97 284.95 L 375.72 284.69 C 377.67 283.42 379.70 281.54 381.97 280.95 Z" fill="#f02d91" />
<path d="M 368.98 284.95 C 364.90 288.20 360.68 291.17 356.40 294.16 C 354.65 295.52 353.10 297.10 351.70 298.81 C 350.04 301.05 348.55 303.66 346.57 305.62 C 344.66 307.42 341.89 308.53 339.56 309.70 C 334.49 312.02 330.41 315.73 325.47 318.32 C 322.13 320.10 319.86 322.02 317.51 324.97 C 312.62 325.29 308.89 327.08 305.16 330.16 C 300.26 334.23 294.28 336.35 289.32 340.31 C 286.93 342.13 284.64 343.99 282.10 345.61 C 281.19 345.98 280.29 346.35 279.38 346.71 C 277.48 346.79 275.61 346.72 273.70 346.75 C 277.44 344.09 280.99 341.20 284.94 338.84 C 296.24 331.94 307.25 324.59 318.47 317.56 C 325.85 313.28 332.98 308.61 340.22 304.11 C 342.83 302.61 343.62 300.20 344.82 297.63 C 348.13 298.00 349.62 297.31 352.27 295.31 C 357.52 291.18 363.02 287.95 368.98 284.95 Z" fill="#d62d81" />
<path d="M 375.72 284.69 L 377.97 284.95 C 376.40 286.73 374.79 288.46 373.16 290.17 C 374.20 291.72 375.24 293.26 376.25 294.82 C 376.13 296.29 375.89 297.84 376.06 299.31 C 378.86 302.85 384.40 304.96 386.85 308.92 C 387.64 310.81 387.38 313.20 387.51 315.22 C 388.97 315.70 390.49 316.11 391.87 316.79 C 393.14 317.64 393.96 319.24 394.85 320.45 C 394.15 321.13 393.45 321.81 392.75 322.50 C 396.13 326.03 399.95 329.34 402.85 333.28 C 404.64 335.72 405.02 338.95 406.72 341.37 C 409.39 343.32 413.20 344.11 415.63 346.37 C 417.78 348.55 419.30 351.35 421.37 353.62 C 423.15 355.61 425.40 357.13 427.54 358.69 C 427.59 360.09 427.62 361.49 427.66 362.89 C 429.17 362.70 430.67 362.50 432.18 362.30 C 432.82 363.42 433.46 364.53 434.10 365.65 C 426.40 370.91 419.31 376.89 411.22 381.60 C 410.45 381.05 409.68 380.50 408.91 379.95 C 411.00 377.64 413.07 375.30 415.16 372.99 C 413.12 373.77 411.08 374.55 409.05 375.34 C 408.06 374.67 407.07 374.00 406.08 373.33 C 405.81 375.68 405.80 377.97 405.97 380.32 C 404.07 378.63 401.72 376.93 400.35 374.76 C 399.10 372.57 398.82 369.72 398.32 367.28 C 396.44 366.35 394.56 365.44 392.68 364.51 C 392.32 361.88 391.83 359.32 390.82 356.85 C 389.20 352.98 388.67 348.58 389.44 344.45 C 386.24 345.87 383.05 347.30 379.91 348.84 C 378.76 345.87 377.67 342.72 376.07 339.95 C 374.86 337.75 372.25 336.33 370.22 334.91 C 368.82 335.87 367.41 336.82 366.01 337.78 C 366.12 335.61 366.23 333.44 366.33 331.26 C 364.47 329.48 362.56 328.18 362.09 325.47 C 361.38 321.67 358.41 319.29 358.03 315.42 C 357.77 312.38 356.01 310.40 354.19 308.11 C 355.05 307.35 355.91 306.59 356.77 305.83 C 356.27 304.17 355.81 302.50 355.28 300.85 C 356.47 300.70 357.67 300.54 358.87 300.39 C 358.89 299.35 358.91 298.31 358.92 297.27 C 356.51 297.78 354.11 298.29 351.70 298.81 C 353.10 297.10 354.65 295.52 356.40 294.16 C 363.68 292.83 369.05 288.43 375.72 284.69 Z" fill="#ee268c" />
<path d="M 1281.68 291.64 C 1284.98 290.87 1288.63 291.21 1292.01 291.24 C 1305.72 291.74 1319.38 291.19 1333.09 291.22 C 1327.10 298.51 1320.49 305.22 1314.65 312.63 C 1312.74 314.89 1310.85 317.62 1308.36 319.26 C 1306.07 319.98 1303.40 319.75 1301.02 319.76 C 1290.32 319.43 1279.70 319.65 1268.99 319.77 C 1271.37 313.68 1274.20 307.81 1276.81 301.83 C 1278.32 298.46 1279.52 294.65 1281.68 291.64 Z" fill="#ffffff" />
<path d="M 148.27 294.62 C 150.13 301.01 150.89 307.47 151.99 314.00 C 155.06 331.66 157.93 349.34 161.04 366.99 C 161.62 370.65 162.78 374.68 162.31 378.38 C 159.85 380.86 156.31 382.42 153.27 384.09 C 151.58 376.08 150.65 367.93 149.08 359.91 C 148.46 355.22 143.16 352.85 139.77 350.22 C 127.43 341.25 114.86 332.55 102.79 323.23 C 106.15 321.05 109.54 318.92 112.97 316.85 C 124.46 325.13 135.22 334.47 146.98 342.35 C 145.01 328.21 141.33 314.34 139.04 300.25 C 142.11 298.31 145.10 296.38 148.27 294.62 Z" fill="#ffffff" />
<path d="M 358.92 297.27 C 358.91 298.31 358.89 299.35 358.87 300.39 C 357.67 300.54 356.47 300.70 355.28 300.85 C 355.81 302.50 356.27 304.17 356.77 305.83 C 355.91 306.59 355.05 307.35 354.19 308.11 C 356.01 310.40 357.77 312.38 358.03 315.42 C 358.41 319.29 361.38 321.67 362.09 325.47 C 362.56 328.18 364.47 329.48 366.33 331.26 C 366.23 333.44 366.12 335.61 366.01 337.78 C 367.41 336.82 368.82 335.87 370.22 334.91 C 372.25 336.33 374.86 337.75 376.07 339.95 C 377.67 342.72 378.76 345.87 379.91 348.84 C 383.05 347.30 386.24 345.87 389.44 344.45 C 388.67 348.58 389.20 352.98 390.82 356.85 C 391.83 359.32 392.32 361.88 392.68 364.51 C 394.56 365.44 396.44 366.35 398.32 367.28 C 398.82 369.72 399.10 372.57 400.35 374.76 C 401.72 376.93 404.07 378.63 405.97 380.32 C 405.80 377.97 405.81 375.68 406.08 373.33 C 407.07 374.00 408.06 374.67 409.05 375.34 C 411.08 374.55 413.12 373.77 415.16 372.99 C 413.07 375.30 411.00 377.64 408.91 379.95 C 409.68 380.50 410.45 381.05 411.22 381.60 C 403.91 386.54 396.56 391.60 389.84 397.30 C 389.37 397.68 388.89 398.06 388.42 398.44 C 385.92 397.83 384.21 397.37 382.01 399.03 C 376.82 394.97 369.70 392.14 366.79 386.26 C 364.69 382.72 364.25 378.39 362.15 374.90 C 359.66 371.73 354.88 369.82 352.70 366.30 C 351.02 363.35 350.30 359.75 349.38 356.49 C 350.54 355.91 351.70 355.33 352.86 354.75 C 352.82 353.36 352.78 351.97 352.75 350.58 C 350.02 351.69 347.27 352.69 344.45 353.56 C 342.03 351.86 339.57 350.19 337.09 348.56 C 336.78 346.15 336.78 343.40 335.80 341.17 C 334.60 339.92 333.10 338.90 331.72 337.84 C 332.00 333.35 331.44 329.64 330.05 325.34 C 327.91 326.06 325.51 327.26 323.22 327.23 C 321.25 326.80 319.38 325.74 317.51 324.97 C 319.86 322.02 322.13 320.10 325.47 318.32 C 330.41 315.73 334.49 312.02 339.56 309.70 C 341.89 308.53 344.66 307.42 346.57 305.62 C 348.55 303.66 350.04 301.05 351.70 298.81 C 354.11 298.29 356.51 297.78 358.92 297.27 Z" fill="#ed1f86" />
<path d="M 317.51 324.97 C 319.38 325.74 321.25 326.80 323.22 327.23 C 325.51 327.26 327.91 326.06 330.05 325.34 C 331.44 329.64 332.00 333.35 331.72 337.84 C 333.10 338.90 334.60 339.92 335.80 341.17 C 336.78 343.40 336.78 346.15 337.09 348.56 C 339.57 350.19 342.03 351.86 344.45 353.56 C 347.27 352.69 350.02 351.69 352.75 350.58 C 352.78 351.97 352.82 353.36 352.86 354.75 C 351.70 355.33 350.54 355.91 349.38 356.49 C 350.30 359.75 351.02 363.35 352.70 366.30 C 354.88 369.82 359.66 371.73 362.15 374.90 C 364.25 378.39 364.69 382.72 366.79 386.26 C 369.70 392.14 376.82 394.97 382.01 399.03 C 379.18 401.20 376.42 402.94 373.22 404.51 C 369.26 406.46 367.20 409.83 363.70 412.60 C 359.25 416.27 353.87 417.62 349.63 421.62 C 346.97 424.15 344.03 426.18 340.94 428.14 C 342.41 426.62 344.41 424.95 345.16 422.93 C 344.48 418.71 343.13 414.66 342.83 410.35 C 340.91 408.63 337.80 407.35 337.76 404.45 C 337.64 403.64 337.53 402.84 337.43 402.03 C 334.13 401.36 331.05 400.81 328.37 398.55 C 325.34 396.31 324.08 393.11 322.36 389.89 C 320.47 388.92 317.65 388.27 316.30 386.60 C 316.47 382.84 317.64 379.13 317.91 375.37 C 315.03 373.74 311.65 372.86 308.91 371.03 C 307.77 369.34 307.08 367.36 306.01 365.63 C 304.47 363.12 301.36 361.62 299.92 359.08 C 298.94 357.05 298.33 354.70 298.37 352.44 C 298.59 349.31 300.17 346.28 300.51 343.17 C 300.57 341.33 300.12 339.45 299.78 337.65 C 298.21 338.30 296.77 338.58 296.03 340.27 C 294.46 343.72 293.51 347.49 292.53 351.14 C 290.96 348.56 289.35 346.01 287.76 343.44 C 287.80 345.16 287.84 346.89 287.87 348.61 C 285.89 347.71 283.99 346.67 282.10 345.61 C 284.64 343.99 286.93 342.13 289.32 340.31 C 294.28 336.35 300.26 334.23 305.16 330.16 C 308.89 327.08 312.62 325.29 317.51 324.97 Z" fill="#ec1880" />
<path d="M 98.08 326.47 C 101.23 329.83 103.40 334.24 105.89 338.10 C 112.48 348.51 119.02 358.97 125.67 369.34 C 128.79 374.29 131.46 379.14 131.75 385.13 C 132.18 392.49 128.83 399.54 123.31 404.32 C 116.21 410.38 106.96 414.28 97.51 412.45 C 92.94 411.63 89.96 408.86 86.58 405.95 C 89.19 404.16 92.09 401.39 95.22 400.72 C 99.44 401.06 103.57 403.23 107.89 402.05 C 114.39 400.41 120.79 395.13 120.89 387.95 C 121.11 381.53 116.79 376.32 113.52 371.20 C 112.13 375.06 110.88 379.08 108.38 382.39 C 102.51 389.92 92.32 393.47 83.06 390.97 C 68.89 387.20 58.53 371.07 61.69 356.62 C 63.56 347.80 70.70 340.71 79.26 338.21 C 83.44 337.04 87.74 337.46 92.01 337.70 C 91.04 335.78 90.07 333.86 89.10 331.93 C 91.97 330.02 94.88 327.79 98.08 326.47 Z" fill="#ffffff" />
<path d="M 1486.57 333.46 C 1497.67 334.35 1508.71 335.68 1519.59 338.08 C 1519.89 352.14 1521.66 366.03 1522.78 380.02 C 1513.67 377.06 1504.88 373.82 1495.29 372.68 C 1486.55 371.55 1476.25 370.99 1468.19 375.19 C 1464.30 377.23 1460.90 380.26 1460.87 385.00 C 1460.93 390.38 1464.85 394.93 1468.47 398.52 C 1481.45 410.91 1498.05 420.75 1509.86 434.14 C 1515.14 440.06 1520.16 447.01 1522.18 454.80 C 1526.58 472.79 1518.28 492.74 1503.09 503.10 C 1492.18 510.75 1479.58 514.19 1466.43 515.43 C 1444.91 517.56 1422.18 513.98 1401.04 509.93 C 1399.94 495.31 1398.84 480.70 1397.17 466.13 C 1412.74 472.54 1427.89 477.74 1445.02 477.38 C 1451.07 477.15 1458.45 476.19 1463.40 472.38 C 1466.85 469.78 1468.08 465.28 1466.98 461.16 C 1465.68 456.02 1461.21 452.02 1457.40 448.62 C 1447.91 440.43 1438.51 432.15 1429.00 423.99 C 1421.35 417.33 1413.66 410.12 1409.13 400.88 C 1402.33 387.05 1403.81 370.08 1412.34 357.33 C 1419.98 345.45 1433.71 338.17 1447.23 335.24 C 1460.09 332.73 1473.54 332.43 1486.57 333.46 Z" fill="#ffffff" />
<path d="M 659.24 336.50 C 664.44 335.94 669.77 336.36 675.00 336.29 C 715.30 336.67 755.64 336.41 795.94 336.32 C 795.23 349.19 794.57 362.07 793.88 374.95 C 782.25 374.82 770.63 374.48 759.00 374.54 C 743.81 374.70 728.56 374.14 713.39 375.02 C 713.20 385.00 712.47 394.95 712.56 404.94 C 734.95 405.62 757.32 405.12 779.71 405.08 C 778.78 417.73 778.37 430.32 778.18 443.00 C 766.13 442.98 754.02 442.41 742.00 442.54 C 731.42 442.72 720.83 442.76 710.26 443.18 C 709.43 458.44 709.50 473.73 708.86 489.00 C 708.74 496.92 708.80 504.85 708.73 512.78 C 689.43 512.51 670.14 512.44 650.84 512.81 C 651.47 501.79 652.87 490.85 653.67 479.85 C 655.45 455.26 656.50 430.64 657.31 406.01 C 657.84 386.03 658.97 366.15 658.67 346.00 C 658.67 342.89 658.59 339.55 659.24 336.50 Z" fill="#ffffff" />
<path d="M 820.71 336.58 C 824.08 336.05 827.61 336.25 831.00 336.29 C 846.24 336.74 861.45 336.29 876.67 336.33 C 875.45 352.34 874.26 368.34 873.27 384.36 C 872.54 394.56 871.66 404.75 871.31 414.99 C 870.83 427.14 869.76 439.71 871.25 451.80 C 872.20 459.25 875.03 466.22 881.45 470.56 C 889.04 475.60 899.43 476.58 908.25 475.24 C 915.79 474.08 922.57 470.20 926.60 463.60 C 933.58 452.59 933.77 440.69 935.07 428.14 C 936.83 402.77 938.50 377.39 939.46 351.96 C 939.63 346.73 940.08 341.52 940.49 336.30 C 959.56 335.98 978.68 336.11 997.76 336.23 C 995.68 366.95 993.54 397.68 991.51 428.43 C 990.84 442.23 991.25 457.44 987.84 470.84 C 985.31 480.92 979.75 490.11 971.56 496.57 C 959.35 506.26 944.10 511.53 928.82 513.81 C 915.99 515.80 902.92 516.51 889.96 515.72 C 872.30 514.93 855.29 511.87 839.59 503.41 C 831.16 498.72 823.31 492.87 819.04 483.96 C 813.54 472.77 813.29 461.20 814.04 449.01 C 814.48 436.63 815.94 424.36 816.77 412.01 C 818.28 392.40 818.86 372.69 819.84 353.03 C 820.19 347.57 819.93 341.99 820.71 336.58 Z" fill="#ffffff" />
<path d="M 1012.38 336.53 C 1018.19 335.89 1024.15 336.41 1030.00 336.30 C 1079.06 336.78 1127.97 336.18 1177.03 336.29 C 1176.46 349.33 1176.09 362.38 1175.34 375.41 C 1168.55 375.51 1161.80 375.29 1155.02 374.83 C 1143.73 374.38 1132.43 374.28 1121.13 374.33 C 1120.48 380.40 1119.86 386.47 1119.51 392.57 C 1116.68 432.49 1115.64 472.80 1114.81 512.79 C 1095.87 512.41 1076.95 512.50 1058.01 512.78 C 1061.31 476.17 1063.89 439.54 1064.75 402.78 C 1065.19 393.39 1065.45 384.01 1065.37 374.60 C 1047.13 374.46 1028.95 375.82 1010.69 375.44 C 1010.81 365.95 1011.62 356.49 1011.64 347.00 C 1011.70 343.56 1011.63 339.89 1012.38 336.53 Z" fill="#ffffff" />
<path d="M 1257.56 336.66 C 1262.56 335.76 1267.92 336.41 1273.00 336.39 C 1289.98 336.57 1306.98 336.49 1323.96 336.23 C 1332.00 357.40 1338.78 379.05 1346.77 400.25 C 1357.86 430.16 1368.92 460.08 1380.00 490.00 C 1382.83 497.63 1386.03 505.13 1388.88 512.76 C 1369.25 512.49 1349.63 512.36 1330.00 512.84 C 1326.30 500.97 1322.88 489.03 1318.67 477.32 C 1316.88 472.60 1315.72 467.07 1312.82 462.91 C 1309.63 462.33 1306.23 462.52 1302.99 462.52 C 1284.72 462.78 1266.43 462.28 1248.16 462.77 C 1239.99 479.27 1232.45 496.04 1224.86 512.80 C 1204.55 512.40 1184.25 512.49 1163.95 512.75 C 1167.87 505.17 1172.47 497.99 1176.44 490.43 C 1197.96 449.96 1219.47 409.47 1240.98 368.99 C 1245.52 360.13 1250.03 351.25 1254.18 342.21 C 1255.12 340.32 1256.09 338.20 1257.56 336.66 Z" fill="#ffffff" />
<path d="M 476.41 336.22 C 476.98 336.84 477.55 337.46 478.11 338.09 C 479.26 339.37 480.39 340.66 481.44 342.01 C 485.16 348.63 488.22 355.56 491.89 362.19 C 495.93 369.01 498.82 376.36 502.63 383.28 C 507.59 391.63 511.35 400.54 515.96 409.08 C 519.21 415.79 523.61 421.77 526.59 428.62 C 526.08 429.40 525.56 430.18 525.05 430.97 C 524.09 430.59 523.13 430.23 522.17 429.87 C 519.84 423.64 515.05 418.01 511.04 412.77 C 509.18 410.01 507.59 407.08 505.64 404.37 C 504.42 405.20 503.19 406.03 501.96 406.86 C 501.18 405.49 500.42 404.11 499.66 402.73 C 499.82 405.89 499.91 408.85 498.61 411.83 C 495.48 412.09 491.71 411.85 488.99 410.11 C 487.91 407.43 487.81 404.26 487.40 401.42 C 484.94 403.65 482.71 406.09 480.45 408.53 C 479.13 410.04 476.69 410.41 474.85 411.02 C 472.97 412.50 471.27 415.29 468.61 414.87 C 466.21 414.89 464.06 414.59 461.89 415.91 C 457.35 418.52 452.80 419.57 449.09 423.02 C 447.25 423.18 445.40 423.27 443.55 423.37 C 442.89 424.67 442.22 425.97 441.56 427.27 C 435.19 428.72 428.75 429.80 422.42 431.36 C 419.83 431.69 418.54 435.05 417.17 436.97 C 416.31 437.18 415.45 437.39 414.60 437.61 C 414.98 439.41 415.26 441.35 415.99 443.05 C 417.21 445.52 419.60 447.40 420.73 449.88 C 420.71 452.25 419.11 454.70 418.10 456.79 C 415.97 453.89 414.74 450.70 413.38 447.41 C 411.34 442.40 408.45 437.82 406.35 432.83 C 404.36 428.13 402.44 423.42 400.05 418.90 C 396.22 411.81 394.33 404.08 389.84 397.30 C 396.56 391.60 403.91 386.54 411.22 381.60 C 419.31 376.89 426.40 370.91 434.10 365.65 C 437.99 362.96 441.90 360.30 445.79 357.62 C 450.68 354.30 455.38 350.72 460.25 347.36 C 465.65 343.61 471.37 340.49 476.41 336.22 Z" fill="#c60f60" />
<path d="M 299.78 337.65 C 300.12 339.45 300.57 341.33 300.51 343.17 C 300.17 346.28 298.59 349.31 298.37 352.44 C 298.33 354.70 298.94 357.05 299.92 359.08 C 301.36 361.62 304.47 363.12 306.01 365.63 C 307.08 367.36 307.77 369.34 308.91 371.03 C 311.65 372.86 315.03 373.74 317.91 375.37 C 317.64 379.13 316.47 382.84 316.30 386.60 C 317.65 388.27 320.47 388.92 322.36 389.89 C 324.08 393.11 325.34 396.31 328.37 398.55 C 331.05 400.81 334.13 401.36 337.43 402.03 C 337.53 402.84 337.64 403.64 337.76 404.45 C 337.80 407.35 340.91 408.63 342.83 410.35 C 343.13 414.66 344.48 418.71 345.16 422.93 C 344.41 424.95 342.41 426.62 340.94 428.14 C 338.51 430.10 337.30 432.55 336.28 435.44 C 333.38 434.86 330.53 434.31 327.58 434.02 C 326.55 436.32 325.89 439.14 324.29 441.10 C 322.04 442.38 319.50 443.13 317.26 444.44 C 314.68 445.96 312.37 448.20 309.95 450.00 C 307.34 451.99 304.36 453.34 301.74 455.32 C 302.53 454.09 303.12 452.79 303.62 451.42 C 302.64 449.39 301.77 447.32 300.92 445.23 C 299.67 445.41 298.42 445.58 297.17 445.76 C 298.41 444.19 299.65 442.61 300.88 441.03 C 293.95 438.85 286.95 436.88 280.09 434.50 C 280.56 431.06 280.98 427.63 281.49 424.20 C 278.78 425.53 276.08 426.88 273.40 428.30 C 274.41 423.04 274.99 417.85 275.02 412.49 C 272.84 411.53 269.97 410.73 268.43 408.81 C 266.19 406.08 264.18 403.16 262.04 400.35 C 261.34 397.97 261.04 395.71 259.22 393.88 C 255.60 390.14 251.38 387.09 247.98 383.10 C 247.76 379.71 246.80 377.27 245.00 374.39 C 243.43 374.81 241.85 375.23 240.27 375.66 C 241.07 373.61 241.68 371.56 242.10 369.40 C 244.46 368.26 246.97 367.47 249.32 366.33 C 252.23 364.88 254.59 362.30 257.42 360.61 C 260.85 358.54 264.47 358.21 267.58 355.56 C 271.35 352.32 274.92 349.02 279.38 346.71 C 280.29 346.35 281.19 345.98 282.10 345.61 C 283.99 346.67 285.89 347.71 287.87 348.61 C 287.84 346.89 287.80 345.16 287.76 343.44 C 289.35 346.01 290.96 348.56 292.53 351.14 C 293.51 347.49 294.46 343.72 296.03 340.27 C 296.77 338.58 298.21 338.30 299.78 337.65 Z" fill="#eb117a" />
<path d="M 83.44 346.45 C 88.84 344.68 94.90 346.13 99.10 349.90 C 104.71 354.88 107.99 363.14 105.44 370.47 C 102.98 377.47 95.61 381.86 88.28 380.71 C 79.57 379.44 72.65 370.47 72.38 361.89 C 72.08 354.92 76.89 348.56 83.44 346.45 Z" fill="#fa86c0" />
<path d="M 279.38 346.71 C 274.92 349.02 271.35 352.32 267.58 355.56 C 264.47 358.21 260.85 358.54 257.42 360.61 C 254.59 362.30 252.23 364.88 249.32 366.33 C 246.97 367.47 244.46 368.26 242.10 369.40 C 239.61 371.10 237.44 373.15 234.82 374.68 C 231.36 376.83 227.93 377.99 225.29 381.24 C 223.22 383.74 221.23 385.93 218.05 386.99 C 211.70 389.26 206.00 392.69 200.38 396.36 C 196.52 398.99 193.85 402.37 189.54 404.42 C 187.08 405.86 183.48 406.57 182.54 409.59 C 181.48 411.66 183.26 413.02 184.40 414.54 C 187.69 418.02 190.84 421.51 193.68 425.37 C 196.36 428.94 199.91 431.07 203.42 433.68 C 208.41 437.30 211.66 442.47 216.25 446.77 C 218.27 449.01 221.33 451.49 220.77 454.86 C 220.05 460.54 217.70 465.95 216.65 471.60 C 213.93 485.09 212.43 498.72 208.90 512.06 C 207.77 515.90 208.01 519.60 208.65 523.50 C 214.02 519.93 218.27 515.19 223.83 511.96 C 226.79 510.24 229.44 508.28 232.02 506.03 C 236.65 501.87 242.38 499.98 246.42 495.06 C 247.72 495.51 249.02 495.96 250.31 496.42 C 244.58 501.55 238.22 505.70 231.93 510.09 C 227.45 513.24 223.26 516.77 218.67 519.77 C 212.72 523.52 207.86 528.39 201.39 531.34 C 201.51 528.88 201.65 526.41 201.91 523.96 C 202.96 511.62 208.64 500.49 209.85 487.93 C 210.41 481.34 212.57 475.12 213.42 468.58 C 213.91 464.20 215.03 459.93 215.68 455.58 C 216.88 451.29 211.52 447.80 209.09 444.90 C 200.52 435.48 191.60 426.43 182.46 417.54 C 180.15 415.27 177.38 412.79 175.94 409.85 C 175.83 408.28 176.92 407.85 177.95 406.97 C 188.85 399.35 200.21 392.53 211.66 385.79 C 218.57 381.74 224.79 376.73 231.76 372.77 C 238.07 369.13 243.87 364.72 250.20 361.10 C 258.32 356.55 264.96 350.29 273.70 346.75 C 275.61 346.72 277.48 346.79 279.38 346.71 Z" fill="#cf1c72" />
<path d="M 242.10 369.40 C 241.68 371.56 241.07 373.61 240.27 375.66 C 241.85 375.23 243.43 374.81 245.00 374.39 C 246.80 377.27 247.76 379.71 247.98 383.10 C 251.38 387.09 255.60 390.14 259.22 393.88 C 261.04 395.71 261.34 397.97 262.04 400.35 C 264.18 403.16 266.19 406.08 268.43 408.81 C 269.97 410.73 272.84 411.53 275.02 412.49 C 274.99 417.85 274.41 423.04 273.40 428.30 C 276.08 426.88 278.78 425.53 281.49 424.20 C 280.98 427.63 280.56 431.06 280.09 434.50 C 286.95 436.88 293.95 438.85 300.88 441.03 C 299.65 442.61 298.41 444.19 297.17 445.76 C 298.42 445.58 299.67 445.41 300.92 445.23 C 301.77 447.32 302.64 449.39 303.62 451.42 C 303.12 452.79 302.53 454.09 301.74 455.32 C 299.36 457.12 297.54 459.44 295.13 461.21 C 290.65 464.61 285.38 465.11 281.30 469.29 C 273.71 477.36 263.13 482.42 254.59 489.62 C 252.84 491.26 251.90 493.85 250.83 495.97 L 250.31 496.42 C 249.02 495.96 247.72 495.51 246.42 495.06 C 242.38 499.98 236.65 501.87 232.02 506.03 C 229.44 508.28 226.79 510.24 223.83 511.96 C 218.27 515.19 214.02 519.93 208.65 523.50 C 208.01 519.60 207.77 515.90 208.90 512.06 C 212.43 498.72 213.93 485.09 216.65 471.60 C 217.70 465.95 220.05 460.54 220.77 454.86 C 221.33 451.49 218.27 449.01 216.25 446.77 C 211.66 442.47 208.41 437.30 203.42 433.68 C 199.91 431.07 196.36 428.94 193.68 425.37 C 190.84 421.51 187.69 418.02 184.40 414.54 C 183.26 413.02 181.48 411.66 182.54 409.59 C 183.48 406.57 187.08 405.86 189.54 404.42 C 193.85 402.37 196.52 398.99 200.38 396.36 C 206.00 392.69 211.70 389.26 218.05 386.99 C 221.23 385.93 223.22 383.74 225.29 381.24 C 227.93 377.99 231.36 376.83 234.82 374.68 C 237.44 373.15 239.61 371.10 242.10 369.40 Z" fill="#e90b76" />
<path d="M 1287.71 375.14 C 1293.19 391.66 1298.63 408.22 1303.93 424.80 C 1290.65 424.84 1277.36 424.88 1264.08 424.77 C 1268.63 414.85 1273.62 405.15 1278.26 395.27 C 1281.50 388.61 1284.26 381.68 1287.71 375.14 Z" fill="#fa86c0" />
<path d="M 388.42 398.44 C 378.18 406.71 367.17 413.85 356.62 421.70 C 349.64 426.12 343.68 431.69 336.28 435.44 C 337.30 432.55 338.51 430.10 340.94 428.14 C 344.03 426.18 346.97 424.15 349.63 421.62 C 353.87 417.62 359.25 416.27 363.70 412.60 C 367.20 409.83 369.26 406.46 373.22 404.51 C 376.42 402.94 379.18 401.20 382.01 399.03 C 384.21 397.37 385.92 397.83 388.42 398.44 Z" fill="#d12376" />
<path d="M 487.40 401.42 C 487.81 404.26 487.91 407.43 488.99 410.11 C 491.71 411.85 495.48 412.09 498.61 411.83 C 499.91 408.85 499.82 405.89 499.66 402.73 C 500.42 404.11 501.18 405.49 501.96 406.86 C 503.19 406.03 504.42 405.20 505.64 404.37 C 507.59 407.08 509.18 410.01 511.04 412.77 C 515.05 418.01 519.84 423.64 522.17 429.87 C 514.76 427.43 509.05 433.31 503.75 437.46 C 500.67 437.63 496.81 437.12 493.96 438.45 C 490.71 441.11 487.77 444.14 484.36 446.65 C 483.98 448.59 483.71 450.83 482.75 452.57 C 479.35 452.47 475.87 451.23 472.51 450.75 C 471.39 450.61 470.35 450.53 469.39 451.23 C 468.20 453.46 467.65 456.09 466.97 458.51 C 462.32 457.51 457.42 456.35 452.95 458.70 C 448.62 461.59 447.06 467.04 441.66 468.63 C 439.42 469.39 437.50 467.48 436.00 466.11 C 433.35 463.44 430.65 460.97 427.40 459.04 C 429.00 464.70 430.12 470.60 432.10 476.13 C 434.45 480.13 437.48 482.93 437.80 487.88 C 437.65 488.53 437.51 489.18 437.36 489.83 C 440.03 494.22 442.82 498.60 445.09 503.22 C 446.89 508.24 449.08 513.12 450.95 518.12 C 453.04 523.67 457.74 526.90 459.61 532.48 C 462.18 540.74 465.58 548.67 468.07 556.96 C 470.52 562.56 473.19 567.71 474.51 573.76 C 468.10 564.51 463.87 553.60 460.05 543.08 C 457.99 537.64 454.77 532.83 452.58 527.43 C 450.79 523.00 448.88 518.66 446.55 514.48 C 443.31 508.69 441.61 502.34 438.61 496.45 C 436.50 492.28 434.16 488.15 432.21 483.86 C 430.34 479.80 429.34 475.44 427.40 471.39 C 426.13 468.72 425.12 466.02 424.52 463.12 C 424.16 463.12 423.80 463.11 423.44 463.11 C 422.70 459.69 421.58 458.95 418.61 457.15 L 418.10 456.79 C 419.11 454.70 420.71 452.25 420.73 449.88 C 419.60 447.40 417.21 445.52 415.99 443.05 C 415.26 441.35 414.98 439.41 414.60 437.61 C 415.45 437.39 416.31 437.18 417.17 436.97 C 418.54 435.05 419.83 431.69 422.42 431.36 C 428.75 429.80 435.19 428.72 441.56 427.27 C 442.22 425.97 442.89 424.67 443.55 423.37 C 445.40 423.27 447.25 423.18 449.09 423.02 C 452.80 419.57 457.35 418.52 461.89 415.91 C 464.06 414.59 466.21 414.89 468.61 414.87 C 471.27 415.29 472.97 412.50 474.85 411.02 C 476.69 410.41 479.13 410.04 480.45 408.53 C 482.71 406.09 484.94 403.65 487.40 401.42 Z" fill="#d60e6a" />
<path d="M 522.17 429.87 C 523.13 430.23 524.09 430.59 525.05 430.97 C 525.56 430.18 526.08 429.40 526.59 428.62 L 526.93 429.34 C 526.47 431.62 525.92 433.89 525.40 436.16 C 526.64 437.70 527.97 439.26 528.98 440.95 C 530.81 444.07 531.14 448.04 532.94 451.13 C 534.89 454.14 537.70 456.43 539.46 459.72 C 541.25 463.12 542.07 466.96 543.74 470.47 C 545.83 475.17 549.66 478.49 551.60 483.29 C 553.06 486.84 554.70 490.09 556.70 493.37 C 559.34 497.75 561.07 502.48 563.09 507.15 C 560.95 505.53 559.06 503.97 557.89 501.48 C 556.31 498.37 554.17 495.71 552.13 492.90 C 550.30 490.10 550.11 486.31 548.70 483.26 C 547.00 479.39 543.59 476.02 540.86 472.83 C 538.34 473.16 535.84 473.54 533.33 473.95 C 532.93 471.93 532.55 469.91 532.18 467.89 C 528.99 467.22 526.44 467.19 523.24 467.75 C 520.27 468.32 517.32 467.85 514.35 468.08 C 512.57 469.34 511.49 471.89 510.26 473.67 C 506.32 473.24 502.40 472.74 498.47 472.24 C 497.57 474.10 496.67 475.95 495.77 477.80 C 491.72 478.00 487.67 478.20 483.63 478.46 C 483.10 479.88 482.57 481.29 482.03 482.70 C 480.79 483.61 479.47 484.50 478.38 485.59 C 477.65 487.15 477.82 489.18 477.68 490.88 C 474.37 493.25 470.91 496.26 467.03 497.59 C 464.98 497.41 462.94 496.69 460.96 496.15 C 461.56 491.92 462.34 487.34 461.96 483.07 C 462.06 481.07 459.52 480.26 458.22 479.14 C 456.44 483.28 455.28 487.44 454.44 491.86 C 454.06 493.01 453.97 495.11 452.63 495.52 C 449.44 495.57 446.05 494.17 443.10 493.07 C 444.68 496.36 444.96 499.62 445.09 503.22 C 442.82 498.60 440.03 494.22 437.36 489.83 C 437.51 489.18 437.65 488.53 437.80 487.88 C 437.48 482.93 434.45 480.13 432.10 476.13 C 430.12 470.60 429.00 464.70 427.40 459.04 C 430.65 460.97 433.35 463.44 436.00 466.11 C 437.50 467.48 439.42 469.39 441.66 468.63 C 447.06 467.04 448.62 461.59 452.95 458.70 C 457.42 456.35 462.32 457.51 466.97 458.51 C 467.65 456.09 468.20 453.46 469.39 451.23 C 470.35 450.53 471.39 450.61 472.51 450.75 C 475.87 451.23 479.35 452.47 482.75 452.57 C 483.71 450.83 483.98 448.59 484.36 446.65 C 487.77 444.14 490.71 441.11 493.96 438.45 C 496.81 437.12 500.67 437.63 503.75 437.46 C 509.05 433.31 514.76 427.43 522.17 429.87 Z" fill="#dd0b6f" />
<path d="M 526.93 429.34 C 530.41 436.19 533.28 443.20 537.20 449.75 C 540.86 456.02 544.67 462.07 547.45 468.81 C 550.42 476.17 555.16 482.44 558.40 489.67 C 562.19 498.32 568.27 506.75 570.39 515.92 C 565.10 518.34 559.14 518.76 553.57 520.78 C 547.32 523.00 540.88 524.56 534.60 526.69 C 527.52 529.10 520.11 530.12 513.03 532.55 C 512.45 537.19 510.70 541.28 508.64 545.41 C 505.92 550.79 506.27 556.66 503.75 562.07 C 501.71 566.46 499.39 570.54 498.43 575.35 C 495.94 586.38 492.86 597.16 487.91 607.37 C 486.04 605.23 484.32 603.08 483.37 600.36 C 480.62 592.78 476.07 586.13 473.23 578.58 C 470.25 570.81 466.26 563.57 462.91 555.97 C 458.58 545.95 453.56 536.35 449.68 526.13 C 447.10 519.28 442.90 513.30 440.24 506.48 C 435.83 495.58 430.54 485.13 425.54 474.50 C 422.62 468.89 419.72 463.48 418.61 457.15 C 421.58 458.95 422.70 459.69 423.44 463.11 C 423.80 463.11 424.16 463.12 424.52 463.12 C 425.12 466.02 426.13 468.72 427.40 471.39 C 429.34 475.44 430.34 479.80 432.21 483.86 C 434.16 488.15 436.50 492.28 438.61 496.45 C 441.61 502.34 443.31 508.69 446.55 514.48 C 448.88 518.66 450.79 523.00 452.58 527.43 C 454.77 532.83 457.99 537.64 460.05 543.08 C 463.87 553.60 468.10 564.51 474.51 573.76 C 476.28 577.46 478.04 581.11 479.35 585.01 C 480.66 588.87 482.06 593.37 484.63 596.57 C 486.85 597.33 489.51 596.98 490.53 594.61 C 492.44 590.17 492.98 585.19 494.61 580.62 C 496.64 574.83 498.51 569.03 500.13 563.11 C 502.24 555.42 505.20 548.13 506.89 540.34 C 507.59 537.65 508.11 534.30 510.45 532.51 C 515.96 528.15 523.72 526.09 530.42 524.38 C 535.05 523.22 539.21 521.14 543.92 520.30 C 550.88 518.95 557.73 517.81 563.72 513.63 C 565.64 511.19 564.16 509.49 563.09 507.15 C 561.07 502.48 559.34 497.75 556.70 493.37 C 554.70 490.09 553.06 486.84 551.60 483.29 C 549.66 478.49 545.83 475.17 543.74 470.47 C 542.07 466.96 541.25 463.12 539.46 459.72 C 537.70 456.43 534.89 454.14 532.94 451.13 C 531.14 448.04 530.81 444.07 528.98 440.95 C 527.97 439.26 526.64 437.70 525.40 436.16 C 525.92 433.89 526.47 431.62 526.93 429.34 Z" fill="#c91f70" />
<path d="M 327.58 434.02 C 330.53 434.31 333.38 434.86 336.28 435.44 C 332.45 438.21 329.01 441.39 324.95 443.87 C 321.24 446.13 317.69 448.55 314.36 451.34 C 307.91 456.74 300.60 460.87 294.06 466.15 C 289.38 469.99 284.06 472.75 279.15 476.22 C 270.07 483.14 260.98 490.67 250.83 495.97 C 251.90 493.85 252.84 491.26 254.59 489.62 C 263.13 482.42 273.71 477.36 281.30 469.29 C 285.38 465.11 290.65 464.61 295.13 461.21 C 297.54 459.44 299.36 457.12 301.74 455.32 C 304.36 453.34 307.34 451.99 309.95 450.00 C 312.37 448.20 314.68 445.96 317.26 444.44 C 319.50 443.13 322.04 442.38 324.29 441.10 C 325.89 439.14 326.55 436.32 327.58 434.02 Z" fill="#d21a6f" />
<path d="M 532.18 467.89 C 532.55 469.91 532.93 471.93 533.33 473.95 C 535.84 473.54 538.34 473.16 540.86 472.83 C 543.59 476.02 547.00 479.39 548.70 483.26 C 550.11 486.31 550.30 490.10 552.13 492.90 C 554.17 495.71 556.31 498.37 557.89 501.48 C 559.06 503.97 560.95 505.53 563.09 507.15 C 564.16 509.49 565.64 511.19 563.72 513.63 C 557.73 517.81 550.88 518.95 543.92 520.30 C 539.21 521.14 535.05 523.22 530.42 524.38 C 523.72 526.09 515.96 528.15 510.45 532.51 C 508.11 534.30 507.59 537.65 506.89 540.34 C 505.20 548.13 502.24 555.42 500.13 563.11 C 498.51 569.03 496.64 574.83 494.61 580.62 C 492.98 585.19 492.44 590.17 490.53 594.61 C 489.51 596.98 486.85 597.33 484.63 596.57 C 482.06 593.37 480.66 588.87 479.35 585.01 C 478.04 581.11 476.28 577.46 474.51 573.76 C 473.19 567.71 470.52 562.56 468.07 556.96 C 465.58 548.67 462.18 540.74 459.61 532.48 C 457.74 526.90 453.04 523.67 450.95 518.12 C 449.08 513.12 446.89 508.24 445.09 503.22 C 444.96 499.62 444.68 496.36 443.10 493.07 C 446.05 494.17 449.44 495.57 452.63 495.52 C 453.97 495.11 454.06 493.01 454.44 491.86 C 455.28 487.44 456.44 483.28 458.22 479.14 C 459.52 480.26 462.06 481.07 461.96 483.07 C 462.34 487.34 461.56 491.92 460.96 496.15 C 462.94 496.69 464.98 497.41 467.03 497.59 C 470.91 496.26 474.37 493.25 477.68 490.88 C 477.82 489.18 477.65 487.15 478.38 485.59 C 479.47 484.50 480.79 483.61 482.03 482.70 C 482.57 481.29 483.10 479.88 483.63 478.46 C 487.67 478.20 491.72 478.00 495.77 477.80 C 496.67 475.95 497.57 474.10 498.47 472.24 C 502.40 472.74 506.32 473.24 510.26 473.67 C 511.49 471.89 512.57 469.34 514.35 468.08 C 517.32 467.85 520.27 468.32 523.24 467.75 C 526.44 467.19 528.99 467.22 532.18 467.89 Z" fill="#e50973" />
</svg>