<?xml version="1.0" encoding="UTF-8" standalone="no"?>
<svg
   version="1.1"
   viewBox="0 0 452 116"
   xmlns="http://www.w3.org/2000/svg"
   xmlns:svg="http://www.w3.org/2000/svg">
  <path
     d="m 195.61914,0.0390625 c -0.29,10.4699995 0.74039,20.8911715 6.40039,29.9511715 2,3.37 4.86008,5.789766 7.83008,8.259766 2.67,2 3.40984,5.720547 4.08984,8.810547 1.28,6.35 0.39992,12.498984 -1.08008,18.708984 -3.74999,17.17 0.39102,34.910549 8.79102,50.060549 0.25,-12.18 -2.25961,-26.380392 -0.0996,-38.650393 0.35,-2.42 1.92992,-3.790078 3.41992,-5.580078 1.91,3.48 2.85008,7.350625 4.58008,10.890625 0.96,1.87 3.18859,3.390157 5.30859,2.410157 2.91,-1.28 3.53063,-5.07086 3.64063,-7.88086 0.04,-7.61 -2.29914,-15.51914 -4.86914,-22.61914 -1.43,-3.86 -1.0618,-8.209688 1.1582,-11.679688 2.04,-2.23 4.98149,-3.641094 7.27149,-5.621094 8.23,-6.86 14.36015,-16.488828 17.91015,-26.548828 -7.03,6.89 -13.27992,14.299297 -21.91992,19.529297 -4.38,2.55 -9.18031,4.309531 -14.32031,3.269531 -7.19,-1.44 -12.65047,-6.469375 -16.98047,-12.109375 -4.97,-6.47 -8.02086,-13.7311715 -11.13086,-21.2011715 z"
     style="baseline-shift:baseline;display:inline;overflow:visible;vector-effect:none;fill:#13afcc;fill-rule:evenodd;enable-background:accumulate;stop-color:#000000;stop-opacity:1"
     id="path80" />
  <path
     d="m 224.72461,5.4824219 c -1.17291,0.00966 -2.35789,0.2570312 -3.49414,0.7773437 -6.36,2.85 -8.33094,11.2811724 -4.46094,16.9511714 2.78,4.500001 8.90102,5.939141 13.29102,2.869141 5.32,-3.65 6.28968,-11.529609 2.42968,-16.5996092 -1.84718,-2.4940626 -4.76819,-4.0227399 -7.76562,-3.9980469 z"
     style="baseline-shift:baseline;display:inline;overflow:visible;vector-effect:none;fill:#13afcc;fill-rule:evenodd;enable-background:accumulate;stop-color:#000000;stop-opacity:1"
     id="path79" />

</svg>
