<?xml version="1.0" encoding="UTF-8" standalone="no"?>
<svg
   version="1.1"
   viewBox="0 0 452 116"
   xmlns="http://www.w3.org/2000/svg"
   xmlns:svg="http://www.w3.org/2000/svg">
  <path
     d="m 195.61914,0.0390625 c -0.29,10.4699995 0.74039,20.8911715 6.40039,29.9511715 2,3.37 4.86008,5.789766 7.83008,8.259766 2.67,2 3.40984,5.720547 4.08984,8.810547 1.28,6.35 0.39992,12.498984 -1.08008,18.708984 -3.74999,17.17 0.39102,34.910549 8.79102,50.060549 0.25,-12.18 -2.25961,-26.380392 -0.0996,-38.650393 0.35,-2.42 1.92992,-3.790078 3.41992,-5.580078 1.91,3.48 2.85008,7.350625 4.58008,10.890625 0.96,1.87 3.18859,3.390157 5.30859,2.410157 2.91,-1.28 3.53063,-5.07086 3.64063,-7.88086 0.04,-7.61 -2.29914,-15.51914 -4.86914,-22.61914 -1.43,-3.86 -1.0618,-8.209688 1.1582,-11.679688 2.04,-2.23 4.98149,-3.641094 7.27149,-5.621094 8.23,-6.86 14.36015,-16.488828 17.91015,-26.548828 -7.03,6.89 -13.27992,14.299297 -21.91992,19.529297 -4.38,2.55 -9.18031,4.309531 -14.32031,3.269531 -7.19,-1.44 -12.65047,-6.469375 -16.98047,-12.109375 -4.97,-6.47 -8.02086,-13.7311715 -11.13086,-21.2011715 z"
     style="baseline-shift:baseline;display:inline;overflow:visible;vector-effect:none;fill:#13afcc;fill-rule:evenodd;enable-background:accumulate;stop-color:#000000;stop-opacity:1"
     id="path80" />
  <path
     d="m 224.72461,5.4824219 c -1.17291,0.00966 -2.35789,0.2570312 -3.49414,0.7773437 -6.36,2.85 -8.33094,11.2811724 -4.46094,16.9511714 2.78,4.500001 8.90102,5.939141 13.29102,2.869141 5.32,-3.65 6.28968,-11.529609 2.42968,-16.5996092 -1.84718,-2.4940626 -4.76819,-4.0227399 -7.76562,-3.9980469 z"
     style="baseline-shift:baseline;display:inline;overflow:visible;vector-effect:none;fill:#13afcc;fill-rule:evenodd;enable-background:accumulate;stop-color:#000000;stop-opacity:1"
     id="path79" />
  <path
     d="m 28.525391,20.316406 c -0.349786,0.0027 -0.709922,0.04953 -1.076172,0.144531 -3.57,0.89 -4.039063,6.339454 -1.039063,8.189454 C 29.120156,30.580391 32.77,28.11 32.75,25 32.9075,22.41875 30.973887,20.297402 28.525391,20.316406 Z"
     style="baseline-shift:baseline;display:inline;overflow:visible;vector-effect:none;fill:#175879;fill-rule:evenodd;enable-background:accumulate;stop-color:#000000;stop-opacity:1"
     id="path78" />
  <path
     d="m 109.2207,20.326172 c -0.26627,0.0081 -0.54,0.03937 -0.82031,0.09375 -3.73,0.88 -4.38031,6.449531 -1.07031,8.269531 2.7,1.87 6.21969,-0.609922 6.17969,-3.669922 0.14875,-2.65125 -1.58633,-4.628965 -4.02539,-4.693359 -0.0871,-0.0023 -0.17492,-0.0027 -0.26368,0 z"
     style="baseline-shift:baseline;display:inline;overflow:visible;vector-effect:none;fill:#175879;fill-rule:evenodd;enable-background:accumulate;stop-color:#000000;stop-opacity:1"
     id="path77" />
  <path
     d="m 121.24805,20.328125 c -0.56726,-0.0045 -1.15321,0.09914 -1.72852,0.322266 -3.06,1.66 -3.33047,6.339843 -0.23047,8.089843 3.17,2 6.78055,-1.349765 6.06055,-4.759765 -0.28125,-2.242188 -2.07566,-3.636223 -4.10156,-3.652344 z"
     style="baseline-shift:baseline;display:inline;overflow:visible;vector-effect:none;fill:#175879;fill-rule:evenodd;enable-background:accumulate;stop-color:#000000;stop-opacity:1"
     id="path76" />
  <path
     d="m 401.26953,20.261719 c -1.64125,-0.0038 -3.27867,0.04281 -4.88867,0.257812 -3.04,2.66 -5.45117,6.110078 -8.20117,9.080078 2.43,0.03 4.86101,0.02125 7.29101,0.03125 3.57,-3.11 7.14899,-6.200312 10.70899,-9.320312 -1.625,0.01 -3.26891,-0.04508 -4.91016,-0.04883 z"
     style="baseline-shift:baseline;display:inline;overflow:visible;vector-effect:none;fill:#113847;fill-rule:evenodd;enable-background:accumulate;stop-color:#000000;stop-opacity:1"
     id="path75" />
  <path
     d="m 16.65625,20.310547 c -0.797449,0.01306 -1.628516,0.263672 -2.416016,0.779297 -2.65,2.07 -2.239375,6.510625 0.890625,7.890625 3.44,1.54 6.66,-2.321094 5.5,-5.621094 C 20.005234,21.4 18.410637,20.281812 16.65625,20.310547 Z"
     style="baseline-shift:baseline;display:inline;overflow:visible;vector-effect:none;fill:#175879;fill-rule:evenodd;enable-background:accumulate;stop-color:#000000;stop-opacity:1"
     id="path74" />
  <path
     d="m 22.533203,32.476562 c -5.8025,0.02375 -11.598125,2.148282 -15.7031249,6.363282 C 2.2600781,43.309844 0.36,49.249297 0,55.529297 v 1.089844 c 0.42,6.2 2.3708594,12.07 6.8808594,16.5 8.1399996,8.17 22.3685936,8.461797 30.8085936,0.591796 9.78,-8.899999 9.979844,-25.730234 0.589844,-34.990234 -4.135,-4.19 -9.943594,-6.267891 -15.746094,-6.244141 z m 0.203125,8.994141 c 3.348797,0.01488 6.637344,1.283047 8.933594,3.888672 5.08,5.45 5.079687,15.810703 -0.07031,21.220703 -4.01,4.4 -11.068984,5.049766 -15.958984,1.759766 -8.71,-6.05 -7.7699219,-22.249141 2.580078,-26.119141 1.459375,-0.503125 2.993445,-0.756763 4.515625,-0.75 z"
     style="baseline-shift:baseline;display:inline;overflow:visible;vector-effect:none;fill:#175879;fill-rule:evenodd;enable-background:accumulate;stop-color:#000000;stop-opacity:1"
     id="path73" />
  <path
     d="m 58.212891,33.195312 c -1.95961,0.0091 -3.917032,0.05883 -5.863282,0.205079 -0.27,15.03 0.07984,30.159218 -0.160156,45.199218 3.22,0.02 6.430391,0.02 9.650391,0 -0.09,-4.18 -0.08984,-8.349296 -0.08984,-12.529297 2.93,0.01 5.849297,0.0098 8.779297,0.0098 2.64,4.17 5.221094,8.379063 7.871094,12.539063 h 10.36914 c -3.09,-4.74 -6.058906,-9.548829 -9.128906,-14.298829 2.93,-2.169999 5.659297,-4.161171 7.029297,-7.701171 2.47,-6.27 1.509297,-14.869844 -3.970703,-19.339844 -4.21,-3.59 -9.379453,-4.058594 -14.689453,-4.058594 -3.25625,0.05625 -6.53086,-0.04062 -9.796875,-0.02539 z m 9.083984,8.566407 c 2.434131,-0.0053 4.866406,0.143359 7.003906,0.958984 5.58,2.54 5.35836,11.969922 -0.43164,14.169922 -3.76,1.2 -8.218672,0.579453 -12.138672,0.689453 0.04,-5.26 0.03953,-10.509531 0.01953,-15.769531 1.75875,0.0525 3.653662,-0.04474 5.546875,-0.04883 z"
     style="baseline-shift:baseline;display:inline;overflow:visible;vector-effect:none;fill:#175879;fill-rule:evenodd;enable-background:accumulate;stop-color:#000000;stop-opacity:1"
     id="path72" />
  <path
     d="m 115.70313,32.5 c -2.16733,-0.02544 -4.34727,0.23125 -6.4629,0.75 -5.94,1.56 -11.070777,5.710937 -13.800777,11.210937 -4.89,9.66 -3.070391,22.639532 5.349607,29.769532 7.22,6.18 18.29133,6.909453 26.36133,1.939453 13.53,-8.21 14.29961,-29.639688 1.84961,-39.179688 -3.8225,-3.01125 -8.52877,-4.434267 -13.29687,-4.490234 z m -0.20899,8.966797 c 3.16122,0.03825 6.29863,1.196484 8.53516,3.503906 5.6,5.78 5.60992,16.258516 -0.0801,21.978516 -3.98,4 -10.69844,4.57125 -15.39844,1.53125 -8.729999,-5.76 -8.07016,-21.810547 1.83985,-26.060547 1.41562,-0.575 2.93837,-0.891553 4.4707,-0.945313 0.21069,-0.0074 0.42206,-0.01036 0.63281,-0.0078 z"
     style="baseline-shift:baseline;display:inline;overflow:visible;vector-effect:none;fill:#175879;fill-rule:evenodd;enable-background:accumulate;stop-color:#000000;stop-opacity:1"
     id="path71" />
  <path
     d="m 152.83008,33.230469 c -2.64,0.01 -5.27016,0.0093 -7.91016,0.0293 0.11,15.11 0.13977,30.239609 0.01,45.349609 3,0.01 6,4.69e-4 9,-0.01953 -0.19,-8.91 -1.6e-4,-17.820235 -0.16016,-26.740235 4.12,7.32 8.08117,14.730782 12.20117,22.050782 L 170.32031,73.75 c 3.93,-7.46 7.96,-14.879063 12,-22.289063 0,9.050001 0.0505,18.098672 -0.0195,27.138672 3.01,0.02 6.02883,0.01953 9.04883,0.01953 -0.05,-15.13 -0.0896,-30.258907 -0.0996,-45.378907 -2.63,0 -5.26086,-2.34e-4 -7.88086,0.0098 -5.1,9.38 -10.10922,18.809453 -15.19922,28.189453 -4.97,-9.48 -10.22984,-18.808984 -15.33984,-28.208984 z"
     style="baseline-shift:baseline;display:inline;overflow:visible;vector-effect:none;fill:#175879;fill-rule:evenodd;enable-background:accumulate;stop-color:#000000;stop-opacity:1"
     id="path70" />
  <path
     d="m 274.20508,33.259766 c -5.195,0.0025 -10.39094,0.0098 -15.58594,0.0098 0.04,15.12 0.04,30.251094 0,45.371094 3.24,0.01 6.48047,0.0098 9.73047,0.0098 -0.04,-5.5 -0.0105,-11 -0.0605,-16.5 6.32,-0.02 12.65071,-0.0098 18.97071,-0.0098 0,-2.82 0.01,-5.640703 0.0195,-8.470703 -6.34,0.01 -12.66977,0.02 -19.00977,0 0.06,-3.98 0.0698,-7.949688 0.01,-11.929688 7.17,-0.01 14.33976,0.02047 21.50976,-0.01953 -0.03,-2.82 -0.03,-5.621406 0,-8.441406 -5.195,-0.02 -10.38898,-0.02203 -15.58398,-0.01953 z"
     style="baseline-shift:baseline;display:inline;overflow:visible;vector-effect:none;fill:#113847;fill-rule:evenodd;enable-background:accumulate;stop-color:#000000;stop-opacity:1"
     id="path69" />
  <path
     d="m 295.85937,33.259766 c 0.04,8.58 -0.0485,17.169765 0.0215,25.759765 0.14,5.79 1.24,11.37961 5.5,15.59961 7.85,7.67 24.13976,6.34 29.25976,-4 2.26,-4.3 2.52907,-8.849141 2.53907,-13.619141 -0.03,-7.91 -0.0298,-15.820234 -0.01,-23.740234 -3.16,0 -6.33023,-2.35e-4 -9.49023,0.0098 0.04,8.25 0.021,16.509532 0.041,24.769531 -0.02,3.68 -0.32976,7.821172 -3.25976,10.451172 -3.02,2.54 -8.08102,2.599141 -11.29102,0.369141 -3.03,-2.24 -3.65047,-6.288594 -3.73047,-9.808594 -0.02,-8.58 -0.009,-17.181719 0.041,-25.761719 -3.2,-0.03 -6.4111,-0.0293 -9.6211,-0.0293 z"
     style="baseline-shift:baseline;display:inline;overflow:visible;vector-effect:none;fill:#113847;fill-rule:evenodd;enable-background:accumulate;stop-color:#000000;stop-opacity:1"
     id="path68" />
  <path
     d="m 350.7168,33.232422 c -4.47358,0.0025 -8.94375,0.04273 -13.40625,0.177734 -0.21,2.79 -0.0913,5.610157 -0.11133,8.410156 4.37,0.03 8.75086,0.0193 13.13086,0.0293 -0.05,12.26 0.0697,24.52125 -0.0703,36.78125 3.22,0.02 6.44015,0.01828 9.66015,-0.01172 -0.17,-12.26 -0.0301,-24.519297 -0.0801,-36.779297 4.41,0 8.83024,0.01023 13.24024,-0.0098 v -8.550781 c -7.44375,0.05 -14.90733,-0.05098 -22.36328,-0.04687 z"
     style="baseline-shift:baseline;display:inline;overflow:visible;vector-effect:none;fill:#113847;fill-rule:evenodd;enable-background:accumulate;stop-color:#000000;stop-opacity:1"
     id="path67" />
  <path
     d="m 393.75195,33.224609 c -1.5425,-0.0038 -3.08156,0.03508 -4.60156,0.205078 -0.65,0.98 -1.11031,2.060626 -1.57031,3.140625 -5.63,14.05 -11.28953,28.08961 -17.01953,42.09961 3.3,-0.02 6.59867,-0.02055 9.88867,-0.06055 1.2,-3.25 2.42062,-6.500234 3.64062,-9.740234 6.31,0 12.62946,2.34e-4 18.93946,-0.0098 1.25,3.26 2.47093,6.53125 3.71093,9.78125 3.38,0.01 6.75891,0.0098 10.12891,0.0098 -6.33,-15.05 -12.31,-30.261094 -18.5,-45.371094 -1.53,-0.005 -3.07469,-0.05094 -4.61719,-0.05469 z m -0.0918,10.455078 c 2.08,5.75 4.1907,11.480391 6.4707,17.150391 -4.36,0.05 -8.7318,0.03906 -13.0918,0.03906 1.9,-4.74 3.63047,-9.539063 5.48047,-14.289063 0.38,-0.97 0.76063,-1.94039 1.14063,-2.900391 z"
     style="baseline-shift:baseline;display:inline;overflow:visible;vector-effect:none;fill:#113847;fill-rule:evenodd;enable-background:accumulate;stop-color:#000000;stop-opacity:1"
     id="path66" />
  <path
     d="m 435.8125,32.539062 c -4.70082,-0.01374 -9.47445,0.957735 -13.0332,4.240235 -5.38,4.67 -5.98008,14.98125 0.16992,19.28125 5.33,4.09 12.68047,3.769765 17.98047,7.009765 2.95,2.17 1.50984,6.19875 -1.66016,7.21875 -6.67,1.860001 -12.7689,-0.369218 -18.37891,-3.949218 -1.06,2.7 -2.15,5.380547 -3.25,8.060547 7.2,4.54 15.85016,6.438828 24.16016,4.048828 4.56,-1.38 8.40969,-4.688672 9.67969,-9.388672 0.95,-4.49 0.58016,-9.280703 -3.08985,-12.470703 -5.07,-4.45 -13.61132,-4.288907 -18.61132,-7.378907 -2.9,-1.829999 -1.88993,-6.130546 1.08007,-7.310546 5.56001,-2.44 11.47977,-0.04 16.50977,2.5 0.94,-2.7 1.94047,-5.381016 2.98047,-8.041016 -3.6,-1.83 -7.23055,-3.359922 -11.31055,-3.669922 -1.06125,-0.09188 -2.14176,-0.147219 -3.22656,-0.150391 z"
     style="baseline-shift:baseline;display:inline;overflow:visible;vector-effect:none;fill:#113847;fill-rule:evenodd;enable-background:accumulate;stop-color:#000000;stop-opacity:1"
     id="path65" />
  <path
     d="m 168.78906,91.289062 c -5.87297,2.972433 -7.26984,3.323179 -6.42969,5.400391 2.33001,-0.71 4.60149,-1.548672 6.77149,-2.638672 -0.08,-0.93 -0.1918,-1.851719 -0.3418,-2.761719 z"
     style="baseline-shift:baseline;display:inline;overflow:visible;vector-effect:none;fill-rule:evenodd;enable-background:accumulate;stop-color:#000000;stop-opacity:1"
     id="path60" />
  <path
     d="m 70.589844,97.689453 -3.720703,0.06055 -0.449219,0.0098 c -2.05,5.890004 -4.099141,11.789604 -6.369141,17.599614 1.26,0.01 2.509766,0.031 3.759766,0.041 0.44,-1.11 0.890078,-2.22008 1.330078,-3.33008 2.28,0 4.560078,0.01 6.830078,0.01 0.43,1.11 0.859063,2.21984 1.289063,3.33984 1.26,-0.03 2.509765,-0.0501 3.759765,-0.0801 -2.32,-5.82 -4.259687,-11.77039 -6.429687,-17.650387 z m -2.039063,4.470707 c 0.93,2.3 1.709063,4.66976 2.539063,7.00976 -1.71,-0.01 -3.430391,-0.01 -5.150391,0 0.86,-2.34 1.661328,-4.70976 2.611328,-7.00976 z"
     style="baseline-shift:baseline;display:inline;overflow:visible;vector-effect:none;fill-rule:evenodd;enable-background:accumulate;stop-color:#000000;stop-opacity:1"
     id="path59" />
  <path
     d="m 89.240234,97.710937 c 0.08,5.890003 0.09023,11.778203 -0.0098,17.658203 1.21,0 2.428672,2.3e-4 3.638672,-0.01 -0.06,-2.50001 -0.08938,-5.00954 -0.109375,-7.51954 h 7.650394 c -0.02,2.51 -0.0499,5.03102 -0.0898,7.54102 1.21,-0.01 2.41891,-0.0115 3.62891,-0.0215 -0.13,-5.88001 -0.10977,-11.75868 -0.01,-17.638677 -1.2,-0.01 -2.40937,-0.0098 -3.60937,-0.0098 0.04,2.460003 0.0603,4.918903 0.0703,7.378903 -2.549999,-0.01 -5.090859,-0.0193 -7.630859,-0.0293 0.01,-2.45 0.04008,-4.88985 0.08008,-7.339847 z"
     style="baseline-shift:baseline;display:inline;overflow:visible;vector-effect:none;fill-rule:evenodd;enable-background:accumulate;stop-color:#000000;stop-opacity:1"
     id="path58" />
  <path
     d="m 130.25977,97.707031 c -2.1675,0 -4.335,0.0039 -6.5,0.0039 l 0.01,2.939453 h 4.76953 c -0.07,4.91 -0.01,9.82047 -0.0898,14.73047 h 3.64062 c -0.02,-4.9 0.0197,-9.80117 -0.0703,-14.70117 1.59,-0.03 3.16977,-0.0501 4.75977,-0.0801 l -0.0195,-2.878907 c -2.165,-0.01 -4.3325,-0.01367 -6.5,-0.01367 z"
     style="baseline-shift:baseline;display:inline;overflow:visible;vector-effect:none;fill-rule:evenodd;enable-background:accumulate;stop-color:#000000;stop-opacity:1"
     id="path57" />
  <path
     d="m 139.80078,97.650391 c 2.32,5.829999 4.37977,11.769689 6.50977,17.679689 1.46,0.03 2.90937,0.0501 4.35937,0.0801 2.2,-5.91 4.25985,-11.88 6.58985,-17.750004 L 153.33008,97.75 c -1.59,4.62 -3.16,9.24914 -4.75,13.86914 -1.65,-4.6 -3.23055,-9.22937 -4.81055,-13.859374 -1.32,-0.04 -2.64875,-0.07937 -3.96875,-0.109375 z"
     style="baseline-shift:baseline;display:inline;overflow:visible;vector-effect:none;fill-rule:evenodd;enable-background:accumulate;stop-color:#000000;stop-opacity:1"
     id="path56" />
  <path
     d="m 171.56055,97.689453 c -3.44,0.02 -6.88008,0.100078 -10.33008,0.08008 0.1,5.859999 0.1,11.739609 0,17.599609 3.45,0.02 6.88984,0.02 10.33984,0 v -2.91992 c -2.27,-0.01 -4.54078,-0.01 -6.80078,-0.01 0,-1.55 0.01,-3.08867 0.01,-4.63867 2.01,-0.01 4.02125,-0.0306 6.03125,-0.0606 0,-0.86 -0.01,-1.72007 -0.01,-2.58007 -2,-0.04 -4.01172,-0.0603 -6.01172,-0.0703 l -0.0293,-4.43945 c 2.27,0 4.54054,-0.01 6.81054,-0.0195 0,-0.980001 -0.01,-1.961407 -0.01,-2.941407 z"
     style="baseline-shift:baseline;display:inline;overflow:visible;vector-effect:none;fill-rule:evenodd;enable-background:accumulate;stop-color:#000000;stop-opacity:1"
     id="path55" />
  <path
     d="m 184.75,97.486328 c -3.91368,0.04141 -7.625,2.435547 -8.60938,6.513672 -1.69,5.93 2.63891,11.79883 8.87891,11.54883 5.69,-0.2 8.64953,-4.55922 8.76953,-9.94922 -3.34,-0.08 -6.68929,-0.0801 -10.02929,-0.0801 l -0.01,2.7793 c 2.26,0.0503 4.56055,-0.14391 6.81055,-0.004 -0.97374,2.15 -3.14443,4.57461 -6.6211,3.97461 -5.63,-0.74 -6.04008,-9.64976 -0.83008,-11.25976 1.94044,-0.61388 3.72022,-0.26399 5.0586,0.66796 0.82476,0.57431 0.73723,0.9961 1.36133,1.40235 1.33,0.03 2.66047,0.0408 3.98047,0.0508 -0.67188,-1.48125 -2.63034,-4.137907 -5.48047,-5.111329 -1.07188,-0.371875 -2.18347,-0.544798 -3.2793,-0.533203 z"
     style="baseline-shift:baseline;display:inline;overflow:visible;vector-effect:none;fill-rule:evenodd;enable-background:accumulate;stop-color:#000000;stop-opacity:1"
     id="path54" />
  <path
     d="m 199.92578,97.710937 c -0.6025,0.0012 -1.20664,0.0048 -1.80664,0.0098 0.1,5.879997 0.11023,11.758677 -0.01,17.638677 1.21,0.01 2.42086,0.0115 3.63086,0.0215 -0.1,-5.89 -0.0898,-11.77992 -0.01,-17.669923 -0.6,0 -1.20219,-0.0012 -1.80469,0 z"
     style="baseline-shift:baseline;display:inline;overflow:visible;vector-effect:none;fill-rule:evenodd;enable-background:accumulate;stop-color:#000000;stop-opacity:1"
     id="path53" />
  <path
     d="m 240.2793,97.703125 c -1.72,0.0012 -3.44016,0.0076 -5.16016,0.01758 0.1,5.879997 0.11023,11.758437 -0.01,17.648437 3.44,0.02 6.89008,0.0217 10.33008,0.0117 v -2.93164 c -2.27,-0.01 -4.52882,-0.01 -6.79883,-0.01 0.01,-1.55 0.0193,-3.09867 0.0293,-4.63867 2,-0.01 3.99024,-0.021 5.99024,-0.041 0,-0.87 -2.4e-4,-1.73938 0.01,-2.60938 -2,-0.03 -3.99047,-0.0506 -5.98047,-0.0606 -0.02,-1.48 -0.0388,-2.95945 -0.0488,-4.43945 2.26,0 4.52907,2.3e-4 6.78907,-0.01 0,-0.980005 -2.4e-4,-1.959692 0.01,-2.929693 -1.72,-0.005 -3.44015,-0.0091 -5.16015,-0.0078 z"
     style="baseline-shift:baseline;display:inline;overflow:visible;vector-effect:none;fill-rule:evenodd;enable-background:accumulate;stop-color:#000000;stop-opacity:1"
     id="path52" />
  <path
     d="m 255.14258,97.667969 c -1.5999,-0.0098 -3.18828,0.06648 -4.61328,0.02148 0.04,5.899997 0.0502,11.801177 -0.01,17.701177 3.85,-0.15001 8.86961,0.72929 12.09961,-1.72071 4.64,-3.38 4.55992,-10.93929 -0.0801,-14.279295 -2.03125,-1.45 -4.72998,-1.70625 -7.39648,-1.722656 z m 0.45117,3.050781 c 1.37203,-0.005 2.79836,0.10711 4.00586,0.66211 3.53,1.84 3.84117,7.57969 0.70117,9.92969 -1.66,1.13 -4.22016,0.94945 -6.16016,1.18945 0.06,-3.91 -0.15062,-7.85 0.10938,-11.75 0.435,-0.015 0.88641,-0.0297 1.34375,-0.0312 z"
     style="baseline-shift:baseline;display:inline;overflow:visible;vector-effect:none;fill-rule:evenodd;enable-background:accumulate;stop-color:#000000;stop-opacity:1"
     id="path51" />
  <path
     d="m 276.46875,97.701172 c -2.11125,-0.0037 -4.22289,0.0095 -6.33789,0.01953 0.02,1.01 0.0291,2.009531 0.0391,3.019527 2.68,0.02 5.36102,0.02 8.04102,0 -2.97,4.67 -6.93094,9.2593 -8.71094,14.5293 4.28,0.16 8.55984,0.12133 12.83984,0.11133 -0.01,-1.01 -0.01,-2.02125 -0.0195,-3.03125 -2.67,0 -5.33953,0.021 -8.01953,0.041 2.94,-4.6 7.2,-9.26133 8.5,-14.611333 -2.11,-0.055 -4.22078,-0.07438 -6.33203,-0.07813 z"
     style="baseline-shift:baseline;display:inline;overflow:visible;vector-effect:none;fill-rule:evenodd;enable-background:accumulate;stop-color:#000000;stop-opacity:1"
     id="path50" />
  <path
     d="m 308.32422,97.455078 c -3.56305,-0.05398 -6.86133,2.404688 -6.06445,6.304692 0.74,3.42 5.31109,3.58015 7.87109,5.16015 1.95,0.63 1.33008,2.86086 -0.16992,3.38086 -2.37,1.2 -3.1493,-0.70703 -4.7793,-1.95703 -1.22,0.11995 -2.3425,0.11805 -3.5625,0.24805 1.31397,2.38483 2.76156,4.88726 6.35156,4.94726 3.87,0.46 7.63985,-2.19867 6.83985,-6.38867 -0.54743,-3.69726 -5.90821,-4.0592 -8.42578,-5.79492 -0.29895,-0.20611 -0.82833,-0.59354 -0.76563,-1.50781 2.20788,-3.048397 5.58794,-0.86015 5.97656,0.34179 l 3.27344,0.0332 c -1.66,-2.780004 -2.23008,-4.63266 -5.83008,-4.72266 -0.23875,-0.02625 -0.4773,-0.04132 -0.71484,-0.04492 z"
     style="baseline-shift:baseline;display:inline;overflow:visible;vector-effect:none;fill-rule:evenodd;enable-background:accumulate;stop-color:#000000;stop-opacity:1"
     id="path49" />
  <path
     d="m 325.16211,97.703125 c -1.71125,0 -3.42281,0.0028 -5.13281,0.0078 0.08,5.890003 0.07,11.778203 0,17.658203 3.42,0.02 6.85148,0.0217 10.27148,0.0117 v -2.94141 h -6.79101 c 0.02,-1.55 0.031,-3.10039 0.041,-4.65039 1.99,0 3.97875,2.4e-4 5.96875,-0.01 0,-0.88 0.01,-1.76844 0.01,-2.64844 -1.99,-0.02 -3.96899,-0.0212 -5.95899,-0.0312 -0.02,-1.48 -0.0405,-2.96922 -0.0605,-4.44922 2.26,0 4.51929,2.3e-4 6.77929,-0.01 0,-0.980005 0.0117,-1.949692 0.0117,-2.929693 -1.715,-0.005 -3.42742,-0.0078 -5.13867,-0.0078 z"
     style="baseline-shift:baseline;display:inline;overflow:visible;vector-effect:none;fill-rule:evenodd;enable-background:accumulate;stop-color:#000000;stop-opacity:1"
     id="path48" />
  <path
     d="m 339.75586,97.667969 c -1.5174,-0.0015 -3.02172,0.06273 -4.38672,0.02148 0.06,5.899997 0.0702,11.801177 -0.01,17.701177 3.57001,-0.14 8.35,0.62968 11.5,-1.32032 5.31001,-2.92 5.26977,-12.07125 0.01,-15.031248 -2.01875,-1.181249 -4.58428,-1.368554 -7.11328,-1.371093 z m -0.85547,2.902341 c 1.84,0.2 3.90867,0.16938 5.63867,0.85938 3,1.59 3.40141,6.17101 1.69141,8.79101 -1.69,2.39 -4.76985,1.95907 -7.33985,2.28907 0,-3.98 -2.3e-4,-7.95946 0.01,-11.93946 z"
     style="baseline-shift:baseline;display:inline;overflow:visible;vector-effect:none;fill-rule:evenodd;enable-background:accumulate;stop-color:#000000;stop-opacity:1"
     id="path47" />
  <path
     d="m 117.01758,91.251953 c -5.87297,2.97243 -7.26984,3.323181 -6.42969,5.400391 2.33,-0.71 4.59953,-1.550625 6.76953,-2.640625 -0.08,-0.93 -0.18984,-1.849766 -0.33984,-2.759766 z"
     style="baseline-shift:baseline;display:inline;overflow:visible;vector-effect:none;fill-rule:evenodd;enable-background:accumulate;stop-color:#000000;stop-opacity:1"
     id="path43" />
  <path
     d="m 119.78711,97.652344 c -3.44,0.02 -6.88008,0.100078 -10.33008,0.08008 0.1,5.859998 0.1,11.739608 0,17.599608 3.45,0.02 6.88985,0.02 10.33985,0 v -2.91992 c -2.27,-0.01 -4.54079,-0.01 -6.80079,-0.01 0,-1.55 0.0117,-3.09062 0.0117,-4.64062 2.01,-0.01 4.0193,-0.0305 6.0293,-0.0605 0,-0.86 -0.01,-1.72008 -0.01,-2.58008 -2,-0.04 -4.00976,-0.0584 -6.00976,-0.0684 l -0.0312,-4.4414 c 2.27,0 4.54055,-0.01 6.81055,-0.0195 -1e-5,-0.980003 -0.01,-1.959456 -0.01,-2.939456 z"
     style="baseline-shift:baseline;display:inline;overflow:visible;vector-effect:none;fill-rule:evenodd;enable-background:accumulate;stop-color:#000000;stop-opacity:1"
     id="path42" />
  <path
     d="m 295.15234,91.300781 c -5.87297,2.97243 -7.27179,3.323181 -6.43164,5.400391 2.33,-0.71 4.60149,-1.550625 6.77149,-2.640625 -0.08,-0.93 -0.18985,-1.849766 -0.33985,-2.759766 z"
     style="baseline-shift:baseline;display:inline;overflow:visible;vector-effect:none;fill-rule:evenodd;enable-background:accumulate;stop-color:#000000;stop-opacity:1"
     id="path41" />
  <path
     d="m 297.92187,97.701172 c -3.44,0.02 -6.88007,0.100078 -10.33007,0.08008 0.1,5.86 0.1,11.73961 0,17.59961 3.45,0.02 6.88984,0.02 10.33984,0 v -2.91992 c -2.27,-0.01 -4.54078,-0.01 -6.80078,-0.01 0,-1.55 0.01,-3.09062 0.01,-4.64062 2.01,-0.01 4.02125,-0.0306 6.03125,-0.0606 0,-0.86 -0.01,-1.72008 -0.01,-2.58008 -2,-0.04 -4.00977,-0.0603 -6.00977,-0.0703 l -0.0312,-4.43945 c 2.27,0 4.54055,-0.01 6.81055,-0.0195 0,-0.980009 -0.01,-1.959458 -0.01,-2.939458 z"
     style="baseline-shift:baseline;display:inline;overflow:visible;vector-effect:none;fill-rule:evenodd;enable-background:accumulate;stop-color:#000000;stop-opacity:1"
     id="path40" />
</svg>
