<?xml version="1.0" encoding="UTF-8" standalone="no"?>
<!DOCTYPE svg PUBLIC "-//W3C//DTD SVG 1.1//EN" "http://www.w3.org/Graphics/SVG/1.1/DTD/svg11.dtd">
<svg xmlns="http://www.w3.org/2000/svg" version="1.1" viewBox="0 0 452 116" xmlns:xlink="http://www.w3.org/1999/xlink">
<defs>
<path d="M 0.00 0.00 L 452.00 0.00 L 452.00 116.00 L 0.00 116.00 L 0.00 56.62 C 0.42 62.82 2.37 68.69 6.88 73.12 C 15.02 81.29 29.25 81.58 37.69 73.71 C 47.47 64.81 47.67 47.98 38.28 38.72 C 30.01 30.34 15.04 30.41 6.83 38.84 C 2.26 43.31 0.36 49.25 0.00 55.53 L 0.00 0.00 Z M 195.62 0.04 C 195.33 10.51 196.36 20.93 202.02 29.99 C 204.02 33.36 206.88 35.78 209.85 38.25 C 212.52 40.25 213.26 43.97 213.94 47.06 C 215.22 53.41 214.34 59.56 212.86 65.77 C 209.11 82.94 213.25 100.68 221.65 115.83 C 221.90 103.65 219.39 89.45 221.55 77.18 C 221.90 74.76 223.48 73.39 224.97 71.60 C 226.88 75.08 227.82 78.95 229.55 82.49 C 230.51 84.36 232.74 85.88 234.86 84.90 C 237.77 83.62 238.39 79.83 238.50 77.02 C 238.54 69.41 236.20 61.50 233.63 54.40 C 232.20 50.54 232.57 46.19 234.79 42.72 C 236.83 40.49 239.77 39.08 242.06 37.10 C 250.29 30.24 256.42 20.61 259.97 10.55 C 252.94 17.44 246.69 24.85 238.05 30.08 C 233.67 32.63 228.87 34.39 223.73 33.35 C 216.54 31.91 211.08 26.88 206.75 21.24 C 201.78 14.77 198.73 7.51 195.62 0.04 Z M 221.23 6.26 C 214.87 9.11 212.90 17.54 216.77 23.21 C 219.55 27.71 225.67 29.15 230.06 26.08 C 235.38 22.43 236.35 14.55 232.49 9.48 C 229.92 6.01 225.27 4.41 221.23 6.26 Z M 27.45 20.46 C 23.88 21.35 23.41 26.80 26.41 28.65 C 29.12 30.58 32.77 28.11 32.75 25.00 C 32.93 22.05 30.38 19.70 27.45 20.46 Z M 108.40 20.42 C 104.67 21.30 104.02 26.87 107.33 28.69 C 110.03 30.56 113.55 28.08 113.51 25.02 C 113.68 21.99 111.39 19.84 108.40 20.42 Z M 119.52 20.65 C 116.46 22.31 116.19 26.99 119.29 28.74 C 122.46 30.74 126.07 27.39 125.35 23.98 C 124.99 21.11 122.15 19.63 119.52 20.65 Z M 388.18 29.60 C 390.61 29.63 393.04 29.62 395.47 29.63 C 399.04 26.52 402.62 23.43 406.18 20.31 C 402.93 20.33 399.60 20.09 396.38 20.52 C 393.34 23.18 390.93 26.63 388.18 29.60 Z M 14.24 21.09 C 11.59 23.16 12.00 27.60 15.13 28.98 C 18.57 30.52 21.79 26.66 20.63 23.36 C 19.72 20.51 16.76 19.44 14.24 21.09 Z M 52.19 78.60 C 55.41 78.62 58.62 78.62 61.84 78.60 C 61.75 74.42 61.75 70.25 61.75 66.07 C 64.68 66.08 67.60 66.08 70.53 66.08 C 73.17 70.25 75.75 74.46 78.40 78.62 C 81.86 78.62 85.31 78.62 88.77 78.62 C 85.68 73.88 82.71 69.07 79.64 64.32 C 82.57 62.15 85.30 60.16 86.67 56.62 C 89.14 50.35 88.18 41.75 82.70 37.28 C 78.49 33.69 73.32 33.22 68.01 33.22 C 62.80 33.31 57.54 33.01 52.35 33.40 C 52.08 48.43 52.43 63.56 52.19 78.60 Z M 109.24 33.25 C 103.30 34.81 98.17 38.96 95.44 44.46 C 90.55 54.12 92.37 67.10 100.79 74.23 C 108.01 80.41 119.08 81.14 127.15 76.17 C 140.68 67.96 141.45 46.53 129.00 36.99 C 123.44 32.61 116.01 31.59 109.24 33.25 Z M 144.92 33.26 C 145.03 48.37 145.06 63.50 144.93 78.61 C 147.93 78.62 150.93 78.61 153.93 78.59 C 153.74 69.68 153.93 60.77 153.77 51.85 C 157.89 59.17 161.85 66.58 165.97 73.90 C 167.42 73.85 168.87 73.80 170.32 73.75 C 174.25 66.29 178.28 58.87 182.32 51.46 C 182.32 60.51 182.37 69.56 182.30 78.60 C 185.31 78.62 188.33 78.62 191.35 78.62 C 191.30 63.49 191.26 48.36 191.25 33.24 C 188.62 33.24 185.99 33.24 183.37 33.25 C 178.27 42.63 173.26 52.06 168.17 61.44 C 163.20 51.96 157.94 42.63 152.83 33.23 C 150.19 33.24 147.56 33.24 144.92 33.26 Z M 258.62 33.27 C 258.66 48.39 258.66 63.52 258.62 78.64 C 261.86 78.65 265.10 78.65 268.35 78.65 C 268.31 73.15 268.34 67.65 268.29 62.15 C 274.61 62.13 280.94 62.14 287.26 62.14 C 287.26 59.32 287.27 56.50 287.28 53.67 C 280.94 53.68 274.61 53.69 268.27 53.67 C 268.33 49.69 268.34 45.72 268.28 41.74 C 275.45 41.73 282.62 41.76 289.79 41.72 C 289.76 38.90 289.76 36.10 289.79 33.28 C 279.40 33.24 269.01 33.27 258.62 33.27 Z M 295.86 33.26 C 295.90 41.84 295.81 50.43 295.88 59.02 C 296.02 64.81 297.12 70.40 301.38 74.62 C 309.23 82.29 325.52 80.96 330.64 70.62 C 332.90 66.32 333.17 61.77 333.18 57.00 C 333.15 49.09 333.15 41.18 333.17 33.26 C 330.01 33.26 326.84 33.26 323.68 33.27 C 323.72 41.52 323.70 49.78 323.72 58.04 C 323.70 61.72 323.39 65.86 320.46 68.49 C 317.44 71.03 312.38 71.09 309.17 68.86 C 306.14 66.62 305.52 62.57 305.44 59.05 C 305.42 50.47 305.43 41.87 305.48 33.29 C 302.28 33.26 299.07 33.26 295.86 33.26 Z M 337.20 41.82 C 341.57 41.85 345.95 41.84 350.33 41.85 C 350.28 54.11 350.40 66.37 350.26 78.63 C 353.48 78.65 356.70 78.65 359.92 78.62 C 359.75 66.36 359.89 54.10 359.84 41.84 C 364.25 41.84 368.67 41.85 373.08 41.83 C 373.08 38.98 373.08 36.13 373.08 33.28 C 361.17 33.36 349.21 33.05 337.31 33.41 C 337.10 36.20 337.22 39.02 337.20 41.82 Z M 370.56 78.67 C 373.86 78.65 377.16 78.65 380.45 78.61 C 381.65 75.36 382.87 72.11 384.09 68.87 C 390.40 68.87 396.72 68.87 403.03 68.86 C 404.28 72.12 405.50 75.39 406.74 78.64 C 410.12 78.65 413.50 78.65 416.87 78.65 C 410.54 63.60 404.56 48.39 398.37 33.28 C 395.31 33.27 392.19 33.09 389.15 33.43 C 388.50 34.41 388.04 35.49 387.58 36.57 C 381.95 50.62 376.29 64.66 370.56 78.67 Z M 420.89 66.34 C 419.83 69.04 418.74 71.72 417.64 74.40 C 424.84 78.94 433.49 80.84 441.80 78.45 C 446.36 77.07 450.21 73.76 451.48 69.06 C 452.43 64.57 452.06 59.78 448.39 56.59 C 443.32 52.14 434.78 52.30 429.78 49.21 C 426.88 47.38 427.89 43.08 430.86 41.90 C 436.42 39.46 442.34 41.86 447.37 44.40 C 448.31 41.70 449.31 39.02 450.35 36.36 C 446.75 34.53 443.12 33.00 439.04 32.69 C 433.38 32.20 427.16 32.74 422.78 36.78 C 417.40 41.45 416.80 51.76 422.95 56.06 C 428.28 60.15 435.63 59.83 440.93 63.07 C 443.88 65.24 442.44 69.27 439.27 70.29 C 432.60 72.15 426.50 69.92 420.89 66.34 Z M 111.18 94.74 C 111.05 95.61 110.90 96.47 110.73 97.33 C 110.09 97.91 109.65 98.51 109.42 99.12 C 109.12 104.52 109.46 109.96 109.26 115.37 C 112.70 115.39 116.13 115.39 119.57 115.37 L 119.57 112.45 C 117.34 112.44 115.11 112.44 112.88 112.43 C 112.88 110.89 112.89 109.35 112.89 107.81 C 114.91 107.79 116.92 107.77 118.94 107.73 C 118.93 106.88 118.93 106.02 118.92 105.17 C 116.91 105.13 114.90 105.10 112.89 105.08 C 112.89 103.61 112.89 102.13 112.88 100.65 C 115.11 100.65 117.34 100.64 119.57 100.63 C 119.57 99.65 119.56 98.67 119.56 97.69 C 117.62 97.72 115.67 97.75 113.73 97.78 C 112.32 95.36 115.67 95.02 117.07 93.95 C 117.12 92.99 117.16 92.04 117.21 91.08 C 115.11 92.18 113.05 93.29 111.18 94.74 Z M 162.36 96.69 C 164.69 95.98 166.96 95.14 169.13 94.05 C 169.05 93.12 168.94 92.20 168.79 91.29 C 166.01 92.68 163.39 93.39 162.36 96.69 Z M 288.33 94.95 L 289.99 96.15 C 289.04 96.87 288.10 97.59 287.13 98.29 C 287.21 103.98 287.23 109.67 287.11 115.37 C 290.55 115.39 294.00 115.39 297.44 115.38 C 297.44 114.40 297.44 113.42 297.44 112.45 C 295.17 112.44 292.91 112.44 290.64 112.44 C 290.65 110.89 290.66 109.35 290.67 107.80 C 292.70 107.79 294.74 107.78 296.77 107.75 C 296.77 106.88 296.77 106.02 296.77 105.15 C 294.74 105.12 292.71 105.10 290.69 105.09 C 290.67 103.61 290.65 102.13 290.64 100.65 C 292.90 100.65 295.17 100.65 297.43 100.64 C 297.43 99.66 297.43 98.68 297.43 97.70 C 294.55 97.72 291.68 97.75 288.80 97.75 C 290.65 95.98 292.91 95.06 295.10 93.82 C 295.03 92.95 294.92 92.10 294.78 91.25 C 292.53 92.31 290.42 93.60 288.33 94.95 Z M 66.42 97.76 C 64.37 103.65 62.32 109.55 60.05 115.36 C 61.31 115.37 62.56 115.39 63.81 115.40 C 64.25 114.29 64.70 113.18 65.14 112.07 C 67.42 112.07 69.70 112.08 71.97 112.08 C 72.40 113.19 72.83 114.30 73.26 115.42 C 74.52 115.39 75.77 115.37 77.02 115.34 C 74.70 109.52 72.76 103.57 70.59 97.69 C 69.35 97.71 68.11 97.73 66.87 97.75 L 66.42 97.76 Z M 89.24 97.71 C 89.32 103.60 89.33 109.49 89.23 115.37 C 90.44 115.37 91.66 115.37 92.87 115.36 C 92.81 112.86 92.78 110.35 92.76 107.84 C 95.31 107.84 97.86 107.84 100.41 107.84 C 100.39 110.35 100.36 112.87 100.32 115.38 C 101.53 115.37 102.74 115.37 103.95 115.36 C 103.82 109.48 103.84 103.60 103.94 97.72 C 102.74 97.71 101.53 97.71 100.33 97.71 C 100.37 100.17 100.39 102.63 100.40 105.09 C 97.85 105.08 95.31 105.07 92.77 105.06 C 92.78 102.61 92.81 100.17 92.85 97.72 L 89.24 97.71 Z M 123.76 97.71 L 123.77 100.65 C 125.36 100.65 126.95 100.65 128.54 100.65 C 128.47 105.56 128.53 110.47 128.45 115.38 C 129.66 115.38 130.87 115.38 132.09 115.38 C 132.07 110.48 132.11 105.58 132.02 100.68 C 133.61 100.65 135.19 100.63 136.78 100.60 L 136.76 97.72 C 132.43 97.70 128.09 97.71 123.76 97.71 Z M 139.80 97.65 C 142.12 103.48 144.18 109.42 146.31 115.33 C 147.77 115.36 149.22 115.38 150.67 115.41 C 152.87 109.50 154.93 103.53 157.26 97.66 C 155.95 97.69 154.64 97.72 153.33 97.75 C 151.74 102.37 150.17 107.00 148.58 111.62 C 146.93 107.02 145.35 102.39 143.77 97.76 C 142.45 97.72 141.12 97.68 139.80 97.65 Z M 161.23 97.77 C 161.33 103.63 161.33 109.51 161.23 115.37 C 164.68 115.39 168.12 115.39 171.57 115.37 L 171.57 112.45 C 169.30 112.44 167.03 112.44 164.77 112.44 C 164.77 110.89 164.78 109.35 164.78 107.80 C 166.79 107.79 168.80 107.77 170.81 107.74 C 170.81 106.88 170.80 106.02 170.80 105.16 C 168.80 105.12 166.79 105.10 164.79 105.09 C 164.78 103.61 164.77 102.13 164.76 100.65 C 167.03 100.65 169.30 100.64 171.57 100.63 C 171.57 99.65 171.56 98.67 171.56 97.69 C 168.12 97.71 164.68 97.79 161.23 97.77 Z M 193.79 105.60 C 190.45 105.52 187.10 105.52 183.76 105.52 L 183.75 108.30 C 186.01 108.35 188.26 108.41 190.51 108.55 C 188.51 110.70 187.36 112.87 183.94 112.27 C 178.31 111.53 177.90 102.62 183.11 101.01 C 185.86 100.14 187.41 101.70 189.53 103.08 C 190.86 103.11 192.19 103.12 193.51 103.13 C 191.88 101.01 190.74 98.90 188.03 98.02 C 183.13 96.32 177.40 98.78 176.14 104.00 C 174.45 109.93 178.78 115.80 185.02 115.55 C 190.71 115.35 193.67 110.99 193.79 105.60 Z M 198.12 97.72 C 198.22 103.60 198.23 109.48 198.11 115.36 C 199.32 115.37 200.53 115.37 201.74 115.38 C 201.64 109.49 201.65 103.60 201.73 97.71 C 200.53 97.71 199.32 97.71 198.12 97.72 Z M 235.12 97.72 C 235.22 103.60 235.23 109.48 235.11 115.37 C 238.55 115.39 242.00 115.39 245.44 115.38 C 245.44 114.40 245.44 113.42 245.44 112.45 C 243.17 112.44 240.91 112.44 238.64 112.44 C 238.65 110.89 238.66 109.34 238.67 107.80 C 240.67 107.79 242.66 107.78 244.66 107.76 C 244.66 106.89 244.66 106.02 244.67 105.15 C 242.67 105.12 240.68 105.10 238.69 105.09 C 238.67 103.61 238.65 102.13 238.64 100.65 C 240.90 100.65 243.17 100.65 245.43 100.64 C 245.43 99.66 245.43 98.68 245.44 97.71 C 242.00 97.70 238.56 97.70 235.12 97.72 Z M 250.53 97.69 C 250.57 103.59 250.58 109.49 250.52 115.39 C 254.37 115.24 259.39 116.12 262.62 113.67 C 267.26 110.29 267.18 102.73 262.54 99.39 C 259.29 97.07 254.33 97.81 250.53 97.69 Z M 270.13 97.72 C 270.15 98.73 270.16 99.73 270.17 100.74 C 272.85 100.76 275.53 100.76 278.21 100.74 C 275.24 105.41 271.28 110.00 269.50 115.27 C 273.78 115.43 278.06 115.39 282.34 115.38 C 282.33 114.37 282.33 113.36 282.32 112.35 C 279.65 112.35 276.98 112.37 274.30 112.39 C 277.24 107.79 281.50 103.13 282.80 97.78 C 278.58 97.67 274.36 97.70 270.13 97.72 Z M 305.13 110.14 C 303.91 110.26 302.69 110.39 301.47 110.52 C 303.14 113.21 304.38 115.48 307.97 115.54 C 311.84 116.00 315.61 113.34 314.81 109.15 C 314.16 104.76 306.24 105.86 305.67 102.00 C 307.58 99.03 309.49 101.52 311.90 102.19 L 315.48 102.63 C 313.82 99.85 312.64 97.59 309.04 97.50 C 305.22 97.08 301.41 99.60 302.26 103.76 C 303.00 107.18 307.57 107.34 310.13 108.92 C 312.08 109.55 311.46 111.78 309.96 112.30 C 307.59 113.50 306.76 111.39 305.13 110.14 Z M 320.03 97.71 C 320.11 103.60 320.10 109.49 320.03 115.37 C 323.45 115.39 326.88 115.39 330.30 115.38 L 330.30 112.44 C 328.03 112.44 325.77 112.44 323.51 112.44 C 323.53 110.89 323.54 109.34 323.55 107.79 C 325.54 107.79 327.53 107.79 329.52 107.78 C 329.52 106.90 329.53 106.01 329.53 105.13 C 327.54 105.11 325.56 105.11 323.57 105.10 C 323.55 103.62 323.53 102.13 323.51 100.65 C 325.77 100.65 328.03 100.65 330.29 100.64 C 330.29 99.66 330.30 98.69 330.30 97.71 C 326.87 97.70 323.45 97.70 320.03 97.71 Z M 335.37 97.69 C 335.43 103.59 335.44 109.49 335.36 115.39 C 338.93 115.25 343.71 116.02 346.86 114.07 C 352.17 111.15 352.13 102.00 346.87 99.04 C 343.64 97.15 339.01 97.80 335.37 97.69 Z" id="p0" />
<path d="M 195.62 0.04 C 198.73 7.51 201.78 14.77 206.75 21.24 C 211.08 26.88 216.54 31.91 223.73 33.35 C 228.87 34.39 233.67 32.63 238.05 30.08 C 246.69 24.85 252.94 17.44 259.97 10.55 C 256.42 20.61 250.29 30.24 242.06 37.10 C 239.77 39.08 236.83 40.49 234.79 42.72 C 232.57 46.19 232.20 50.54 233.63 54.40 C 236.20 61.50 238.54 69.41 238.50 77.02 C 238.39 79.83 237.77 83.62 234.86 84.90 C 232.74 85.88 230.51 84.36 229.55 82.49 C 227.82 78.95 226.88 75.08 224.97 71.60 C 223.48 73.39 221.90 74.76 221.55 77.18 C 219.39 89.45 221.90 103.65 221.65 115.83 C 213.25 100.68 209.11 82.94 212.86 65.77 C 214.34 59.56 215.22 53.41 213.94 47.06 C 213.26 43.97 212.52 40.25 209.85 38.25 C 206.88 35.78 204.02 33.36 202.02 29.99 C 196.36 20.93 195.33 10.51 195.62 0.04 Z" id="p1" />
<path d="M 221.23 6.26 C 225.27 4.41 229.92 6.01 232.49 9.48 C 236.35 14.55 235.38 22.43 230.06 26.08 C 225.67 29.15 219.55 27.71 216.77 23.21 C 212.90 17.54 214.87 9.11 221.23 6.26 Z" id="p2" />
<path d="M 27.45 20.46 C 30.38 19.70 32.93 22.05 32.75 25.00 C 32.77 28.11 29.12 30.58 26.41 28.65 C 23.41 26.80 23.88 21.35 27.45 20.46 Z" id="p3" />
<path d="M 108.40 20.42 C 111.39 19.84 113.68 21.99 113.51 25.02 C 113.55 28.08 110.03 30.56 107.33 28.69 C 104.02 26.87 104.67 21.30 108.40 20.42 Z" id="p4" />
<path d="M 119.52 20.65 C 122.15 19.63 124.99 21.11 125.35 23.98 C 126.07 27.39 122.46 30.74 119.29 28.74 C 116.19 26.99 116.46 22.31 119.52 20.65 Z" id="p5" />
<path d="M 396.38 20.52 C 399.60 20.09 402.93 20.33 406.18 20.31 C 402.62 23.43 399.04 26.52 395.47 29.63 C 393.04 29.62 390.61 29.63 388.18 29.60 C 390.93 26.63 393.34 23.18 396.38 20.52 Z" id="p6" />
<path d="M 14.24 21.09 C 16.76 19.44 19.72 20.51 20.63 23.36 C 21.79 26.66 18.57 30.52 15.13 28.98 C 12.00 27.60 11.59 23.16 14.24 21.09 Z" id="p7" />
<path d="M 38.28 38.72 C 47.67 47.98 47.47 64.81 37.69 73.71 C 29.25 81.58 15.02 81.29 6.88 73.12 C 2.37 68.69 0.42 62.82 0.00 56.62 L 0.00 55.53 C 0.36 49.25 2.26 43.31 6.83 38.84 C 15.04 30.41 30.01 30.34 38.28 38.72 Z M 18.22 42.22 C 7.87 46.09 6.93 62.29 15.64 68.34 C 20.53 71.63 27.59 70.98 31.60 66.58 C 36.75 61.17 36.75 50.81 31.67 45.36 C 28.33 41.57 22.89 40.61 18.22 42.22 Z" id="p8" />
<path d="M 52.35 33.40 C 57.54 33.01 62.80 33.31 68.01 33.22 C 73.32 33.22 78.49 33.69 82.70 37.28 C 88.18 41.75 89.14 50.35 86.67 56.62 C 85.30 60.16 82.57 62.15 79.64 64.32 C 82.71 69.07 85.68 73.88 88.77 78.62 C 85.31 78.62 81.86 78.62 78.40 78.62 C 75.75 74.46 73.17 70.25 70.53 66.08 C 67.60 66.08 64.68 66.08 61.75 66.07 C 61.75 70.25 61.75 74.42 61.84 78.60 C 58.62 78.62 55.41 78.62 52.19 78.60 C 52.43 63.56 52.08 48.43 52.35 33.40 Z M 61.75 41.81 C 61.77 47.07 61.77 52.32 61.73 57.58 C 65.65 57.47 70.11 58.09 73.87 56.89 C 79.66 54.69 79.88 45.26 74.30 42.72 C 70.50 41.27 65.77 41.93 61.75 41.81 Z" id="p9" />
<path d="M 109.24 33.25 C 116.01 31.59 123.44 32.61 129.00 36.99 C 141.45 46.53 140.68 67.96 127.15 76.17 C 119.08 81.14 108.01 80.41 100.79 74.23 C 92.37 67.10 90.55 54.12 95.44 44.46 C 98.17 38.96 103.30 34.81 109.24 33.25 Z M 110.39 42.42 C 100.48 46.67 99.82 62.72 108.55 68.48 C 113.25 71.52 119.97 70.95 123.95 66.95 C 129.64 61.23 129.63 50.75 124.03 44.97 C 120.56 41.39 114.92 40.58 110.39 42.42 Z" id="p10" />
<path d="M 144.92 33.26 C 147.56 33.24 150.19 33.24 152.83 33.23 C 157.94 42.63 163.20 51.96 168.17 61.44 C 173.26 52.06 178.27 42.63 183.37 33.25 C 185.99 33.24 188.62 33.24 191.25 33.24 C 191.26 48.36 191.30 63.49 191.35 78.62 C 188.33 78.62 185.31 78.62 182.30 78.60 C 182.37 69.56 182.32 60.51 182.32 51.46 C 178.28 58.87 174.25 66.29 170.32 73.75 C 168.87 73.80 167.42 73.85 165.97 73.90 C 161.85 66.58 157.89 59.17 153.77 51.85 C 153.93 60.77 153.74 69.68 153.93 78.59 C 150.93 78.61 147.93 78.62 144.93 78.61 C 145.06 63.50 145.03 48.37 144.92 33.26 Z" id="p11" />
<path d="M 258.62 33.27 C 269.01 33.27 279.40 33.24 289.79 33.28 C 289.76 36.10 289.76 38.90 289.79 41.72 C 282.62 41.76 275.45 41.73 268.28 41.74 C 268.34 45.72 268.33 49.69 268.27 53.67 C 274.61 53.69 280.94 53.68 287.28 53.67 C 287.27 56.50 287.26 59.32 287.26 62.14 C 280.94 62.14 274.61 62.13 268.29 62.15 C 268.34 67.65 268.31 73.15 268.35 78.65 C 265.10 78.65 261.86 78.65 258.62 78.64 C 258.66 63.52 258.66 48.39 258.62 33.27 Z" id="p12" />
<path d="M 295.86 33.26 C 299.07 33.26 302.28 33.26 305.48 33.29 C 305.43 41.87 305.42 50.47 305.44 59.05 C 305.52 62.57 306.14 66.62 309.17 68.86 C 312.38 71.09 317.44 71.03 320.46 68.49 C 323.39 65.86 323.70 61.72 323.72 58.04 C 323.70 49.78 323.72 41.52 323.68 33.27 C 326.84 33.26 330.01 33.26 333.17 33.26 C 333.15 41.18 333.15 49.09 333.18 57.00 C 333.17 61.77 332.90 66.32 330.64 70.62 C 325.52 80.96 309.23 82.29 301.38 74.62 C 297.12 70.40 296.02 64.81 295.88 59.02 C 295.81 50.43 295.90 41.84 295.86 33.26 Z" id="p13" />
<path d="M 337.31 33.41 C 349.21 33.05 361.17 33.36 373.08 33.28 C 373.08 36.13 373.08 38.98 373.08 41.83 C 368.67 41.85 364.25 41.84 359.84 41.84 C 359.89 54.10 359.75 66.36 359.92 78.62 C 356.70 78.65 353.48 78.65 350.26 78.63 C 350.40 66.37 350.28 54.11 350.33 41.85 C 345.95 41.84 341.57 41.85 337.20 41.82 C 337.22 39.02 337.10 36.20 337.31 33.41 Z" id="p14" />
<path d="M 389.15 33.43 C 392.19 33.09 395.31 33.27 398.37 33.28 C 404.56 48.39 410.54 63.60 416.87 78.65 C 413.50 78.65 410.12 78.65 406.74 78.64 C 405.50 75.39 404.28 72.12 403.03 68.86 C 396.72 68.87 390.40 68.87 384.09 68.87 C 382.87 72.11 381.65 75.36 380.45 78.61 C 377.16 78.65 373.86 78.65 370.56 78.67 C 376.29 64.66 381.95 50.62 387.58 36.57 C 388.04 35.49 388.50 34.41 389.15 33.43 Z M 393.66 43.68 C 393.28 44.64 392.90 45.61 392.52 46.58 C 390.67 51.33 388.94 56.13 387.04 60.87 C 391.40 60.87 395.77 60.88 400.13 60.83 C 397.85 55.16 395.74 49.43 393.66 43.68 Z" id="p15" />
<path d="M 439.04 32.69 C 443.12 33.00 446.75 34.53 450.35 36.36 C 449.31 39.02 448.31 41.70 447.37 44.40 C 442.34 41.86 436.42 39.46 430.86 41.90 C 427.89 43.08 426.88 47.38 429.78 49.21 C 434.78 52.30 443.32 52.14 448.39 56.59 C 452.06 59.78 452.43 64.57 451.48 69.06 C 450.21 73.76 446.36 77.07 441.80 78.45 C 433.49 80.84 424.84 78.94 417.64 74.40 C 418.74 71.72 419.83 69.04 420.89 66.34 C 426.50 69.92 432.60 72.15 439.27 70.29 C 442.44 69.27 443.88 65.24 440.93 63.07 C 435.63 59.83 428.28 60.15 422.95 56.06 C 416.80 51.76 417.40 41.45 422.78 36.78 C 427.16 32.74 433.38 32.20 439.04 32.69 Z" id="p16" />
<path d="M 18.22 42.22 C 22.89 40.61 28.33 41.57 31.67 45.36 C 36.75 50.81 36.75 61.17 31.60 66.58 C 27.59 70.98 20.53 71.63 15.64 68.34 C 6.93 62.29 7.87 46.09 18.22 42.22 Z" id="p17" />
<path d="M 61.75 41.81 C 65.77 41.93 70.50 41.27 74.30 42.72 C 79.88 45.26 79.66 54.69 73.87 56.89 C 70.11 58.09 65.65 57.47 61.73 57.58 C 61.77 52.32 61.77 47.07 61.75 41.81 Z" id="p18" />
<path d="M 110.39 42.42 C 114.92 40.58 120.56 41.39 124.03 44.97 C 129.63 50.75 129.64 61.23 123.95 66.95 C 119.97 70.95 113.25 71.52 108.55 68.48 C 99.82 62.72 100.48 46.67 110.39 42.42 Z" id="p19" />
<path d="M 393.66 43.68 C 395.74 49.43 397.85 55.16 400.13 60.83 C 395.77 60.88 391.40 60.87 387.04 60.87 C 388.94 56.13 390.67 51.33 392.52 46.58 C 392.90 45.61 393.28 44.64 393.66 43.68 Z" id="p20" />
<path d="M 117.21 91.08 C 117.16 92.04 117.12 92.99 117.07 93.95 C 115.67 95.02 112.32 95.36 113.73 97.78 C 115.67 97.75 117.62 97.72 119.56 97.69 C 119.56 98.67 119.57 99.65 119.57 100.63 C 117.34 100.64 115.11 100.65 112.88 100.65 C 112.89 102.13 112.89 103.61 112.89 105.08 C 114.90 105.10 116.91 105.13 118.92 105.17 C 118.93 106.02 118.93 106.88 118.94 107.73 C 116.92 107.77 114.91 107.79 112.89 107.81 C 112.89 109.35 112.88 110.89 112.88 112.43 C 115.11 112.44 117.34 112.44 119.57 112.45 L 119.57 115.37 C 116.13 115.39 112.70 115.39 109.26 115.37 C 109.46 109.96 109.12 104.52 109.42 99.12 C 109.65 98.51 110.09 97.91 110.73 97.33 C 110.90 96.47 111.05 95.61 111.18 94.74 C 113.05 93.29 115.11 92.18 117.21 91.08 Z" id="p21" />
<path d="M 168.79 91.29 C 168.94 92.20 169.05 93.12 169.13 94.05 C 166.96 95.14 164.69 95.98 162.36 96.69 C 163.39 93.39 166.01 92.68 168.79 91.29 Z" id="p22" />
<path d="M 294.78 91.25 C 294.92 92.10 295.03 92.95 295.10 93.82 C 292.91 95.06 290.65 95.98 288.80 97.75 C 291.68 97.75 294.55 97.72 297.43 97.70 C 297.43 98.68 297.43 99.66 297.43 100.64 C 295.17 100.65 292.90 100.65 290.64 100.65 C 290.65 102.13 290.67 103.61 290.69 105.09 C 292.71 105.10 294.74 105.12 296.77 105.15 C 296.77 106.02 296.77 106.88 296.77 107.75 C 294.74 107.78 292.70 107.79 290.67 107.80 C 290.66 109.35 290.65 110.89 290.64 112.44 C 292.91 112.44 295.17 112.44 297.44 112.45 C 297.44 113.42 297.44 114.40 297.44 115.38 C 294.00 115.39 290.55 115.39 287.11 115.37 C 287.23 109.67 287.21 103.98 287.13 98.29 C 288.10 97.59 289.04 96.87 289.99 96.15 L 288.33 94.95 C 290.42 93.60 292.53 92.31 294.78 91.25 Z" id="p23" />
<path d="M 66.42 97.76 L 66.87 97.75 C 68.11 97.73 69.35 97.71 70.59 97.69 C 72.76 103.57 74.70 109.52 77.02 115.34 C 75.77 115.37 74.52 115.39 73.26 115.42 C 72.83 114.30 72.40 113.19 71.97 112.08 C 69.70 112.08 67.42 112.07 65.14 112.07 C 64.70 113.18 64.25 114.29 63.81 115.40 C 62.56 115.39 61.31 115.37 60.05 115.36 C 62.32 109.55 64.37 103.65 66.42 97.76 Z M 65.94 109.17 C 67.66 109.16 69.38 109.16 71.09 109.17 C 70.26 106.83 69.48 104.46 68.55 102.16 C 67.60 104.46 66.80 106.83 65.94 109.17 Z" id="p24" />
<path d="M 89.24 97.71 L 92.85 97.72 C 92.81 100.17 92.78 102.61 92.77 105.06 C 95.31 105.07 97.85 105.08 100.40 105.09 C 100.39 102.63 100.37 100.17 100.33 97.71 C 101.53 97.71 102.74 97.71 103.94 97.72 C 103.84 103.60 103.82 109.48 103.95 115.36 C 102.74 115.37 101.53 115.37 100.32 115.38 C 100.36 112.87 100.39 110.35 100.41 107.84 C 97.86 107.84 95.31 107.84 92.76 107.84 C 92.78 110.35 92.81 112.86 92.87 115.36 C 91.66 115.37 90.44 115.37 89.23 115.37 C 89.33 109.49 89.32 103.60 89.24 97.71 Z" id="p25" />
<path d="M 123.76 97.71 C 128.09 97.71 132.43 97.70 136.76 97.72 L 136.78 100.60 C 135.19 100.63 133.61 100.65 132.02 100.68 C 132.11 105.58 132.07 110.48 132.09 115.38 C 130.87 115.38 129.66 115.38 128.45 115.38 C 128.53 110.47 128.47 105.56 128.54 100.65 C 126.95 100.65 125.36 100.65 123.77 100.65 L 123.76 97.71 Z" id="p26" />
<path d="M 139.80 97.65 C 141.12 97.68 142.45 97.72 143.77 97.76 C 145.35 102.39 146.93 107.02 148.58 111.62 C 150.17 107.00 151.74 102.37 153.33 97.75 C 154.64 97.72 155.95 97.69 157.26 97.66 C 154.93 103.53 152.87 109.50 150.67 115.41 C 149.22 115.38 147.77 115.36 146.31 115.33 C 144.18 109.42 142.12 103.48 139.80 97.65 Z" id="p27" />
<path d="M 161.23 97.77 C 164.68 97.79 168.12 97.71 171.56 97.69 C 171.56 98.67 171.57 99.65 171.57 100.63 C 169.30 100.64 167.03 100.65 164.76 100.65 C 164.77 102.13 164.78 103.61 164.79 105.09 C 166.79 105.10 168.80 105.12 170.80 105.16 C 170.80 106.02 170.81 106.88 170.81 107.74 C 168.80 107.77 166.79 107.79 164.78 107.80 C 164.78 109.35 164.77 110.89 164.77 112.44 C 167.03 112.44 169.30 112.44 171.57 112.45 L 171.57 115.37 C 168.12 115.39 164.68 115.39 161.23 115.37 C 161.33 109.51 161.33 103.63 161.23 97.77 Z" id="p28" />
<path d="M 188.03 98.02 C 190.74 98.90 191.88 101.01 193.51 103.13 C 192.19 103.12 190.86 103.11 189.53 103.08 C 187.41 101.70 185.86 100.14 183.11 101.01 C 177.90 102.62 178.31 111.53 183.94 112.27 C 187.36 112.87 188.51 110.70 190.51 108.55 C 188.26 108.41 186.01 108.35 183.75 108.30 L 183.76 105.52 C 187.10 105.52 190.45 105.52 193.79 105.60 C 193.67 110.99 190.71 115.35 185.02 115.55 C 178.78 115.80 174.45 109.93 176.14 104.00 C 177.40 98.78 183.13 96.32 188.03 98.02 Z" id="p29" />
<path d="M 198.12 97.72 C 199.32 97.71 200.53 97.71 201.73 97.71 C 201.65 103.60 201.64 109.49 201.74 115.38 C 200.53 115.37 199.32 115.37 198.11 115.36 C 198.23 109.48 198.22 103.60 198.12 97.72 Z" id="p30" />
<path d="M 235.12 97.72 C 238.56 97.70 242.00 97.70 245.44 97.71 C 245.43 98.68 245.43 99.66 245.43 100.64 C 243.17 100.65 240.90 100.65 238.64 100.65 C 238.65 102.13 238.67 103.61 238.69 105.09 C 240.68 105.10 242.67 105.12 244.67 105.15 C 244.66 106.02 244.66 106.89 244.66 107.76 C 242.66 107.78 240.67 107.79 238.67 107.80 C 238.66 109.34 238.65 110.89 238.64 112.44 C 240.91 112.44 243.17 112.44 245.44 112.45 C 245.44 113.42 245.44 114.40 245.44 115.38 C 242.00 115.39 238.55 115.39 235.11 115.37 C 235.23 109.48 235.22 103.60 235.12 97.72 Z" id="p31" />
<path d="M 250.53 97.69 C 254.33 97.81 259.29 97.07 262.54 99.39 C 267.18 102.73 267.26 110.29 262.62 113.67 C 259.39 116.12 254.37 115.24 250.52 115.39 C 250.58 109.49 250.57 103.59 250.53 97.69 Z M 254.14 112.50 C 256.08 112.26 258.64 112.44 260.30 111.31 C 263.44 108.96 263.13 103.22 259.60 101.38 C 257.99 100.64 255.99 100.69 254.25 100.75 C 253.99 104.65 254.20 108.59 254.14 112.50 Z" id="p32" />
<path d="M 270.13 97.72 C 274.36 97.70 278.58 97.67 282.80 97.78 C 281.50 103.13 277.24 107.79 274.30 112.39 C 276.98 112.37 279.65 112.35 282.32 112.35 C 282.33 113.36 282.33 114.37 282.34 115.38 C 278.06 115.39 273.78 115.43 269.50 115.27 C 271.28 110.00 275.24 105.41 278.21 100.74 C 275.53 100.76 272.85 100.76 270.17 100.74 C 270.16 99.73 270.15 98.73 270.13 97.72 Z" id="p33" />
<path d="M 309.04 97.50 C 312.64 97.59 313.82 99.85 315.48 102.63 L 311.90 102.19 C 309.49 101.52 307.58 99.03 305.67 102.00 C 306.24 105.86 314.16 104.76 314.81 109.15 C 315.61 113.34 311.84 116.00 307.97 115.54 C 304.38 115.48 303.14 113.21 301.47 110.52 C 302.69 110.39 303.91 110.26 305.13 110.14 C 306.76 111.39 307.59 113.50 309.96 112.30 C 311.46 111.78 312.08 109.55 310.13 108.92 C 307.57 107.34 303.00 107.18 302.26 103.76 C 301.41 99.60 305.22 97.08 309.04 97.50 Z" id="p34" />
<path d="M 320.03 97.71 C 323.45 97.70 326.87 97.70 330.30 97.71 C 330.30 98.69 330.29 99.66 330.29 100.64 C 328.03 100.65 325.77 100.65 323.51 100.65 C 323.53 102.13 323.55 103.62 323.57 105.10 C 325.56 105.11 327.54 105.11 329.53 105.13 C 329.53 106.01 329.52 106.90 329.52 107.78 C 327.53 107.79 325.54 107.79 323.55 107.79 C 323.54 109.34 323.53 110.89 323.51 112.44 C 325.77 112.44 328.03 112.44 330.30 112.44 L 330.30 115.38 C 326.88 115.39 323.45 115.39 320.03 115.37 C 320.10 109.49 320.11 103.60 320.03 97.71 Z" id="p35" />
<path d="M 335.37 97.69 C 339.01 97.80 343.64 97.15 346.87 99.04 C 352.13 102.00 352.17 111.15 346.86 114.07 C 343.71 116.02 338.93 115.25 335.36 115.39 C 335.44 109.49 335.43 103.59 335.37 97.69 Z M 338.90 100.57 C 338.89 104.55 338.89 108.53 338.89 112.51 C 341.46 112.18 344.54 112.61 346.23 110.22 C 347.94 107.60 347.54 103.02 344.54 101.43 C 342.81 100.74 340.74 100.77 338.90 100.57 Z" id="p36" />
<path d="M 254.25 100.75 C 255.99 100.69 257.99 100.64 259.60 101.38 C 263.13 103.22 263.44 108.96 260.30 111.31 C 258.64 112.44 256.08 112.26 254.14 112.50 C 254.20 108.59 253.99 104.65 254.25 100.75 Z" id="p37" />
<path d="M 338.90 100.57 C 340.74 100.77 342.81 100.74 344.54 101.43 C 347.54 103.02 347.94 107.60 346.23 110.22 C 344.54 112.61 341.46 112.18 338.89 112.51 C 338.89 108.53 338.89 104.55 338.90 100.57 Z" id="p38" />
<path d="M 68.55 102.16 C 69.48 104.46 70.26 106.83 71.09 109.17 C 69.38 109.16 67.66 109.16 65.94 109.17 C 66.80 106.83 67.60 104.46 68.55 102.16 Z" id="p39" />
</defs>
</svg>
