<?xml version="1.0" encoding="UTF-8" standalone="no"?>
<svg
   version="1.1"
   viewBox="0 0 452 116"
   xmlns="http://www.w3.org/2000/svg"
   xmlns:svg="http://www.w3.org/2000/svg">
  <path
     d="m 195.61914,0.0390625 c -0.29,10.4699995 0.74039,20.8911715 6.40039,29.9511715 2,3.37 4.86008,5.789766 7.83008,8.259766 2.67,2 3.40984,5.720547 4.08984,8.810547 1.28,6.35 0.39992,12.498984 -1.08008,18.708984 -3.74999,17.17 0.39102,34.910549 8.79102,50.060549 0.25,-12.18 -2.25961,-26.380392 -0.0996,-38.650393 0.35,-2.42 1.92992,-3.790078 3.41992,-5.580078 1.91,3.48 2.85008,7.350625 4.58008,10.890625 0.96,1.87 3.18859,3.390157 5.30859,2.410157 2.91,-1.28 3.53063,-5.07086 3.64063,-7.88086 0.04,-7.61 -2.29914,-15.51914 -4.86914,-22.61914 -1.43,-3.86 -1.0618,-8.209688 1.1582,-11.679688 2.04,-2.23 4.98149,-3.641094 7.27149,-5.621094 8.23,-6.86 14.36015,-16.488828 17.91015,-26.548828 -7.03,6.89 -13.27992,14.299297 -21.91992,19.529297 -4.38,2.55 -9.18031,4.309531 -14.32031,3.269531 -7.19,-1.44 -12.65047,-6.469375 -16.98047,-12.109375 -4.97,-6.47 -8.02086,-13.7311715 -11.13086,-21.2011715 z"
     style="baseline-shift:baseline;display:inline;overflow:visible;vector-effect:none;fill:#FFFFFF;fill-rule:evenodd;enable-background:accumulate;stop-color:#000000;stop-opacity:1"
     id="path80" />
  <path
     d="m 224.72461,5.4824219 c -1.17291,0.00966 -2.35789,0.2570312 -3.49414,0.7773437 -6.36,2.85 -8.33094,11.2811724 -4.46094,16.9511714 2.78,4.500001 8.90102,5.939141 13.29102,2.869141 5.32,-3.65 6.28968,-11.529609 2.42968,-16.5996092 -1.84718,-2.4940626 -4.76819,-4.0227399 -7.76562,-3.9980469 z"
     style="baseline-shift:baseline;display:inline;overflow:visible;vector-effect:none;fill:#FFFFFF;fill-rule:evenodd;enable-background:accumulate;stop-color:#000000;stop-opacity:1"
     id="path79" />
  <path
     d="m 28.525391,20.316406 c -0.349786,0.0027 -0.709922,0.04953 -1.076172,0.144531 -3.57,0.89 -4.039063,6.339454 -1.039063,8.189454 C 29.120156,30.580391 32.77,28.11 32.75,25 32.9075,22.41875 30.973887,20.297402 28.525391,20.316406 Z"
     style="baseline-shift:baseline;display:inline;overflow:visible;vector-effect:none;fill:#FFFFFF;fill-rule:evenodd;enable-background:accumulate;stop-color:#000000;stop-opacity:1"
     id="path78" />
  <path
     d="m 109.2207,20.326172 c -0.26627,0.0081 -0.54,0.03937 -0.82031,0.09375 -3.73,0.88 -4.38031,6.449531 -1.07031,8.269531 2.7,1.87 6.21969,-0.609922 6.17969,-3.669922 0.14875,-2.65125 -1.58633,-4.628965 -4.02539,-4.693359 -0.0871,-0.0023 -0.17492,-0.0027 -0.26368,0 z"
     style="baseline-shift:baseline;display:inline;overflow:visible;vector-effect:none;fill:#FFFFFF;fill-rule:evenodd;enable-background:accumulate;stop-color:#000000;stop-opacity:1"
     id="path77" />
  <path
     d="m 121.24805,20.328125 c -0.56726,-0.0045 -1.15321,0.09914 -1.72852,0.322266 -3.06,1.66 -3.33047,6.339843 -0.23047,8.089843 3.17,2 6.78055,-1.349765 6.06055,-4.759765 -0.28125,-2.242188 -2.07566,-3.636223 -4.10156,-3.652344 z"
     style="baseline-shift:baseline;display:inline;overflow:visible;vector-effect:none;fill:#FFFFFF;fill-rule:evenodd;enable-background:accumulate;stop-color:#000000;stop-opacity:1"
     id="path76" />
  <path
     d="m 401.26953,20.261719 c -1.64125,-0.0038 -3.27867,0.04281 -4.88867,0.257812 -3.04,2.66 -5.45117,6.110078 -8.20117,9.080078 2.43,0.03 4.86101,0.02125 7.29101,0.03125 3.57,-3.11 7.14899,-6.200312 10.70899,-9.320312 -1.625,0.01 -3.26891,-0.04508 -4.91016,-0.04883 z"
     style="baseline-shift:baseline;display:inline;overflow:visible;vector-effect:none;fill:#FFFFFF;fill-rule:evenodd;enable-background:accumulate;stop-color:#000000;stop-opacity:1"
     id="path75" />
  <path
     d="m 16.65625,20.310547 c -0.797449,0.01306 -1.628516,0.263672 -2.416016,0.779297 -2.65,2.07 -2.239375,6.510625 0.890625,7.890625 3.44,1.54 6.66,-2.321094 5.5,-5.621094 C 20.005234,21.4 18.410637,20.281812 16.65625,20.310547 Z"
     style="baseline-shift:baseline;display:inline;overflow:visible;vector-effect:none;fill:#FFFFFF;fill-rule:evenodd;enable-background:accumulate;stop-color:#000000;stop-opacity:1"
     id="path74" />
  <path
     d="m 22.533203,32.476562 c -5.8025,0.02375 -11.598125,2.148282 -15.7031249,6.363282 C 2.2600781,43.309844 0.36,49.249297 0,55.529297 v 1.089844 c 0.42,6.2 2.3708594,12.07 6.8808594,16.5 8.1399996,8.17 22.3685936,8.461797 30.8085936,0.591796 9.78,-8.899999 9.979844,-25.730234 0.589844,-34.990234 -4.135,-4.19 -9.943594,-6.267891 -15.746094,-6.244141 z m 0.203125,8.994141 c 3.348797,0.01488 6.637344,1.283047 8.933594,3.888672 5.08,5.45 5.079687,15.810703 -0.07031,21.220703 -4.01,4.4 -11.068984,5.049766 -15.958984,1.759766 -8.71,-6.05 -7.7699219,-22.249141 2.580078,-26.119141 1.459375,-0.503125 2.993445,-0.756763 4.515625,-0.75 z"
     style="baseline-shift:baseline;display:inline;overflow:visible;vector-effect:none;fill:#FFFFFF;fill-rule:evenodd;enable-background:accumulate;stop-color:#000000;stop-opacity:1"
     id="path73" />
  <path
     d="m 58.212891,33.195312 c -1.95961,0.0091 -3.917032,0.05883 -5.863282,0.205079 -0.27,15.03 0.07984,30.159218 -0.160156,45.199218 3.22,0.02 6.430391,0.02 9.650391,0 -0.09,-4.18 -0.08984,-8.349296 -0.08984,-12.529297 2.93,0.01 5.849297,0.0098 8.779297,0.0098 2.64,4.17 5.221094,8.379063 7.871094,12.539063 h 10.36914 c -3.09,-4.74 -6.058906,-9.548829 -9.128906,-14.298829 2.93,-2.169999 5.659297,-4.161171 7.029297,-7.701171 2.47,-6.27 1.509297,-14.869844 -3.970703,-19.339844 -4.21,-3.59 -9.379453,-4.058594 -14.689453,-4.058594 -3.25625,0.05625 -6.53086,-0.04062 -9.796875,-0.02539 z m 9.083984,8.566407 c 2.434131,-0.0053 4.866406,0.143359 7.003906,0.958984 5.58,2.54 5.35836,11.969922 -0.43164,14.169922 -3.76,1.2 -8.218672,0.579453 -12.138672,0.689453 0.04,-5.26 0.03953,-10.509531 0.01953,-15.769531 1.75875,0.0525 3.653662,-0.04474 5.546875,-0.04883 z"
     style="baseline-shift:baseline;display:inline;overflow:visible;vector-effect:none;fill:#FFFFFF;fill-rule:evenodd;enable-background:accumulate;stop-color:#000000;stop-opacity:1"
     id="path72" />
  <path
     d="m 115.70313,32.5 c -2.16733,-0.02544 -4.34727,0.23125 -6.4629,0.75 -5.94,1.56 -11.070777,5.710937 -13.800777,11.210937 -4.89,9.66 -3.070391,22.639532 5.349607,29.769532 7.22,6.18 18.29133,6.909453 26.36133,1.939453 13.53,-8.21 14.29961,-29.639688 1.84961,-39.179688 -3.8225,-3.01125 -8.52877,-4.434267 -13.29687,-4.490234 z m -0.20899,8.966797 c 3.16122,0.03825 6.29863,1.196484 8.53516,3.503906 5.6,5.78 5.60992,16.258516 -0.0801,21.978516 -3.98,4 -10.69844,4.57125 -15.39844,1.53125 -8.729999,-5.76 -8.07016,-21.810547 1.83985,-26.060547 1.41562,-0.575 2.93837,-0.891553 4.4707,-0.945313 0.21069,-0.0074 0.42206,-0.01036 0.63281,-0.0078 z"
     style="baseline-shift:baseline;display:inline;overflow:visible;vector-effect:none;fill:#FFFFFF;fill-rule:evenodd;enable-background:accumulate;stop-color:#000000;stop-opacity:1"
     id="path71" />
  <path
     d="m 152.83008,33.230469 c -2.64,0.01 -5.27016,0.0093 -7.91016,0.0293 0.11,15.11 0.13977,30.239609 0.01,45.349609 3,0.01 6,4.69e-4 9,-0.01953 -0.19,-8.91 -1.6e-4,-17.820235 -0.16016,-26.740235 4.12,7.32 8.08117,14.730782 12.20117,22.050782 L 170.32031,73.75 c 3.93,-7.46 7.96,-14.879063 12,-22.289063 0,9.050001 0.0505,18.098672 -0.0195,27.138672 3.01,0.02 6.02883,0.01953 9.04883,0.01953 -0.05,-15.13 -0.0896,-30.258907 -0.0996,-45.378907 -2.63,0 -5.26086,-2.34e-4 -7.88086,0.0098 -5.1,9.38 -10.10922,18.809453 -15.19922,28.189453 -4.97,-9.48 -10.22984,-18.808984 -15.33984,-28.208984 z"
     style="baseline-shift:baseline;display:inline;overflow:visible;vector-effect:none;fill:#FFFFFF;fill-rule:evenodd;enable-background:accumulate;stop-color:#000000;stop-opacity:1"
     id="path70" />
  <path
     d="m 274.20508,33.259766 c -5.195,0.0025 -10.39094,0.0098 -15.58594,0.0098 0.04,15.12 0.04,30.251094 0,45.371094 3.24,0.01 6.48047,0.0098 9.73047,0.0098 -0.04,-5.5 -0.0105,-11 -0.0605,-16.5 6.32,-0.02 12.65071,-0.0098 18.97071,-0.0098 0,-2.82 0.01,-5.640703 0.0195,-8.470703 -6.34,0.01 -12.66977,0.02 -19.00977,0 0.06,-3.98 0.0698,-7.949688 0.01,-11.929688 7.17,-0.01 14.33976,0.02047 21.50976,-0.01953 -0.03,-2.82 -0.03,-5.621406 0,-8.441406 -5.195,-0.02 -10.38898,-0.02203 -15.58398,-0.01953 z"
     style="baseline-shift:baseline;display:inline;overflow:visible;vector-effect:none;fill:#FFFFFF;fill-rule:evenodd;enable-background:accumulate;stop-color:#000000;stop-opacity:1"
     id="path69" />
  <path
     d="m 295.85937,33.259766 c 0.04,8.58 -0.0485,17.169765 0.0215,25.759765 0.14,5.79 1.24,11.37961 5.5,15.59961 7.85,7.67 24.13976,6.34 29.25976,-4 2.26,-4.3 2.52907,-8.849141 2.53907,-13.619141 -0.03,-7.91 -0.0298,-15.820234 -0.01,-23.740234 -3.16,0 -6.33023,-2.35e-4 -9.49023,0.0098 0.04,8.25 0.021,16.509532 0.041,24.769531 -0.02,3.68 -0.32976,7.821172 -3.25976,10.451172 -3.02,2.54 -8.08102,2.599141 -11.29102,0.369141 -3.03,-2.24 -3.65047,-6.288594 -3.73047,-9.808594 -0.02,-8.58 -0.009,-17.181719 0.041,-25.761719 -3.2,-0.03 -6.4111,-0.0293 -9.6211,-0.0293 z"
     style="baseline-shift:baseline;display:inline;overflow:visible;vector-effect:none;fill:#FFFFFF;fill-rule:evenodd;enable-background:accumulate;stop-color:#000000;stop-opacity:1"
     id="path68" />
  <path
     d="m 350.7168,33.232422 c -4.47358,0.0025 -8.94375,0.04273 -13.40625,0.177734 -0.21,2.79 -0.0913,5.610157 -0.11133,8.410156 4.37,0.03 8.75086,0.0193 13.13086,0.0293 -0.05,12.26 0.0697,24.52125 -0.0703,36.78125 3.22,0.02 6.44015,0.01828 9.66015,-0.01172 -0.17,-12.26 -0.0301,-24.519297 -0.0801,-36.779297 4.41,0 8.83024,0.01023 13.24024,-0.0098 v -8.550781 c -7.44375,0.05 -14.90733,-0.05098 -22.36328,-0.04687 z"
     style="baseline-shift:baseline;display:inline;overflow:visible;vector-effect:none;fill:#FFFFFF;fill-rule:evenodd;enable-background:accumulate;stop-color:#000000;stop-opacity:1"
     id="path67" />
  <path
     d="m 393.75195,33.224609 c -1.5425,-0.0038 -3.08156,0.03508 -4.60156,0.205078 -0.65,0.98 -1.11031,2.060626 -1.57031,3.140625 -5.63,14.05 -11.28953,28.08961 -17.01953,42.09961 3.3,-0.02 6.59867,-0.02055 9.88867,-0.06055 1.2,-3.25 2.42062,-6.500234 3.64062,-9.740234 6.31,0 12.62946,2.34e-4 18.93946,-0.0098 1.25,3.26 2.47093,6.53125 3.71093,9.78125 3.38,0.01 6.75891,0.0098 10.12891,0.0098 -6.33,-15.05 -12.31,-30.261094 -18.5,-45.371094 -1.53,-0.005 -3.07469,-0.05094 -4.61719,-0.05469 z m -0.0918,10.455078 c 2.08,5.75 4.1907,11.480391 6.4707,17.150391 -4.36,0.05 -8.7318,0.03906 -13.0918,0.03906 1.9,-4.74 3.63047,-9.539063 5.48047,-14.289063 0.38,-0.97 0.76063,-1.94039 1.14063,-2.900391 z"
     style="baseline-shift:baseline;display:inline;overflow:visible;vector-effect:none;fill:#FFFFFF;fill-rule:evenodd;enable-background:accumulate;stop-color:#000000;stop-opacity:1"
     id="path66" />
  <path
     d="m 435.8125,32.539062 c -4.70082,-0.01374 -9.47445,0.957735 -13.0332,4.240235 -5.38,4.67 -5.98008,14.98125 0.16992,19.28125 5.33,4.09 12.68047,3.769765 17.98047,7.009765 2.95,2.17 1.50984,6.19875 -1.66016,7.21875 -6.67,1.860001 -12.7689,-0.369218 -18.37891,-3.949218 -1.06,2.7 -2.15,5.380547 -3.25,8.060547 7.2,4.54 15.85016,6.438828 24.16016,4.048828 4.56,-1.38 8.40969,-4.688672 9.67969,-9.388672 0.95,-4.49 0.58016,-9.280703 -3.08985,-12.470703 -5.07,-4.45 -13.61132,-4.288907 -18.61132,-7.378907 -2.9,-1.829999 -1.88993,-6.130546 1.08007,-7.310546 5.56001,-2.44 11.47977,-0.04 16.50977,2.5 0.94,-2.7 1.94047,-5.381016 2.98047,-8.041016 -3.6,-1.83 -7.23055,-3.359922 -11.31055,-3.669922 -1.06125,-0.09188 -2.14176,-0.147219 -3.22656,-0.150391 z"
     style="baseline-shift:baseline;display:inline;overflow:visible;vector-effect:none;fill:#FFFFFF;fill-rule:evenodd;enable-background:accumulate;stop-color:#000000;stop-opacity:1"
     id="path65" />
</svg>
