<?xml version="1.0" encoding="utf-8"?>
<!-- Generator: Adobe Illustrator 26.2.1, SVG Export Plug-In . SVG Version: 6.00 Build 0)  -->
<svg version="1.1" id="Layer_1" xmlns="http://www.w3.org/2000/svg" xmlns:xlink="http://www.w3.org/1999/xlink" x="0px" y="0px"
	 viewBox="0 0 325.5 77.8" style="enable-background:new 0 0 325.5 77.8;" xml:space="preserve">
<style type="text/css">
	.st0{fill:#1D8CBD;}
	.st1{fill:#083F5B;}
</style>
<g>
	<path class="st0" d="M73.2,4c-1.7-1.3-3.6-2.3-5.7-3c-2.1-0.7-4.3-1-6.4-1H17.9c-2.1,0-4.3,0.3-6.4,1C9.4,1.7,7.4,2.7,5.7,4
		C4,5.3,2.7,6.9,1.6,8.8C0.5,10.7,0,12.7,0,15V43c0,2.4,0.5,4.5,1.5,6.3c1,1.8,2.3,3.4,4,4.6c1.7,1.3,3.6,2.2,5.7,2.9
		c2.1,0.7,4.4,1,6.7,1h43.2c2.3,0,4.5-0.4,6.7-1c2.2-0.7,4.1-1.7,5.7-2.9c1.7-1.3,3-2.8,4-4.6c1-1.8,1.5-3.9,1.5-6.3V15
		c0-2.3-0.5-4.4-1.6-6.2C76.3,6.9,74.9,5.3,73.2,4 M63.3,33.8c0,2.9-0.7,5.2-2.2,6.6c-1.4,1.5-3.9,2.2-7.5,2.2H25.3
		c-3.5,0-6-0.7-7.5-2.1c-1.4-1.4-2.2-3.6-2.2-6.7v-9.9c0-2.8,0.7-5,2.2-6.5c1.5-1.5,4-2.3,7.5-2.3h28.2c3.5,0,6,0.8,7.5,2.3
		c1.5,1.5,2.2,3.7,2.2,6.5V33.8z"/>
	<path class="st0" d="M235.6,4c-1.7-1.3-3.6-2.3-5.7-3c-2.1-0.7-4.3-1-6.4-1h-43.2c-2.1,0-4.3,0.3-6.4,1c-2.1,0.7-4.1,1.7-5.7,3
		c-1.7,1.3-3.1,2.9-4.1,4.7c-1.1,1.9-1.6,4-1.6,6.2V43c0,2.4,0.5,4.5,1.5,6.3c1,1.8,2.3,3.4,4,4.6c1.7,1.3,3.6,2.2,5.7,2.9
		c2.1,0.7,4.4,1,6.7,1h43.2c2.3,0,4.5-0.4,6.7-1c2.2-0.7,4.1-1.7,5.7-2.9c1.7-1.3,3-2.8,4-4.6c1-1.8,1.5-3.9,1.5-6.3V15
		c0-2.3-0.5-4.4-1.6-6.2C238.7,6.9,237.3,5.3,235.6,4 M225.7,33.8c0,2.9-0.7,5.2-2.2,6.6c-1.4,1.5-3.9,2.2-7.5,2.2h-28.4
		c-3.5,0-6-0.7-7.5-2.1c-1.4-1.4-2.2-3.6-2.2-6.7v-9.9c0-2.8,0.7-5,2.2-6.5c1.5-1.5,4-2.3,7.5-2.3h28.2c3.5,0,6,0.8,7.5,2.3
		c1.5,1.5,2.2,3.7,2.2,6.5V33.8z"/>
	<path class="st0" d="M315.2,35.2c2-0.6,3.7-1.5,5.2-2.7c1.5-1.2,2.7-2.6,3.6-4.1c0.9-1.6,1.4-3.3,1.4-5.2v-8.2
		c0-2.3-0.5-4.4-1.5-6.2c-1-1.9-2.3-3.4-4-4.7c-1.7-1.3-3.6-2.2-5.7-2.9c-2.2-0.7-4.4-1-6.7-1h-58.5v15.1h60.7v6.5h-60.7v36.2h15.7
		V36.1h25.1l18.2,21.8h17.3l-17.2-21.8h0.8C311.2,36.1,313.2,35.8,315.2,35.2"/>
	<path class="st1" d="M6.8,76.8c-0.3,0.2-0.6,0.4-1,0.5c-0.4,0.1-0.8,0.2-1.3,0.2c-1.3,0-2.4-0.4-3.1-1.3c-0.8-0.9-1.2-2.1-1.2-3.6
		c0-1.5,0.4-2.7,1.2-3.6c0.8-0.9,1.8-1.3,3.1-1.3c1.3,0,2.4,0.4,3.1,1.3c0.8,0.9,1.2,2.1,1.2,3.6c0,0.9-0.1,1.6-0.3,2.2
		c-0.2,0.6-0.6,1.1-1.1,1.6l1.2,1l-0.5,0.6L6.8,76.8z M5.1,75.3l0.5-0.6l1.3,1c0.4-0.3,0.7-0.8,0.8-1.3c0.2-0.6,0.3-1.2,0.3-2
		c0-1.3-0.3-2.3-0.9-3.1c-0.6-0.7-1.4-1.1-2.5-1.1c-1,0-1.8,0.4-2.5,1.1c-0.6,0.8-0.9,1.8-0.9,3c0,1.3,0.3,2.3,0.9,3.1
		c0.6,0.7,1.5,1.1,2.6,1.1c0.3,0,0.6,0,0.8-0.1c0.3-0.1,0.5-0.2,0.7-0.3L5.1,75.3z"/>
	<path class="st1" d="M12.6,67.8v5.9c0,1,0.2,1.8,0.6,2.3c0.4,0.5,1.1,0.7,2.1,0.7c0.9,0,1.6-0.2,2.1-0.7c0.4-0.5,0.6-1.2,0.6-2.3
		v-5.9h0.9v6c0,1.2-0.3,2.1-0.9,2.7c-0.6,0.6-1.5,0.9-2.7,0.9c-1.2,0-2.1-0.3-2.7-0.9c-0.6-0.6-0.9-1.5-0.9-2.7v-6H12.6z"/>
</g>
<path class="st1" d="M24.9,68.7l1.8,4.8h-3.6L24.9,68.7z M24.4,67.8l-3.6,9.4h0.9l1.1-2.9H27l1.1,2.9H29l-3.6-9.4H24.4z"/>
<polygon class="st1" points="31.3,67.8 31.3,77.1 37,77.1 37,76.4 32.2,76.4 32.2,67.8 "/>
<rect x="39.5" y="67.8" class="st1" width="0.9" height="9.4"/>
<polygon class="st1" points="42.9,67.8 42.9,68.5 45.8,68.5 45.8,77.1 46.7,77.1 46.7,68.5 49.6,68.5 49.6,67.8 "/>
<polygon class="st1" points="57.4,67.8 54.7,72.2 51.9,67.8 50.9,67.8 54.2,73 54.2,77.1 55.1,77.1 55.1,73 58.4,67.8 "/>
<g>
	<path class="st1" d="M65.8,74.3c0,0.7,0.2,1.3,0.7,1.7c0.5,0.4,1.1,0.6,1.9,0.6c0.7,0,1.3-0.2,1.7-0.5c0.4-0.3,0.6-0.8,0.6-1.4
		c0-0.5-0.1-0.9-0.4-1.2c-0.3-0.3-0.9-0.5-1.7-0.8l-0.9-0.2c-1-0.2-1.6-0.6-2-0.9c-0.4-0.4-0.5-0.9-0.5-1.6c0-0.8,0.3-1.4,0.8-1.8
		c0.5-0.5,1.3-0.7,2.2-0.7c1,0,1.7,0.2,2.3,0.8c0.5,0.5,0.8,1.2,0.8,2.1h-0.9c0-0.7-0.2-1.2-0.6-1.5c-0.4-0.4-1-0.5-1.7-0.5
		c-0.7,0-1.2,0.2-1.6,0.5c-0.4,0.3-0.6,0.7-0.6,1.3c0,0.4,0.1,0.8,0.4,1c0.2,0.2,0.7,0.4,1.2,0.6l1.1,0.3c1.1,0.3,1.8,0.6,2.3,1
		c0.4,0.4,0.7,1,0.7,1.7c0,0.8-0.3,1.5-0.9,2c-0.6,0.5-1.4,0.7-2.4,0.7c-1.1,0-2-0.3-2.6-0.8c-0.6-0.5-0.9-1.3-0.9-2.2v-0.1H65.8z"
		/>
</g>
<polygon class="st1" points="74.6,67.8 74.6,77.1 80.9,77.1 80.9,76.4 75.5,76.4 75.5,72.7 80.3,72.7 80.3,71.9 75.5,71.9 
	75.5,68.5 80.8,68.5 80.8,67.8 "/>
<g>
	<path class="st1" d="M83.8,67.8H87c0.7,0,1.2,0,1.6,0.1c0.3,0.1,0.6,0.1,0.9,0.3c0.4,0.2,0.7,0.5,0.8,0.9c0.2,0.4,0.3,0.8,0.3,1.2
		c0,0.6-0.1,1.1-0.4,1.5c-0.2,0.4-0.6,0.7-1.1,0.8c0.4,0.1,0.6,0.3,0.8,0.6c0.2,0.3,0.3,0.8,0.4,1.6l0.1,1.4c0,0.2,0.1,0.4,0.1,0.5
		c0.1,0.1,0.1,0.2,0.2,0.3v0.1h-0.9c-0.1-0.1-0.1-0.2-0.1-0.4c0-0.2-0.1-0.4-0.1-0.6l-0.1-1.2c-0.1-0.8-0.2-1.4-0.5-1.6
		c-0.2-0.2-0.7-0.3-1.5-0.4h-2.7v4.2h-0.9V67.8z M87.2,72.2c0.9,0,1.5-0.1,1.9-0.4c0.4-0.3,0.6-0.8,0.6-1.4c0-0.3-0.1-0.6-0.2-0.8
		c-0.1-0.2-0.3-0.4-0.5-0.6c-0.2-0.1-0.4-0.2-0.6-0.2c-0.2-0.1-0.6-0.1-1.2-0.1h-2.4v3.6H87.2z"/>
</g>
<polygon class="st1" points="99.1,67.8 96.2,76 93.4,67.8 92.5,67.8 95.8,77.1 96.7,77.1 99.9,67.8 "/>
<rect x="102.3" y="67.8" class="st1" width="0.9" height="9.4"/>
<g>
	<path class="st1" d="M114.1,74.1c-0.1,1-0.4,1.8-1.1,2.4c-0.7,0.6-1.5,0.9-2.6,0.9c-1.3,0-2.3-0.4-3-1.3c-0.7-0.9-1.1-2.1-1.1-3.6
		c0-1.5,0.4-2.7,1.1-3.6c0.7-0.9,1.7-1.3,3-1.3c1.1,0,1.9,0.3,2.6,0.8c0.7,0.5,1,1.2,1.1,2.2h-0.8c-0.1-0.7-0.3-1.2-0.8-1.6
		c-0.5-0.4-1.1-0.6-1.9-0.6c-1,0-1.8,0.4-2.4,1.1c-0.6,0.7-0.8,1.7-0.8,3c0,1.3,0.3,2.3,0.9,3.1c0.6,0.7,1.4,1.1,2.4,1.1
		c0.8,0,1.5-0.2,2-0.7c0.5-0.5,0.8-1.1,0.8-1.9H114.1z"/>
</g>
<polygon class="st1" points="117.1,67.8 117.1,77.1 123.4,77.1 123.4,76.4 117.9,76.4 117.9,72.7 122.7,72.7 122.7,71.9 117.9,71.9 
	117.9,68.5 123.2,68.5 123.2,67.8 "/>
<g>
	<path class="st1" d="M126.7,74.3c0,0.7,0.2,1.3,0.7,1.7c0.5,0.4,1.1,0.6,1.9,0.6c0.7,0,1.3-0.2,1.7-0.5c0.4-0.3,0.6-0.8,0.6-1.4
		c0-0.5-0.1-0.9-0.4-1.2c-0.3-0.3-0.9-0.5-1.7-0.8l-0.9-0.2c-1-0.2-1.6-0.6-2-0.9c-0.4-0.4-0.5-0.9-0.5-1.6c0-0.8,0.3-1.4,0.8-1.8
		c0.5-0.5,1.3-0.7,2.2-0.7c1,0,1.7,0.2,2.3,0.8c0.5,0.5,0.8,1.2,0.8,2.1h-0.9c0-0.7-0.2-1.2-0.6-1.5c-0.4-0.4-1-0.5-1.7-0.5
		c-0.7,0-1.2,0.2-1.6,0.5c-0.4,0.3-0.6,0.7-0.6,1.3c0,0.4,0.1,0.8,0.4,1c0.2,0.2,0.7,0.4,1.2,0.6l1.1,0.3c1.1,0.3,1.8,0.6,2.3,1
		c0.4,0.4,0.7,1,0.7,1.7c0,0.8-0.3,1.5-0.9,2c-0.6,0.5-1.4,0.7-2.4,0.7c-1.1,0-2-0.3-2.6-0.8c-0.6-0.5-0.9-1.3-0.9-2.2v-0.1H126.7z"
		/>
</g>
<path class="st1" d="M143.2,68.7l1.8,4.8h-3.6L143.2,68.7z M142.7,67.8l-3.6,9.4h0.9l1.1-2.9h4.2l1.1,2.9h0.9l-3.6-9.4H142.7z"/>
<polygon class="st1" points="155.8,67.8 155.8,75.8 150.5,67.8 149.6,67.8 149.6,77.1 150.4,77.1 150.4,69.1 155.7,77.1 156.7,77.1 
	156.7,67.8 "/>
<g>
	<path class="st1" d="M164.6,67.9c0.4,0.1,0.7,0.2,1,0.4c0.6,0.4,1,0.9,1.3,1.6c0.3,0.7,0.5,1.6,0.5,2.5c0,1.1-0.2,2-0.5,2.7
		c-0.3,0.7-0.8,1.3-1.5,1.6c-0.3,0.1-0.6,0.2-1,0.3c-0.4,0.1-1,0.1-1.8,0.1h-2.6v-9.4h2.8C163.7,67.8,164.3,67.8,164.6,67.9
		 M162.7,76.4c0.7,0,1.2,0,1.5-0.1c0.3-0.1,0.6-0.1,0.8-0.3c0.5-0.3,0.8-0.7,1.1-1.3c0.2-0.6,0.4-1.3,0.4-2.3c0-0.9-0.1-1.6-0.3-2.2
		c-0.2-0.6-0.5-1-1-1.3c-0.2-0.2-0.5-0.3-0.8-0.3c-0.3-0.1-0.9-0.1-1.7-0.1h-1.7v7.8H162.7z"/>
</g>
<polygon class="st1" points="175.2,67.8 175.2,77.1 176.1,77.1 176.1,72.7 180.7,72.7 180.7,71.9 176.1,71.9 176.1,68.5 181.2,68.5 
	181.2,67.8 "/>
<polygon class="st1" points="184,67.8 184,77.1 189.6,77.1 189.6,76.4 184.8,76.4 184.8,67.8 "/>
<polygon class="st1" points="192,67.8 192,77.1 198.3,77.1 198.3,76.4 192.9,76.4 192.9,72.7 197.7,72.7 197.7,71.9 192.9,71.9 
	192.9,68.5 198.2,68.5 198.2,67.8 "/>
<polygon class="st1" points="206.5,67.8 204,71.6 201.5,67.8 200.4,67.8 203.5,72.3 200.3,77.1 201.4,77.1 204,73.1 206.7,77.1 
	207.7,77.1 204.5,72.3 207.5,67.8 "/>
<rect x="210.2" y="67.8" class="st1" width="0.9" height="9.4"/>
<g>
	<path class="st1" d="M214.6,67.8h3.1c0.5,0,1,0,1.3,0.1c0.3,0.1,0.6,0.1,0.8,0.3c0.4,0.2,0.6,0.5,0.8,0.8c0.2,0.3,0.3,0.7,0.3,1.2
		c0,0.5-0.1,0.9-0.4,1.2c-0.2,0.3-0.6,0.6-1,0.8c0.6,0.1,1,0.4,1.3,0.8c0.3,0.4,0.5,1,0.5,1.6c0,0.5-0.1,1-0.4,1.4
		c-0.3,0.4-0.6,0.7-1.1,0.9c-0.2,0.1-0.5,0.1-0.9,0.2c-0.4,0-1,0-1.8,0h-2.6V67.8z M215.5,68.5v3.4h2c1,0,1.6-0.1,2-0.4
		c0.4-0.2,0.6-0.7,0.6-1.3c0-0.6-0.2-1-0.5-1.3c-0.4-0.2-1-0.4-2-0.4H215.5z M218,76.4c0.9,0,1.6-0.1,1.9-0.4
		c0.4-0.3,0.5-0.7,0.5-1.4c0-0.6-0.2-1.1-0.6-1.4c-0.4-0.3-1-0.5-1.8-0.5h-2.6v3.7H218z"/>
</g>
<polygon class="st1" points="224.2,67.8 224.2,77.1 229.9,77.1 229.9,76.4 225.1,76.4 225.1,67.8 "/>
<polygon class="st1" points="232.3,67.8 232.3,77.1 238.6,77.1 238.6,76.4 233.2,76.4 233.2,72.7 238,72.7 238,71.9 233.2,71.9 
	233.2,68.5 238.5,68.5 238.5,67.8 "/>
<g>
	<path class="st1" d="M246.7,74.3c0,0.7,0.2,1.3,0.7,1.7c0.5,0.4,1.1,0.6,1.9,0.6c0.7,0,1.3-0.2,1.7-0.5c0.4-0.3,0.6-0.8,0.6-1.4
		c0-0.5-0.1-0.9-0.4-1.2c-0.3-0.3-0.9-0.5-1.7-0.8l-0.9-0.2c-1-0.2-1.6-0.6-2-0.9c-0.4-0.4-0.5-0.9-0.5-1.6c0-0.8,0.3-1.4,0.8-1.8
		c0.5-0.5,1.3-0.7,2.2-0.7c1,0,1.7,0.2,2.3,0.8c0.5,0.5,0.8,1.2,0.8,2.1h-0.9c0-0.7-0.2-1.2-0.6-1.5c-0.4-0.4-1-0.5-1.7-0.5
		c-0.7,0-1.2,0.2-1.6,0.5c-0.4,0.3-0.6,0.7-0.6,1.3c0,0.4,0.1,0.8,0.4,1c0.2,0.2,0.7,0.4,1.2,0.6l1.1,0.3c1.1,0.3,1.8,0.6,2.3,1
		c0.4,0.4,0.7,1,0.7,1.7c0,0.8-0.3,1.5-0.9,2c-0.6,0.5-1.4,0.7-2.4,0.7c-1.1,0-2-0.3-2.6-0.8c-0.6-0.5-0.9-1.3-0.9-2.2v-0.1H246.7z"
		/>
	<path class="st1" d="M256.3,68.8c0.8-0.9,1.8-1.3,3.1-1.3c1.3,0,2.4,0.4,3.1,1.3c0.8,0.9,1.2,2.1,1.2,3.6c0,1.5-0.4,2.7-1.2,3.6
		c-0.8,0.9-1.8,1.3-3.1,1.3c-1.3,0-2.4-0.4-3.1-1.3c-0.8-0.9-1.2-2.1-1.2-3.6C255.1,70.9,255.5,69.7,256.3,68.8 M256.9,75.5
		c0.6,0.7,1.4,1.1,2.5,1.1c1,0,1.9-0.4,2.5-1.1c0.6-0.7,0.9-1.8,0.9-3s-0.3-2.3-0.9-3.1c-0.6-0.7-1.4-1.1-2.5-1.1
		c-1,0-1.8,0.4-2.5,1.1c-0.6,0.8-0.9,1.8-0.9,3C256,73.7,256.3,74.7,256.9,75.5"/>
</g>
<polygon class="st1" points="266.7,67.8 266.7,77.1 272.4,77.1 272.4,76.4 267.6,76.4 267.6,67.8 "/>
<g>
	<path class="st1" d="M275.3,67.8v5.9c0,1,0.2,1.8,0.6,2.3c0.4,0.5,1.1,0.7,2.1,0.7c0.9,0,1.6-0.2,2.1-0.7c0.4-0.5,0.6-1.2,0.6-2.3
		v-5.9h0.9v6c0,1.2-0.3,2.1-0.9,2.7c-0.6,0.6-1.5,0.9-2.7,0.9c-1.2,0-2.1-0.3-2.7-0.9c-0.6-0.6-0.9-1.5-0.9-2.7v-6H275.3z"/>
</g>
<polygon class="st1" points="284,67.8 284,68.5 286.9,68.5 286.9,77.1 287.8,77.1 287.8,68.5 290.7,68.5 290.7,67.8 "/>
<rect x="293.2" y="67.8" class="st1" width="0.9" height="9.4"/>
<g>
	<path class="st1" d="M298.3,68.8c0.8-0.9,1.8-1.3,3.1-1.3c1.3,0,2.4,0.4,3.1,1.3c0.8,0.9,1.2,2.1,1.2,3.6c0,1.5-0.4,2.7-1.2,3.6
		c-0.8,0.9-1.8,1.3-3.1,1.3c-1.3,0-2.4-0.4-3.1-1.3c-0.8-0.9-1.2-2.1-1.2-3.6C297.2,70.9,297.5,69.7,298.3,68.8 M299,75.5
		c0.6,0.7,1.4,1.1,2.5,1.1c1,0,1.9-0.4,2.5-1.1c0.6-0.7,0.9-1.8,0.9-3s-0.3-2.3-0.9-3.1c-0.6-0.7-1.4-1.1-2.5-1.1
		c-1,0-1.8,0.4-2.5,1.1c-0.6,0.8-0.9,1.8-0.9,3C298,73.7,298.4,74.7,299,75.5"/>
</g>
<polygon class="st1" points="315,67.8 315,75.8 309.7,67.8 308.7,67.8 308.7,77.1 309.6,77.1 309.6,69.1 314.9,77.1 315.8,77.1 
	315.8,67.8 "/>
<g>
	<path class="st1" d="M319.6,74.3c0,0.7,0.2,1.3,0.7,1.7c0.5,0.4,1.1,0.6,1.9,0.6c0.7,0,1.3-0.2,1.7-0.5c0.4-0.3,0.6-0.8,0.6-1.4
		c0-0.5-0.1-0.9-0.4-1.2c-0.3-0.3-0.9-0.5-1.7-0.8l-0.9-0.2c-1-0.2-1.6-0.6-2-0.9c-0.4-0.4-0.5-0.9-0.5-1.6c0-0.8,0.3-1.4,0.8-1.8
		c0.5-0.5,1.3-0.7,2.2-0.7c1,0,1.7,0.2,2.3,0.8c0.5,0.5,0.8,1.2,0.8,2.1h-0.9c0-0.7-0.2-1.2-0.6-1.5c-0.4-0.4-1-0.5-1.7-0.5
		c-0.7,0-1.2,0.2-1.6,0.5c-0.4,0.3-0.6,0.7-0.6,1.3c0,0.4,0.1,0.8,0.4,1c0.2,0.2,0.7,0.4,1.2,0.6l1.1,0.3c1.1,0.3,1.8,0.6,2.3,1
		c0.4,0.4,0.7,1,0.7,1.7c0,0.8-0.3,1.5-0.9,2c-0.6,0.5-1.4,0.7-2.4,0.7c-1.1,0-2-0.3-2.6-0.8c-0.6-0.5-0.9-1.3-0.9-2.2v-0.1H319.6z"
		/>
</g>
<polygon class="st1" points="138.1,0.1 120.7,17.8 103.3,0.1 80.8,0.1 109.5,29.1 80.8,58 103.3,58 120.7,40.4 138.1,58 160.6,58 
	131.9,29.1 160.6,0.1 "/>
</svg>
