<?xml version="1.0" standalone="no"?>
<!DOCTYPE svg PUBLIC "-//W3C//DTD SVG 20010904//EN"
 "http://www.w3.org/TR/2001/REC-SVG-20010904/DTD/svg10.dtd">
<svg version="1.0" xmlns="http://www.w3.org/2000/svg"
 width="2335.000000pt" height="903.000000pt" viewBox="0 0 2335.000000 903.000000"
 preserveAspectRatio="xMidYMid meet">

<g transform="translate(0.000000,903.000000) scale(0.100000,-0.100000)"
fill="#000000" stroke="none">
<path d="M6375 8339 c-77 -3 -158 -11 -180 -17 -22 -6 -76 -18 -120 -26 -47
-9 -113 -31 -160 -54 -44 -21 -94 -44 -112 -51 -17 -7 -34 -19 -37 -26 -3 -8
-22 -23 -43 -34 -21 -10 -67 -45 -103 -77 -35 -31 -83 -69 -106 -84 -46 -29
-154 -124 -154 -135 0 -4 -36 -42 -80 -84 -44 -43 -80 -82 -80 -87 0 -5 -13
-22 -30 -39 -42 -42 -120 -142 -120 -153 0 -6 -22 -37 -49 -69 -26 -32 -51
-68 -55 -80 -4 -13 -13 -29 -19 -36 -25 -26 -59 -80 -61 -94 -2 -9 -10 -21
-19 -28 -9 -7 -17 -22 -17 -33 0 -12 -8 -29 -19 -39 -25 -24 -41 -57 -41 -84
0 -13 -8 -32 -18 -43 -17 -19 -72 -169 -72 -196 0 -6 -9 -23 -21 -39 -11 -15
-24 -43 -29 -62 -5 -19 -23 -88 -41 -154 -17 -66 -33 -147 -34 -180 -1 -33
-10 -82 -20 -110 -10 -27 -17 -74 -16 -103 0 -29 -4 -62 -9 -73 -6 -11 -7 -25
-3 -32 4 -6 9 -52 10 -102 1 -49 7 -119 13 -155 6 -36 15 -96 22 -135 6 -38
21 -92 34 -120 12 -27 32 -81 43 -120 12 -38 28 -76 35 -85 8 -8 19 -35 26
-60 7 -25 19 -52 27 -62 8 -9 21 -37 28 -62 8 -25 25 -61 39 -79 13 -17 30
-52 36 -77 7 -25 20 -57 31 -71 10 -14 24 -47 31 -72 11 -44 11 -48 -12 -72
-14 -14 -43 -34 -65 -44 -22 -10 -46 -25 -54 -34 -7 -10 -20 -17 -27 -17 -8 0
-14 -4 -14 -10 0 -5 -24 -21 -52 -36 -29 -14 -62 -34 -73 -43 -11 -10 -36 -24
-55 -31 -19 -8 -44 -23 -56 -34 -11 -12 -44 -34 -73 -51 -29 -16 -67 -41 -86
-55 -19 -14 -57 -38 -85 -55 -28 -16 -73 -43 -99 -60 -27 -16 -67 -41 -90 -55
-23 -14 -58 -37 -78 -52 -20 -16 -39 -28 -44 -28 -4 0 -20 -11 -36 -24 -15
-13 -45 -29 -67 -37 -21 -8 -41 -20 -43 -26 -3 -7 -25 -22 -49 -32 -24 -11
-44 -24 -44 -30 0 -5 -10 -13 -22 -17 -13 -4 -37 -19 -55 -34 -17 -16 -42 -31
-55 -35 -21 -7 -106 -62 -118 -76 -3 -3 -21 -14 -40 -24 -19 -10 -48 -28 -63
-41 -16 -13 -35 -24 -42 -24 -7 0 -26 -11 -42 -24 -15 -13 -44 -31 -63 -41
-19 -9 -46 -28 -60 -40 -26 -25 -105 -73 -205 -126 -33 -17 -72 -41 -87 -53
-14 -11 -49 -34 -77 -51 -28 -16 -75 -47 -104 -67 -28 -21 -73 -49 -99 -63
-56 -30 -67 -55 -40 -93 11 -15 93 -102 183 -194 90 -92 178 -182 194 -200 17
-18 44 -45 60 -61 126 -115 129 -123 99 -232 -14 -50 -23 -99 -19 -113 3 -14
-5 -63 -21 -115 -14 -51 -27 -121 -29 -157 -2 -41 -24 -140 -58 -265 -35 -126
-56 -219 -55 -250 0 -28 -1 -61 -3 -75 -6 -41 41 -29 109 27 33 26 74 57 92
68 103 62 139 87 187 131 20 19 46 37 57 40 12 4 44 25 73 48 60 47 119 90
173 126 85 56 156 105 170 117 36 32 94 73 103 73 5 0 29 17 52 38 71 62 146
116 189 136 23 10 60 36 83 57 24 22 47 39 52 39 5 0 31 18 56 40 25 22 50 40
54 40 5 0 24 12 44 28 19 15 48 36 63 47 15 11 53 42 83 69 31 27 72 55 91 63
19 9 53 32 76 52 22 20 55 45 74 56 74 44 131 82 192 128 96 73 130 96 164
112 17 8 34 21 37 30 4 8 35 33 69 55 35 22 69 45 77 52 8 7 27 20 41 28 15 8
43 27 61 43 126 102 152 113 180 76 10 -13 19 -31 19 -39 0 -9 6 -25 14 -36 8
-11 19 -40 26 -64 7 -25 18 -52 25 -60 7 -8 25 -44 40 -80 15 -36 31 -69 35
-75 4 -5 13 -28 20 -50 7 -22 21 -52 31 -67 11 -14 19 -31 19 -36 0 -12 68
-142 81 -157 5 -5 9 -21 9 -35 0 -14 11 -42 25 -60 14 -19 32 -56 39 -81 8
-25 18 -55 23 -65 5 -11 17 -34 26 -52 9 -19 17 -38 17 -44 0 -5 13 -28 29
-52 16 -23 34 -62 41 -86 7 -24 21 -55 31 -69 11 -13 24 -44 30 -67 6 -24 17
-48 25 -54 7 -7 21 -35 30 -63 9 -29 25 -63 34 -77 9 -14 20 -41 24 -61 3 -20
20 -53 36 -75 16 -21 30 -43 30 -47 0 -5 13 -36 28 -70 16 -34 35 -80 43 -102
8 -22 30 -71 50 -110 20 -38 39 -83 43 -99 4 -17 16 -42 27 -57 10 -15 19 -32
19 -39 0 -7 7 -26 16 -43 9 -18 21 -40 25 -49 5 -10 13 -26 19 -35 13 -24 83
-181 122 -273 29 -70 41 -97 55 -120 8 -14 21 -41 30 -60 8 -19 21 -42 28 -50
7 -8 18 -35 25 -59 20 -75 90 -147 90 -93 0 22 29 84 44 94 5 4 38 112 73 240
35 132 69 238 77 244 9 6 32 76 53 155 23 92 45 154 59 172 13 15 26 48 30 73
7 50 28 69 85 80 18 4 46 13 61 20 15 8 39 14 53 14 14 0 51 9 83 21 31 12 75
25 97 30 102 22 196 49 228 66 16 8 56 19 89 24 62 10 138 42 138 59 0 5 -11
25 -24 45 -14 20 -28 50 -32 68 -3 18 -20 51 -35 74 -16 23 -29 48 -29 56 0 8
-8 25 -18 38 -19 25 -62 110 -62 123 0 4 -13 27 -30 51 -16 24 -30 48 -30 52
0 5 -13 30 -29 56 -17 25 -35 65 -42 89 -7 24 -25 59 -41 79 -15 20 -28 43
-28 51 0 8 -13 32 -29 54 -16 21 -32 50 -36 64 -4 14 -23 46 -41 71 -18 25
-36 60 -39 78 -3 18 -16 47 -29 65 -13 17 -27 42 -31 56 -4 14 -16 37 -26 52
-11 14 -19 32 -19 40 0 8 -11 29 -25 48 -14 19 -25 40 -25 48 0 7 -11 28 -24
45 -25 35 -86 157 -86 174 0 5 -9 18 -20 28 -11 10 -29 43 -40 74 -12 31 -32
73 -46 93 -13 21 -24 41 -24 46 0 4 -16 32 -35 62 -19 30 -35 62 -35 71 0 9
-7 22 -15 29 -8 7 -15 20 -15 29 0 9 -9 27 -20 41 -11 14 -20 32 -20 41 0 9
-13 35 -30 57 -16 23 -30 44 -30 48 0 11 -54 119 -77 152 -13 19 -23 41 -23
49 0 8 -11 29 -24 46 -54 70 -57 120 -9 149 15 9 40 28 55 42 15 14 31 26 36
26 5 0 19 11 32 25 13 14 29 25 35 25 6 0 22 11 35 25 13 14 28 25 33 25 10 0
128 95 187 150 51 49 79 70 90 70 6 0 10 6 10 14 0 8 12 22 28 31 32 19 74 74
65 88 -3 5 -16 6 -29 3 -17 -5 -24 -2 -24 9 0 8 -5 15 -12 15 -6 0 -9 3 -5 6
3 4 0 12 -7 20 -14 13 -56 8 -67 -9 -4 -5 -10 1 -14 13 -5 15 -2 25 6 31 10 6
11 9 2 9 -7 0 -13 7 -13 15 0 17 -16 21 -22 5 -2 -6 -8 -6 -18 0 -13 9 -13 11
0 20 8 5 18 11 22 12 11 4 -2 48 -14 48 -5 0 -16 7 -24 15 -9 8 -13 15 -10 15
3 0 -2 9 -11 20 -10 11 -23 20 -30 20 -7 0 -13 7 -13 15 0 8 -9 15 -21 15 -11
0 -18 4 -15 8 5 8 -6 22 -51 63 -10 9 -30 19 -45 23 -25 6 -26 8 -17 39 6 21
6 33 -1 35 -6 2 -8 8 -5 13 3 4 -7 11 -22 15 -42 10 -62 35 -51 64 6 16 5 26
-3 31 -6 4 -8 12 -5 18 4 6 0 11 -8 11 -9 0 -16 7 -16 15 0 9 -9 15 -24 15
-13 0 -26 3 -28 8 -1 4 -23 14 -48 23 -38 14 -45 20 -45 42 1 19 -3 23 -11 16
-9 -7 -11 -1 -9 23 2 18 4 33 5 33 1 0 3 8 5 18 2 9 -1 17 -7 17 -6 0 -8 9 -5
21 3 12 0 22 -9 26 -8 3 -14 9 -14 15 0 5 5 6 10 3 6 -3 20 -3 31 0 20 7 19 8
-11 23 -27 13 -39 14 -77 3 -39 -10 -49 -9 -69 4 -18 12 -24 12 -24 3 0 -14
-35 -31 -83 -42 -15 -4 -36 -15 -47 -26 -10 -10 -37 -24 -59 -31 -23 -7 -41
-16 -41 -20 0 -13 -48 -42 -73 -44 -22 -3 -111 -57 -122 -76 -9 -14 -25 -11
-25 6 0 8 -13 36 -28 62 -16 26 -36 68 -45 92 -10 23 -29 59 -42 79 -14 20
-25 44 -25 53 0 8 -18 40 -40 69 -22 29 -40 60 -40 68 0 8 -11 27 -25 44 -14
16 -25 36 -25 44 0 8 -13 33 -30 56 -16 22 -30 49 -30 59 0 9 -11 30 -24 46
-13 15 -39 61 -59 100 -20 40 -47 88 -61 106 -14 19 -26 36 -26 40 0 9 -90
159 -106 174 -8 8 -14 25 -14 38 0 13 -6 30 -13 37 -8 7 -17 30 -21 51 -4 20
-11 37 -16 37 -6 0 -10 10 -10 22 0 25 -21 88 -30 88 -3 0 -6 19 -8 42 -1 23
-8 45 -14 49 -6 4 -12 22 -14 40 -2 19 -10 63 -19 99 -19 76 -16 140 5 150 43
21 180 73 210 80 19 5 53 14 75 20 22 7 63 15 90 19 28 3 57 11 65 16 8 5 60
10 115 12 55 2 120 6 145 8 62 7 95 7 165 1 33 -3 113 -10 178 -16 65 -5 124
-7 130 -3 26 16 105 -6 92 -27 -5 -8 34 -24 122 -50 23 -7 40 -17 37 -21 -3
-5 3 -9 12 -9 22 0 144 -48 164 -65 8 -7 25 -16 36 -19 12 -4 32 -15 44 -26
13 -11 31 -20 41 -20 10 0 21 -5 24 -10 6 -10 114 -85 181 -125 36 -22 172
-153 249 -240 123 -140 135 -148 153 -96 6 16 20 34 31 41 18 9 21 8 21 -9 0
-11 8 -25 18 -30 16 -10 16 -10 0 -11 -28 0 -43 -38 -24 -59 9 -10 19 -31 22
-49 5 -24 13 -32 35 -37 16 -4 28 -10 28 -13 -2 -14 14 -52 21 -52 4 0 11 -11
14 -24 4 -16 15 -25 36 -29 16 -4 30 -11 30 -16 0 -6 -7 -8 -16 -4 -14 5 -15
3 -6 -14 6 -11 9 -23 6 -26 -7 -7 46 -47 62 -47 9 0 14 11 14 29 0 16 5 42 11
58 10 26 12 26 19 8 7 -19 8 -18 13 5 8 35 4 100 -6 100 -5 0 -6 14 -2 31 7
29 6 31 -16 24 -24 -8 -24 -7 -5 13 16 19 17 32 11 129 -4 59 -13 135 -20 168
-7 33 -18 93 -25 132 -6 40 -16 75 -21 79 -5 3 -9 21 -9 40 0 32 -59 203 -79
228 -5 6 -16 38 -26 71 -10 33 -29 76 -42 95 -13 19 -23 42 -23 50 0 9 -7 25
-15 36 -8 10 -15 26 -15 35 0 24 -105 166 -170 228 -91 89 -211 191 -226 191
-3 0 -24 13 -47 28 -23 15 -64 38 -92 51 -27 13 -57 30 -66 38 -9 8 -90 32
-180 53 -90 21 -202 52 -250 69 -48 17 -94 28 -107 24 -12 -3 -34 -1 -49 4
-15 4 -91 6 -168 2z m478 -90 c20 -5 37 -14 37 -19 0 -12 -57 -2 -90 16 -22
12 -23 13 -5 14 11 0 37 -5 58 -11z m-72 -202 c-9 -23 -41 -36 -41 -17 0 6 5
8 10 5 11 -7 13 4 11 45 -2 24 -1 24 13 7 10 -13 12 -26 7 -40z m989 -1247 c0
-11 -4 -20 -9 -20 -5 0 -7 9 -4 20 3 11 7 20 9 20 2 0 4 -9 4 -20z m-1240
-1097 c0 -14 -19 -38 -25 -32 -8 8 5 39 16 39 5 0 9 -3 9 -7z m640 -1124 c0
-6 -4 -7 -10 -4 -5 3 -10 11 -10 16 0 6 5 7 10 4 6 -3 10 -11 10 -16z"/>
<path d="M7660 6590 c0 -15 5 -20 18 -18 9 2 17 10 17 18 0 8 -8 16 -17 18
-13 2 -18 -3 -18 -18z"/>
<path d="M7668 6523 c-24 -6 -23 -40 1 -52 14 -8 22 -6 35 8 20 22 20 37 0 45
-9 3 -16 5 -17 5 -1 -1 -10 -3 -19 -6z"/>
<path d="M8008 6349 c-9 -9 -15 -25 -15 -35 1 -11 -8 -23 -20 -29 -23 -10 -38
-48 -27 -67 9 -14 34 19 34 44 0 10 4 18 8 18 12 0 46 64 41 76 -2 6 -11 2
-21 -7z"/>
<path d="M7924 6135 c-9 -37 2 -41 14 -6 7 18 7 31 2 31 -5 0 -12 -11 -16 -25z"/>
<path d="M6630 5794 c0 -8 5 -12 10 -9 6 3 10 10 10 16 0 5 -4 9 -10 9 -5 0
-10 -7 -10 -16z"/>
<path d="M7090 5216 c0 -8 7 -16 15 -20 13 -4 14 -2 5 14 -13 23 -20 26 -20 6z"/>
</g>
</svg>
